<?xml version="1.0" standalone="no"?>
<!DOCTYPE svg PUBLIC "-//W3C//DTD SVG 1.1//EN" "http://www.w3.org/Graphics/SVG/1.1/DTD/svg11.dtd" >
<svg>
<metadata>
Created by FontForge 20090622 at Fri Aug 23 07:14:03 2019
 By deploy user
Copyright 2018 The Inter UI project authors
</metadata>
<defs>
<font id="InterUI-SemiBold" horiz-adv-x="0" >
  <font-face 
    font-family="Inter UI Semi Bold"
    font-weight="600"
    font-stretch="normal"
    units-per-em="2816"
    panose-1="2 11 7 2 3 0 0 0 0 4"
    ascent="2252"
    descent="-564"
    x-height="1536"
    cap-height="2048"
    bbox="-2182 -1137 4470 2951"
    underline-thickness="204"
    underline-position="-320"
    unicode-range="U+0020-U+1F16B"
  />
<missing-glyph horiz-adv-x="2904" 
d="M277 -640v512h2350v-512h-2350zM277 64v512h2350v-512h-2350zM277 768v512h2350v-512h-2350zM277 1472v512h2350v-512h-2350zM277 2176v512h2350v-512h-2350z" />
    <glyph glyph-name=".notdef" horiz-adv-x="2904" 
d="M277 -640v512h2350v-512h-2350zM277 64v512h2350v-512h-2350zM277 768v512h2350v-512h-2350zM277 1472v512h2350v-512h-2350zM277 2176v512h2350v-512h-2350z" />
    <glyph glyph-name=".null" 
 />
    <glyph glyph-name="nonmarkingreturn" horiz-adv-x="938" 
 />
    <glyph glyph-name="uni0020" unicode=" " horiz-adv-x="699" 
 />
    <glyph glyph-name="uni0021" unicode="!" horiz-adv-x="870" 
d="M629 2048l-33 -1446h-322l-32 1446h387zM435 -29q-94 0 -159.5 63t-65.5 153q0 91 65.5 153.5t159.5 62.5q95 0 160.5 -62.5t65.5 -153.5q0 -90 -66 -153t-160 -63z" />
    <glyph glyph-name="uni0022" unicode="&#x22;" horiz-adv-x="1182" 
d="M455 2048v-754h-276v754h276zM970 2048v-754h-276v754h276z" />
    <glyph glyph-name="uni0023" unicode="#" horiz-adv-x="1867" 
d="M374 0l87 566h-313l14 229h335l66 429h-315l14 232h336l88 568h241l-88 -568h329l88 568h242l-88 -568h310l-12 -232h-334l-67 -429h313l-14 -229h-334l-88 -566h-240l87 566h-329l-87 -566h-241zM738 795h329l66 429h-329z" />
    <glyph glyph-name="uni0024" unicode="$" horiz-adv-x="1828" 
d="M856 -256v227q-332 15 -525 180.5t-203 453.5h365q10 -141 108.5 -221.5t254.5 -94.5v600l-128 33q-546 141 -546 550q0 167 87 300t239.5 210.5t347.5 90.5v231h128v-229q201 -9 356.5 -86t242 -208t89.5 -296h-357q-13 119 -100.5 191t-230.5 84v-566l114 -29
q98 -23 181.5 -55t163 -82t134.5 -112.5t89 -150t34 -190.5q-1 -263 -190.5 -426.5t-525.5 -178.5v-226h-128zM984 289q156 14 250 92t95 197q-1 108 -87.5 170.5t-257.5 107.5v-567zM856 1226v532q-139 -16 -218 -87.5t-80 -175.5q-1 -55 23.5 -100.5t69 -77t93.5 -53
t112 -38.5z" />
    <glyph glyph-name="uni0025" unicode="%" horiz-adv-x="2376" 
d="M1277 384v108q1 121 50 220t149 160t234 61q104 0 187.5 -35t136.5 -95.5t81 -140t28 -170.5v-108q0 -90 -28.5 -169.5t-82 -140t-137 -96t-185.5 -35.5q-136 0 -236 61.5t-148 160t-49 219.5zM236 1556v108q0 90 29.5 170t83.5 140.5t137 95.5t184 35q103 0 186.5 -35
t136.5 -95.5t81 -140t28 -170.5v-108q0 -91 -28.5 -170t-82 -139.5t-136.5 -95t-185 -34.5q-203 0 -318 126t-116 313zM326 0l1408 2048h251l-1408 -2048h-251zM1538 492v-108q1 -57 16 -102t55 -77t101 -32q89 0 130 60.5t40 150.5v108q1 91 -39 152t-131 61
q-60 0 -100 -32t-55.5 -78t-16.5 -103zM499 1664v-108q1 -90 41.5 -150.5t129.5 -60.5t129.5 60.5t39.5 150.5v108q1 91 -38.5 152t-130.5 61q-88 0 -129 -61.5t-42 -151.5z" />
    <glyph glyph-name="uni0026" unicode="&#x26;" horiz-adv-x="1866" 
d="M123 544q0 88 26.5 163.5t81.5 142t118.5 120.5t157.5 119q-101 125 -155.5 238t-54.5 240q0 221 148.5 363.5t388.5 142.5q118 0 217 -37.5t164.5 -101.5t102 -148t36.5 -178q0 -270 -272 -467l-129 -95l374 -438q86 161 86 357h311q0 -375 -178 -614l300 -351h-392
l-131 150q-103 -89 -242.5 -134.5t-282.5 -45.5q-154 0 -281.5 44t-213.5 121t-133 182t-47 227zM1126 376l-425 486l-33 -24q-96 -70 -143 -144.5t-47 -133.5q0 -124 91.5 -208t239.5 -84q167 0 317 108zM768 1267l116 79q83 53 123 111.5t40 134.5q0 71 -58 127.5
t-150 56.5q-95 0 -157 -64t-62 -150q0 -65 37.5 -135.5t110.5 -159.5z" />
    <glyph glyph-name="uni0027" unicode="'" horiz-adv-x="600" 
d="M436 2048v-754h-276v754h276z" />
    <glyph glyph-name="uni0028" unicode="(" horiz-adv-x="1108" 
d="M276 835q0 735 396 1271h341q-154 -200 -257 -559.5t-103 -711.5t103 -711t257 -559h-341q-396 536 -396 1270z" />
    <glyph glyph-name="uni0029" unicode=")" horiz-adv-x="1108" 
d="M832 835q0 -735 -396 -1271h-341q154 200 257 559.5t103 711.5t-103 711t-257 559h341q396 -536 396 -1270z" />
    <glyph glyph-name="uni002A" unicode="*" horiz-adv-x="1530" 
d="M643 896l23 405l-340 -223l-122 212l363 182l-363 182l122 212l340 -223l-23 405h243l-22 -405l340 223l122 -212l-364 -182l364 -182l-122 -212l-340 223l22 -405h-243z" />
    <glyph glyph-name="uni002B" unicode="+" horiz-adv-x="1725" 
d="M1515 1043v-294h-504v-493h-297v493h-504v294h504v493h297v-493h504z" />
    <glyph glyph-name="uni002C" unicode="," horiz-adv-x="831" 
d="M611 280l-13 -110q-28 -253 -187 -670h-244l11 45l14 58l14.5 62.5t16 75t15 76.5t15.5 85.5t12.5 84.5t11 91.5t7.5 89.5l7 112h320z" />
    <glyph glyph-name="uni002D" unicode="-" horiz-adv-x="1339" 
d="M1162 1010v-280h-984v280h984z" />
    <glyph glyph-name="uni002E" unicode="." horiz-adv-x="819" 
d="M409 -22q-92 0 -156.5 64t-63.5 156q-1 89 64.5 152.5t155.5 63.5t155.5 -64t65.5 -152q0 -92 -65 -156t-156 -64z" />
    <glyph glyph-name="uni002F" unicode="/" horiz-adv-x="1066" 
d="M1022 2144l-660 -2452h-317l660 2452h317z" />
    <glyph glyph-name="uni0030" unicode="0" horiz-adv-x="1846" 
d="M923 -39q-362 0 -563.5 277.5t-201.5 780.5q0 502 201.5 779.5t563.5 277.5t563.5 -277t201.5 -778q0 -505 -201.5 -783t-563.5 -277zM923 272q194 0 301.5 195.5t107.5 551.5q-1 357 -108 553.5t-301 196.5t-301.5 -196.5t-107.5 -553.5q0 -356 107.5 -551.5
t301.5 -195.5z" />
    <glyph glyph-name="uni0031" unicode="1" horiz-adv-x="1296" 
d="M957 2048v-2048h-363v1574h-17q-35 -56 -150 -104t-273 -48v300q99 0 188 38t144 92t88 106.5t36 89.5h347z" />
    <glyph glyph-name="uni0032" unicode="2" horiz-adv-x="1766" 
d="M198 0v268l711 697q85 87 133.5 141.5t92.5 117.5t62 119.5t18 119.5q0 142 -96.5 227t-245.5 85q-154 0 -247.5 -92t-92.5 -248h-353q0 191 89.5 337.5t248 225t360.5 78.5q152 0 281 -47t217 -129t137.5 -194t50.5 -240q0 -126 -48 -240t-149 -239t-286 -304l-355 -359
v-14h876v-310h-1404z" />
    <glyph glyph-name="uni0033" unicode="3" horiz-adv-x="1835" 
d="M917 -28q-214 0 -383 73.5t-266 207t-102 304.5h376q7 -124 112 -199t262 -75q165 0 270.5 85t104.5 220q1 141 -110 228t-302 87h-181v286h181q160 0 260 82t99 216q1 129 -86.5 208.5t-230.5 79.5q-95 0 -174 -33.5t-128.5 -97.5t-52.5 -148h-357q4 168 99 301t256 206
t359 73q150 0 277.5 -45t214 -121.5t134.5 -180.5t48 -220q1 -170 -100 -288t-270 -155v-16q213 -30 330 -158.5t116 -322.5q0 -171 -97 -307.5t-270 -213t-389 -76.5z" />
    <glyph glyph-name="uni0034" unicode="4" horiz-adv-x="1875" 
d="M145 380v295l869 1373h462v-1363h262v-305h-262v-380h-354v380h-977zM1126 685v943h-16l-585 -927v-16h601z" />
    <glyph glyph-name="uni0035" unicode="5" horiz-adv-x="1781" 
d="M894 -28q-198 0 -357.5 75t-252 208.5t-97.5 301.5h360q10 -125 108.5 -205t238.5 -80q165 0 271 110.5t105 281.5q1 174 -108 286t-278 113q-92 1 -181 -34t-141 -92l-335 55l107 1056h1188v-310h-881l-59 -543h12q59 69 163.5 112.5t225.5 43.5q138 0 257.5 -51
t205 -140t134.5 -215t49 -272q0 -201 -93 -361t-261 -250t-381 -90z" />
    <glyph glyph-name="uni0036" unicode="6" horiz-adv-x="1825" 
d="M932 -28q-87 0 -167.5 16t-159.5 51t-146 88.5t-125 133t-98 180t-63 234.5t-23 291q0 525 215.5 820.5t587.5 295.5q285 0 474.5 -164.5t223.5 -421.5h-365q-29 123 -116 194t-217 71q-212 0 -327 -184.5t-116 -514.5h14q73 132 210 207.5t302 75.5q178 0 323 -85.5
t228 -238.5t83 -343q0 -151 -53.5 -281.5t-149 -224.5t-234 -147.5t-301.5 -52.5zM930 272q162 0 271.5 115t108.5 283q1 166 -106 279t-269 113q-161 0 -272 -116t-113 -279q1 -163 109.5 -279t270.5 -116z" />
    <glyph glyph-name="uni0037" unicode="7" horiz-adv-x="1653" 
d="M257 0l871 1724v14h-1011v310h1395v-317l-870 -1731h-385z" />
    <glyph glyph-name="uni0038" unicode="8" horiz-adv-x="1819" 
d="M910 -28q-220 0 -395 74.5t-271.5 206t-95.5 296.5q-1 190 122 335t306 175v14q-158 34 -256 160.5t-96 293.5q-1 156 87 281.5t245.5 196.5t353.5 71q295 0 489 -156t196 -393q-2 -167 -99.5 -293.5t-252.5 -160.5v-14q180 -30 303.5 -175t124.5 -335
q-1 -165 -98 -296.5t-271 -206t-392 -74.5zM910 258q170 0 274 87.5t106 229.5q-1 146 -109 240.5t-271 94.5q-167 0 -274 -94.5t-106 -240.5q-2 -142 102 -229.5t278 -87.5zM910 1191q140 0 231.5 84t92.5 217q-1 132 -91 213t-233 81q-146 0 -235.5 -81t-88.5 -213
q-1 -134 89.5 -217.5t234.5 -83.5z" />
    <glyph glyph-name="uni0039" unicode="9" horiz-adv-x="1825" 
d="M893 2082q123 -1 232.5 -32t212 -104t175.5 -184t117.5 -284t44.5 -391q-1 -525 -216.5 -820t-586.5 -295q-286 0 -476 163.5t-222 422.5h365q28 -124 115 -194.5t218 -70.5q211 0 326.5 184.5t116.5 514.5h-14q-74 -132 -210.5 -207.5t-301.5 -75.5q-133 0 -250.5 50
t-202 137.5t-133.5 212t-49 267.5q0 150 53.5 280.5t149 225t234.5 148t302 52.5zM894 1782q-162 0 -271 -115t-109 -283q0 -167 107 -280t269 -113q160 0 272 117t112 278q0 163 -109 279.5t-271 116.5z" />
    <glyph glyph-name="uni003A" unicode=":" horiz-adv-x="818" 
d="M415 -22q-92 0 -156.5 64t-63.5 156q-1 89 64.5 152.5t155.5 63.5t155.5 -64t65.5 -152q0 -92 -65 -156t-156 -64zM415 1075q-92 0 -156.5 64t-63.5 156q-1 89 64.5 152.5t155.5 63.5t155.5 -64t65.5 -152q0 -92 -65 -156t-156 -64z" />
    <glyph glyph-name="uni003B" unicode=";" horiz-adv-x="828" 
d="M611 280l-13 -110q-28 -253 -187 -670h-244l11 45l14 58l14.5 62.5t16 75t15 76.5t15.5 85.5t12.5 84.5t11 91.5t7.5 89.5l7 112h320zM445 1096q-92 0 -156.5 64t-63.5 156q-1 89 64.5 152.5t155.5 63.5t155.5 -64t65.5 -152q0 -92 -65 -156t-156 -64z" />
    <glyph glyph-name="uni003C" unicode="&#x3c;" horiz-adv-x="1339" 
d="M1160 378l-218 -204l-818 722l818 722l218 -204l-590 -514v-8z" />
    <glyph glyph-name="uni003D" unicode="=" horiz-adv-x="1728" 
d="M277 742h1174v-296h-1174v296zM277 1346h1174v-296h-1174v296z" />
    <glyph glyph-name="uni003E" unicode="&#x3e;" horiz-adv-x="1341" 
d="M372 174l-218 204l590 514v8l-590 514l218 204l818 -722z" />
    <glyph glyph-name="uni003F" unicode="?" horiz-adv-x="1532" 
d="M532 602q-5 132 10.5 228.5t54.5 166.5t89 117.5t127 95.5q103 65 158.5 139.5t55.5 171.5q0 115 -79.5 187t-196.5 72q-73 0 -135 -29.5t-104.5 -94t-46.5 -154.5h-356q4 139 55.5 249.5t139 180.5t202 107t247.5 37q289 0 467 -149.5t178 -400.5q0 -304 -286 -481
q-97 -60 -147.5 -113t-75 -130.5t-24.5 -199.5h-333zM706 -29q-93 0 -158.5 63t-66.5 153q1 91 66.5 153.5t158.5 62.5q95 0 161 -62.5t65 -153.5q1 -90 -65 -153t-161 -63z" />
    <glyph glyph-name="uni0040" unicode="@" horiz-adv-x="2814" 
d="M1472 2017q229 0 425.5 -58t341.5 -163t247.5 -250t154 -321t51.5 -373q2 -836 -552 -857q-151 -8 -245.5 50t-112.5 171h-12q-37 -94 -161.5 -155.5t-288.5 -53.5q-251 12 -408.5 202t-157.5 513q0 155 46 283t123.5 212t174 134.5t203.5 64.5q155 21 285.5 -24
t155.5 -115h14v112h279v-952q1 -75 37 -121t99 -46q119 0 171.5 143.5t51.5 455.5q0 208 -70 374.5t-194.5 274t-294 164.5t-370.5 57q-240 0 -430 -75t-313 -211t-187.5 -323.5t-64.5 -415.5q0 -487 262 -746.5t758 -259.5q152 0 304 32.5t249 69.5l85 -254
q-100 -52 -285.5 -91t-369.5 -39q-628 0 -971 336t-344 948q0 397 154.5 691t452 455t707.5 161zM1405 1129q-164 0 -257.5 -109.5t-94.5 -285.5q0 -90 19 -165.5t58 -139t109 -99.5t164 -36q186 0 266 108t78 333q-1 207 -79.5 300.5t-262.5 93.5z" />
    <glyph glyph-name="uni0041" unicode="A" horiz-adv-x="2038" 
d="M465 0h-396l721 2048h458l722 -2048h-396l-170 505h-770zM734 803h570l-277 825h-16z" />
    <glyph glyph-name="uni0042" unicode="B" horiz-adv-x="1851" 
d="M202 0v2048h784q163 0 290.5 -40t208.5 -111.5t123 -167.5t42 -212q0 -178 -99 -288t-259 -148v-20q83 -4 160.5 -40t140 -98.5t100 -157.5t37.5 -207q0 -121 -44 -222t-129 -176.5t-219.5 -117.5t-306.5 -42h-829zM573 310h399q194 0 287.5 74t93.5 203
q0 140 -101.5 231.5t-269.5 91.5h-409v-600zM573 1177h367q148 0 243.5 79.5t95.5 212.5q0 123 -86 198t-245 75h-375v-565z" />
    <glyph glyph-name="uni0043" unicode="C" horiz-adv-x="2094" 
d="M1955 1357h-374q-32 181 -164.5 283.5t-322.5 102.5q-257 0 -414 -190t-157 -529q0 -343 156.5 -531t413.5 -188q187 0 320 99t168 276l374 -2q-21 -147 -91.5 -275.5t-180 -224.5t-263.5 -151t-332 -55q-202 0 -374 72t-297.5 205t-196 332.5t-70.5 442.5t71.5 442.5
t197 332.5t297 205t372.5 72q346 0 583 -191.5t284 -527.5z" />
    <glyph glyph-name="uni0044" unicode="D" horiz-adv-x="2040" 
d="M896 0h-694v2048h708q458 0 719 -272t261 -750q0 -481 -263.5 -753.5t-730.5 -272.5zM573 321h305q644 0 644 705q0 350 -160 525.5t-473 175.5h-316v-1406z" />
    <glyph glyph-name="uni0045" unicode="E" horiz-adv-x="1711" 
d="M202 0v2048h1332v-311h-961v-556h892v-311h-892v-559h969v-311h-1340z" />
    <glyph glyph-name="uni0046" unicode="F" horiz-adv-x="1649" 
d="M202 0v2048h1312v-311h-941v-556h851v-311h-851v-870h-371z" />
    <glyph glyph-name="uni0047" unicode="G" horiz-adv-x="2126" 
d="M150 1022q0 243 70.5 442.5t195 333t295.5 206t372 72.5q224 0 411 -86t307 -241.5t151 -354.5h-381q-53 165 -178.5 257t-309.5 92q-252 0 -406 -190t-154 -527q0 -343 156.5 -532t418.5 -189q142 0 256.5 58t181 167.5t66.5 251.5h-464v290h831v-246
q0 -259 -112.5 -454t-310 -297.5t-450.5 -102.5q-210 0 -385.5 73.5t-299.5 208t-192.5 331.5t-68.5 437z" />
    <glyph glyph-name="uni0048" unicode="H" horiz-adv-x="2095" 
d="M202 0v2048h371v-867h949v867h372v-2048h-372v870h-949v-870h-371z" />
    <glyph glyph-name="uni0049" unicode="I" horiz-adv-x="774" 
d="M573 2048v-2048h-371v2048h371z" />
    <glyph glyph-name="uni004A" unicode="J" horiz-adv-x="1582" 
d="M1010 608v1440h368v-1440q-1 -294 -181.5 -465t-479.5 -171q-136 0 -251 37t-201 107t-134.5 180t-48.5 248h369q2 -124 78.5 -195.5t201.5 -71.5q134 0 206 85t73 246z" />
    <glyph glyph-name="uni004B" unicode="K" horiz-adv-x="1906" 
d="M202 0v2048h371v-941h25l799 941h453l-792 -919l799 -1129h-446l-611 878l-227 -268v-610h-371z" />
    <glyph glyph-name="uni004C" unicode="L" horiz-adv-x="1594" 
d="M202 0v2048h371v-1737h902v-311h-1273z" />
    <glyph glyph-name="uni004D" unicode="M" horiz-adv-x="2552" 
d="M202 2048h454l608 -1484h24l608 1484h454v-2048h-356v1407h-19l-566 -1401h-266l-566 1404h-19v-1410h-356v2048z" />
    <glyph glyph-name="uni004E" unicode="N" horiz-adv-x="2086" 
d="M1885 2048v-2048h-330l-965 1395h-17v-1395h-371v2048h332l964 -1396h18v1396h369z" />
    <glyph glyph-name="uni004F" unicode="O" horiz-adv-x="2182" 
d="M2032 1024q0 -243 -71.5 -442.5t-197.5 -332.5t-298.5 -205t-373.5 -72q-202 0 -374 72t-298 205t-197.5 332.5t-71.5 442.5t71.5 442.5t197.5 332.5t298 205t374 72q201 0 373.5 -72t298.5 -205t197.5 -332.5t71.5 -442.5zM1659 1024q0 342 -155.5 530.5t-412.5 188.5
q-256 0 -412 -188.5t-156 -530.5t156 -530.5t412 -188.5q257 0 412.5 188.5t155.5 530.5z" />
    <glyph glyph-name="uni0050" unicode="P" horiz-adv-x="1812" 
d="M202 0v2048h768q173 0 311 -50.5t227.5 -141.5t136.5 -214.5t47 -271.5t-47.5 -272t-137.5 -214.5t-229 -141t-313 -50.5h-392v-692h-371zM573 997h342q200 0 300 100.5t99 272.5q1 169 -99.5 268.5t-301.5 99.5h-340v-741z" />
    <glyph glyph-name="uni0051" unicode="Q" horiz-adv-x="2184" 
d="M2032 1024q0 -272 -87.5 -485t-245.5 -351l284 -364h-360l-169 215q-169 -67 -363 -67q-202 0 -374 72t-298 205t-197.5 332.5t-71.5 442.5t71.5 442.5t197.5 332.5t298 205t374 72q201 0 373.5 -72t298.5 -205t197.5 -332.5t71.5 -442.5zM965 688h336l174 -226
q184 192 184 562q0 342 -155.5 530.5t-412.5 188.5q-256 0 -412 -188.5t-156 -530.5t156 -530.5t412 -188.5q81 0 151 19z" />
    <glyph glyph-name="uni0052" unicode="R" horiz-adv-x="1843" 
d="M202 0v2048h790q333 0 521.5 -173.5t188.5 -469.5q0 -200 -95.5 -348.5t-272.5 -224.5l444 -832h-414l-405 770h-386v-770h-371zM573 1061h376q184 0 278.5 89t94.5 248q0 160 -93 250t-263 90h-393v-677z" />
    <glyph glyph-name="uni0053" unicode="S" horiz-adv-x="1828" 
d="M1315 1485q-14 130 -117 203.5t-269 73.5q-171 0 -270.5 -74.5t-100.5 -192.5q-1 -61 28.5 -109.5t83.5 -81.5t109 -53.5t127 -37.5l192 -48q98 -23 181.5 -55t163 -82t134.5 -112.5t89 -150t34 -190.5q-1 -275 -207.5 -440.5t-569.5 -165.5q-361 0 -572.5 166.5
t-222.5 469.5h365q11 -156 128 -237.5t299 -81.5t295 80.5t114 211.5q0 77 -48.5 132.5t-123.5 88t-196 63.5l-233 60q-546 141 -546 550q0 178 98 316.5t269 213t385 74.5q215 0 382 -75.5t260 -209.5t96 -306h-357z" />
    <glyph glyph-name="uni0054" unicode="T" horiz-adv-x="1858" 
d="M112 1737v311h1634v-311h-633v-1737h-368v1737h-633z" />
    <glyph glyph-name="uni0055" unicode="U" horiz-adv-x="2066" 
d="M1494 2048h370v-1354q0 -137 -41 -253.5t-115.5 -202.5t-177.5 -147t-229 -91.5t-268 -30.5q-179 0 -330.5 48.5t-263 139.5t-174.5 229t-63 308v1354h371v-1345q0 -123 61.5 -215t165 -138.5t233.5 -46.5t233.5 46.5t165.5 138.5t62 215v1345z" />
    <glyph glyph-name="uni0056" unicode="V" horiz-adv-x="2038" 
d="M476 2048l533 -1612h21l532 1612h408l-722 -2048h-458l-721 2048h407z" />
    <glyph glyph-name="uni0057" unicode="W" horiz-adv-x="2835" 
d="M633 0l-578 2048h399l369 -1505h19l394 1505h363l395 -1506h18l369 1506h399l-578 -2048h-366l-410 1437h-16l-411 -1437h-366z" />
    <glyph glyph-name="uni0058" unicode="X" horiz-adv-x="1944" 
d="M512 2048l451 -750h16l453 750h423l-631 -1024l641 -1024h-430l-456 745h-16l-456 -745h-428l647 1024l-639 1024h425z" />
    <glyph glyph-name="uni0059" unicode="Y" horiz-adv-x="1989" 
d="M65 2048h418l501 -906h21l501 906h418l-745 -1284v-764h-369v764z" />
    <glyph glyph-name="uni005A" unicode="Z" horiz-adv-x="1838" 
d="M164 0v231l1050 1506h-1056v311h1516v-231l-1049 -1506h1055v-311h-1516z" />
    <glyph glyph-name="uni005B" unicode="[" horiz-adv-x="1108" 
d="M310 -435v2541h723v-278h-375v-1986h375v-277h-723z" />
    <glyph glyph-name="uni005C" unicode="\" horiz-adv-x="1136" 
d="M99 2048h327l607 -2356h-327z" />
    <glyph glyph-name="uni005D" unicode="]" horiz-adv-x="1108" 
d="M798 2105v-2541h-723v278h375v1986h-375v277h723z" />
    <glyph glyph-name="uni005E" unicode="^" horiz-adv-x="1322" 
d="M910 1004l-248 629l-248 -629h-304l419 1000h268l417 -1000h-304z" />
    <glyph glyph-name="uni005F" unicode="_" horiz-adv-x="1318" 
d="M1321 0v-289h-1323v289h1323z" />
    <glyph glyph-name="uni0060" unicode="`" horiz-adv-x="949" 
d="M535 2112l275 -421h-308l-382 421h415z" />
    <glyph glyph-name="uni0061" unicode="a" horiz-adv-x="1618" 
d="M628 -31q-149 0 -263.5 51.5t-182.5 157.5t-68 253q0 100 33 178t85.5 127t131.5 83.5t157 51t176 27.5l27 3q211 23 268 41q72 23 83 73q2 12 2 25q-1 115 -67.5 177t-192.5 62q-125 0 -205.5 -55t-109.5 -140l-338 48q59 207 231.5 315.5t424.5 108.5q91 0 175 -15.5
t166 -54t142.5 -97t98 -151.5t37.5 -210v-1028h-348v211h-12q-54 -106 -168 -174t-283 -68zM722 235q159 0 257.5 92t98.5 224v181q-44 -36 -332 -75q-283 -40 -283 -220q0 -97 71 -149.5t188 -52.5z" />
    <glyph glyph-name="uni0062" unicode="b" horiz-adv-x="1759" 
d="M186 0v2048h362v-766h15q136 274 439 274q134 0 249 -52t201 -150t135 -249.5t49 -338.5q0 -186 -48 -337t-133 -250t-200.5 -152.5t-251.5 -53.5q-303 0 -440 269h-21v-242h-356zM541 768q0 -227 95 -362.5t266 -135.5q174 0 269.5 137.5t95.5 360.5q0 145 -40.5 254.5
t-123.5 173t-201 63.5q-172 0 -266.5 -132t-94.5 -359z" />
    <glyph glyph-name="uni0063" unicode="c" horiz-adv-x="1630" 
d="M859 -30q-225 0 -393 101t-255.5 280t-87.5 411q0 233 89 413t256 280.5t389 100.5q281 0 461 -151t200 -401h-347q-21 116 -102 188t-207 72q-169 0 -270.5 -133t-101.5 -363q0 -234 100.5 -368.5t271.5 -134.5q120 0 203 68.5t106 191.5h347q-21 -249 -197.5 -402
t-461.5 -153z" />
    <glyph glyph-name="uni0064" unicode="d" horiz-adv-x="1759" 
d="M1573 0h-356v242h-21q-137 -269 -440 -269q-136 0 -251.5 53.5t-200.5 152.5t-133 250t-48 337q0 187 49 338.5t135 249.5t201 150t249 52q303 0 439 -274h15v766h362v-2048zM1218 768q0 227 -94.5 359t-266.5 132q-118 0 -201 -63.5t-123.5 -173t-40.5 -254.5
q0 -223 95.5 -360.5t269.5 -137.5q171 0 266 135.5t95 362.5z" />
    <glyph glyph-name="uni0065" unicode="e" horiz-adv-x="1675" 
d="M870 -30q-347 0 -547 213t-200 576q0 235 89.5 416t255 281t382.5 100q145 0 269.5 -46.5t222.5 -138.5t154 -243.5t56 -347.5v-111h-1070q2 -195 108.5 -306t283.5 -111q119 0 204 51t121 147l339 -38q-49 -203 -226 -322.5t-442 -119.5zM483 913h722q-1 158 -98 259.5
t-252 101.5q-158 0 -260.5 -104.5t-111.5 -256.5z" />
    <glyph glyph-name="uni0066" unicode="f" horiz-adv-x="1072" 
d="M974 1536v-280h-319v-1256h-362v1256h-227v280h227v145q0 223 135 343t345 120q152 0 275 -42l-73 -280q-73 22 -135 22q-98 0 -141.5 -47t-43.5 -140v-121h319z" />
    <glyph glyph-name="uni0067" unicode="g" horiz-adv-x="1759" 
d="M815 -590q-239 0 -395.5 80t-243.5 212l250 188q156 -190 391 -190q174 0 289 93t113 253v230h-21q-24 -48 -57 -88.5t-85 -80t-129 -62.5t-171 -23q-134 0 -248.5 47.5t-200.5 139t-135 236.5t-49 328q0 185 49 334.5t135 247t201 149.5t249 52q305 0 441 -274h20v254
h356v-1503q0 -292 -207.5 -457.5t-551.5 -165.5zM857 306q172 0 266.5 124t94.5 345q0 222 -94.5 353t-266.5 131q-175 0 -270 -133.5t-95 -350.5t94.5 -343t270.5 -126z" />
    <glyph glyph-name="uni0068" unicode="h" horiz-adv-x="1726" 
d="M548 900v-900h-362v2048h354v-773h18q55 134 169.5 207.5t287.5 73.5q243 0 386 -152t143 -426v-978h-362v922q0 155 -79.5 241.5t-222.5 86.5q-149 0 -240.5 -93.5t-91.5 -256.5z" />
    <glyph glyph-name="uni0069" unicode="i" horiz-adv-x="734" 
d="M186 0v1536h362v-1536h-362zM368 1742q-86 0 -148 57t-62 139t62 139.5t148 57.5q85 0 147 -57.5t62 -139.5t-62 -139t-147 -57z" />
    <glyph glyph-name="uni006A" unicode="j" horiz-adv-x="734" 
d="M186 1536h362v-1613q0 -244 -143.5 -371.5t-395.5 -127.5h-114v298h73q119 0 168.5 53t49.5 153v1608zM366 1742q-86 0 -148 57t-62 139t62 139.5t148 57.5q85 0 147 -57.5t62 -139.5t-62 -139t-147 -57z" />
    <glyph glyph-name="uni006B" unicode="k" horiz-adv-x="1602" 
d="M186 0v2048h362v-1129h25l552 617h423l-595 -663l630 -873h-433l-470 657l-132 -141v-516h-362z" />
    <glyph glyph-name="uni006C" unicode="l" horiz-adv-x="734" 
d="M548 2048v-2048h-362v2048h362z" />
    <glyph glyph-name="uni006D" unicode="m" horiz-adv-x="2528" 
d="M186 0v1536h346v-261h18q48 132 159.5 206.5t264.5 74.5q154 0 262 -74.5t153 -206.5h16q52 130 174 205.5t287 75.5q217 0 348.5 -137t131.5 -388v-1031h-363v975q0 136 -73 206t-189 70q-129 0 -203.5 -80.5t-74.5 -212.5v-958h-355v990q0 118 -71.5 189.5t-186.5 71.5
q-119 0 -200.5 -89t-81.5 -228v-934h-362z" />
    <glyph glyph-name="uni006E" unicode="n" horiz-adv-x="1717" 
d="M548 900v-900h-362v1536h346v-261h18q54 132 171.5 206.5t286.5 74.5q241 0 384 -153t142 -425v-978h-362v922q0 154 -79.5 241t-219.5 87q-146 0 -235.5 -93t-89.5 -257z" />
    <glyph glyph-name="uni006F" unicode="o" horiz-adv-x="1718" 
d="M859 -30q-335 0 -535.5 217t-200.5 575q0 236 90 416t257 279t389 99t389.5 -99t257 -279t89.5 -416t-89.5 -415.5t-257 -278t-389.5 -98.5zM861 260q119 0 203 68t124 179.5t40 255.5t-39.5 256t-124 181t-203.5 69q-91 0 -162.5 -39.5t-116.5 -108.5t-68.5 -160
t-23.5 -198q0 -144 40 -255.5t125 -179.5t206 -68z" />
    <glyph glyph-name="uni0070" unicode="p" horiz-adv-x="1759" 
d="M1003 -27q-304 0 -440 269h-15v-818h-362v2112h356v-254h21q138 274 439 274q134 0 249 -52t201 -150t135 -249.5t49 -338.5q0 -186 -48 -337t-133 -250t-200.5 -152.5t-251.5 -53.5zM902 270q175 0 270.5 137.5t94.5 360.5q1 221 -94 356t-271 135q-172 0 -266.5 -132.5
t-94.5 -358.5q0 -228 95 -363t266 -135z" />
    <glyph glyph-name="uni0071" unicode="q" horiz-adv-x="1759" 
d="M756 -27q-136 0 -251.5 53.5t-200.5 152.5t-133 250t-48 337q0 187 49 338.5t135 249.5t201 150t249 52q301 0 439 -274h21v254h356v-2112h-362v818h-15q-136 -269 -440 -269zM857 270q171 0 266 135t95 363q0 226 -94.5 358.5t-266.5 132.5q-176 0 -271 -135t-94 -356
q-1 -223 94.5 -360.5t270.5 -137.5z" />
    <glyph glyph-name="uni0072" unicode="r" horiz-adv-x="1165" 
d="M186 0v1536h351v-256h16q41 132 142.5 205t236.5 73q117 0 206 -56l-112 -300q-69 32 -143 32q-143 0 -239 -93.5t-96 -237.5v-903h-362z" />
    <glyph glyph-name="uni0073" unicode="s" horiz-adv-x="1546" 
d="M1400 1130l-330 -36q-23 83 -94.5 137.5t-188.5 54.5q-114 0 -190 -49.5t-75 -126.5q-1 -67 50 -109.5t167 -68.5l262 -56q218 -47 324.5 -149.5t107.5 -266.5q-1 -218 -184 -354t-472 -136q-281 0 -453 118t-206 331l353 34q23 -103 101.5 -156.5t203.5 -53.5
q127 0 206.5 52t79.5 132q0 129 -207 175l-262 55q-434 90 -432 433q0 140 77.5 246t218.5 163t325 57q264 0 422 -113t196 -313z" />
    <glyph glyph-name="uni0074" unicode="t" horiz-adv-x="1080" 
d="M953 1536v-280h-303v-792q-1 -101 43 -139.5t121 -38.5q36 0 106 14l61 -282q-94 -34 -213 -36q-213 -7 -347 103t-133 320v851h-218v280h218v368h362v-368h303z" />
    <glyph glyph-name="uni0075" unicode="u" horiz-adv-x="1713" 
d="M1165 646v890h362v-1536h-351v273h-16q-54 -134 -174.5 -213.5t-287.5 -79.5q-231 0 -371.5 153t-140.5 425v978h362v-922q0 -146 79.5 -232t210.5 -86q61 0 118.5 22.5t104.5 64.5t75.5 110.5t28.5 152.5z" />
    <glyph glyph-name="uni0076" unicode="v" horiz-adv-x="1622" 
d="M1558 1536l-547 -1536h-400l-547 1536h386l353 -1141h16l354 1141h385z" />
    <glyph glyph-name="uni0077" unicode="w" horiz-adv-x="2358" 
d="M503 0l-434 1536h369l270 -1080h14l276 1080h365l276 -1074h15l266 1074h370l-435 -1536h-377l-288 1038h-21l-288 -1038h-378z" />
    <glyph glyph-name="uni0078" unicode="x" horiz-adv-x="1584" 
d="M482 1536l310 -567l315 567h383l-463 -768l471 -768h-381l-325 553l-322 -553h-384l468 768l-456 768h384z" />
    <glyph glyph-name="uni0079" unicode="y" horiz-adv-x="1622" 
d="M398 -598q-129 0 -228 41l84 290q79 -23 140 -22.5t108.5 39t82.5 120.5l38 96l-559 1570h384l354 -1160h16l355 1160h385l-620 -1736q-67 -189 -202 -293.5t-338 -104.5z" />
    <glyph glyph-name="uni007A" unicode="z" horiz-adv-x="1582" 
d="M166 0v230l792 993v13h-790v300h1233v-247l-754 -976v-13h773v-300h-1254z" />
    <glyph glyph-name="uni007B" unicode="{" horiz-adv-x="1108" 
d="M1033 -435q-127 0 -220.5 14t-175 50.5t-132 98t-79 159t-28.5 230.5v254q0 160 -68.5 228t-236.5 68v336q168 0 236.5 68t68.5 228v255q0 133 28.5 230.5t79 159t132 98t175 50.5t220.5 14v-278q-88 0 -144.5 -17.5t-89 -57t-45 -93t-12.5 -135.5v-328
q0 -63 -14.5 -112.5t-50 -96t-102.5 -80.5t-165 -54v-38q98 -20 165 -53.5t102.5 -80t50 -96t14.5 -112.5v-328q0 -82 12.5 -136t45 -93.5t89 -57t144.5 -17.5v-277z" />
    <glyph glyph-name="uni007C" unicode="|" horiz-adv-x="1008" 
d="M672 2708v-3368h-336v3368h336z" />
    <glyph glyph-name="uni007D" unicode="}" horiz-adv-x="1108" 
d="M75 2105q127 0 220.5 -14t175 -50.5t132 -98t79 -159t28.5 -230.5v-254q0 -160 68.5 -228t236.5 -68v-336q-168 0 -236.5 -68t-68.5 -228v-255q0 -133 -28.5 -230.5t-79 -159t-132 -98t-175 -50.5t-220.5 -14v278q88 0 144.5 17.5t89 57t45 93t12.5 135.5v328
q0 63 14.5 112.5t50 96t102.5 80.5t165 54v38q-98 20 -165 53.5t-102.5 80t-50 96t-14.5 112.5v328q0 82 -12.5 136t-45 93.5t-89 57t-144.5 17.5v277z" />
    <glyph glyph-name="uni007E" unicode="~" horiz-adv-x="1805" 
d="M1371 1212h278q1 -249 -119 -395.5t-316 -146.5q-205 0 -380 176q-59 63 -106.5 90t-104.5 27q-87 0 -135 -59t-53 -170h-279q1 126 35 228.5t94 169.5t140 102.5t173 35.5q196 0 372 -176q70 -67 114.5 -94t103.5 -27q84 0 133.5 59t49.5 180z" />
    <glyph glyph-name="uni00A0" unicode="&#xa0;" horiz-adv-x="699" 
 />
    <glyph glyph-name="uni00A1" unicode="&#xa1;" horiz-adv-x="872" 
d="M639 -518h-387l32 1446h322zM445 1559q94 0 160 -63t66 -153q0 -91 -65.5 -153.5t-160.5 -62.5q-94 0 -159.5 62.5t-65.5 153.5q0 90 65.5 153t159.5 63z" />
    <glyph glyph-name="uni00A2" unicode="&#xa2;" horiz-adv-x="1606" 
d="M768 -256v230q-199 20 -345.5 125.5t-223 276t-76.5 386.5q0 329 174 544t471 246v228h128v-225q265 -10 434 -160t188 -391h-347q-19 107 -91 178t-184 81v-997q108 10 180.5 77.5t94.5 181.5h347q-20 -240 -186 -392t-436 -162v-227h-128zM768 277v975
q-129 -35 -203.5 -162t-74.5 -322q0 -199 74 -327.5t204 -163.5z" />
    <glyph glyph-name="uni00A3" unicode="&#xa3;" horiz-adv-x="1853" 
d="M1638 0h-1444v311h113q35 5 60 32t37 68t16.5 83t3.5 88l-8 227h-229v303h219l-12 343q-5 148 42.5 267.5t135 196t203.5 117t250 40.5q149 0 272.5 -47t204 -127.5t119 -190t25.5 -232.5l-347 29q5 66 -15 117.5t-58.5 82.5t-87 47t-104.5 16q-119 0 -199 -81t-79 -235
l13 -343h461v-303h-450l8 -211q8 -181 -83 -287h933v-311z" />
    <glyph glyph-name="uni00A4" unicode="&#xa4;" horiz-adv-x="2114" 
d="M222 836q0 285 157 509l-199 201l181 188l201 -200q219 162 493 162q278 0 497 -167l202 205l185 -188l-206 -205q157 -222 157 -505q0 -269 -144 -488l193 -190l-185 -188l-182 185q-228 -183 -517 -183t-512 179l-182 -181l-181 188l186 186q-144 218 -144 492z
M466 836q0 -168 78 -310t213.5 -224.5t297.5 -82.5q159 0 294.5 82.5t214 224.5t78.5 310q0 127 -46.5 242t-125 197t-187 130t-228.5 48q-162 0 -297.5 -81.5t-213.5 -223.5t-78 -312z" />
    <glyph glyph-name="uni00A5" unicode="&#xa5;" horiz-adv-x="1589" 
d="M1394 1044v-225h-420v-171h420v-225h-420v-423h-368v423h-440v225h440v171h-440v225h348l-474 1004h388l367 -857l366 857h388l-475 -1004h320z" />
    <glyph glyph-name="uni00A6" unicode="&#xa6;" horiz-adv-x="897" 
d="M285 565h327v-949h-327v949zM612 2048v-945h-327v945h327z" />
    <glyph glyph-name="uni00A7" unicode="&#xa7;" horiz-adv-x="1630" 
d="M1360 1548h-326q0 99 -58.5 159.5t-171.5 60.5q-98 0 -158.5 -46.5t-59.5 -119.5q-1 -70 59 -129t139 -96l385 -195q326 -161 308 -454q-7 -111 -86.5 -194t-174.5 -112l-3 -4q159 -139 161 -356q0 -113 -44.5 -204t-121.5 -150t-179 -90.5t-219 -31.5q-175 0 -310.5 65
t-211 188t-75.5 285h328q-1 -111 73 -172t199 -57q96 2 163.5 44.5t68.5 122.5q0 34 -13.5 65.5t-31 53t-48 44t-50.5 34l-52 28.5l-385 191q-327 158 -310 458q6 113 84 196t179 112v5q-160 155 -160 353q0 206 153.5 340t392.5 134q250 0 403 -148t153 -380zM1170 714
q4 61 -41 114t-129 93l-354 177q-29 16 -61 9t-59 -26.5t-45.5 -54.5t-20.5 -76q-10 -122 173 -209l346 -171q26 -15 58 -8.5t61 25t49.5 53t22.5 74.5z" />
    <glyph glyph-name="uni00A8" unicode="&#xa8;" horiz-adv-x="1507" 
d="M457 1750q-79 0 -136.5 56t-57.5 132q0 79 57 134t137 55q81 0 136.5 -54.5t55.5 -134.5q0 -77 -56 -132.5t-136 -55.5zM1052 1750q-79 0 -136.5 56t-57.5 132q0 79 57 134t137 55q81 0 136.5 -54.5t55.5 -134.5q0 -77 -56 -132.5t-136 -55.5z" />
    <glyph glyph-name="uni00A9" unicode="&#xa9;" horiz-adv-x="2374" 
d="M192 1004q0 213 79.5 404.5t213.5 327.5t317.5 216t384.5 80q203 0 387 -79.5t317.5 -216t212 -328t78.5 -404.5q0 -215 -78.5 -407t-212 -328.5t-317.5 -216.5t-387 -80q-201 0 -384.5 80t-317.5 216.5t-213.5 328.5t-79.5 407zM363 1004q0 -179 66 -339.5t177 -274
t262.5 -180t318.5 -66.5q169 0 321.5 66.5t263 180t175 273.5t64.5 340q0 178 -64.5 337.5t-175 272.5t-263 179.5t-321.5 66.5q-167 0 -318.5 -66.5t-262.5 -179.5t-177 -272.5t-66 -337.5zM1420 820h221q0 -211 -125.5 -321.5t-345.5 -110.5q-223 0 -356.5 146.5
t-133.5 385.5v164q0 239 133.5 385.5t356.5 146.5q220 0 345.5 -110.5t125.5 -321.5h-219q1 129 -62 188.5t-190 59.5q-131 0 -201 -95t-71 -253v-164q1 -158 71 -253t201 -95q127 0 188.5 58t61.5 190z" />
    <glyph glyph-name="uni00AA" unicode="&#xaa;" horiz-adv-x="1336" 
d="M849 1065q-107 -113 -283 -113q-166 0 -257.5 84.5t-91.5 227.5q0 155 120.5 236.5t359.5 81.5h141v70q0 176 -163 176q-91 0 -142 -35t-51 -101l-243 18q0 141 120.5 231.5t315.5 90.5q189 0 298.5 -97.5t109.5 -282.5v-432q0 -146 38 -250h-249q-14 47 -23 95z
M838 1422h-141q-115 0 -174 -43.5t-59 -108.5q0 -120 163 -120q54 0 113 24.5t98 60.5v187z" />
    <glyph glyph-name="uni00AB" unicode="&#xab;" horiz-adv-x="1477" 
d="M826 186h-248l-398 565v28l398 563h248l-358 -577zM1340 186h-248l-398 565v28l398 563h248l-358 -577z" />
    <glyph glyph-name="uni00AC" unicode="&#xac;" horiz-adv-x="1595" 
d="M1386 1108v-592h-281v356h-890v236h1171z" />
    <glyph glyph-name="uni00AD" unicode="&#xad;" horiz-adv-x="1339" 
d="M1162 1010v-280h-984v280h984z" />
    <glyph glyph-name="uni00AE" unicode="&#xae;" horiz-adv-x="2374" 
d="M192 1004q0 213 79.5 404.5t213.5 327.5t317.5 216t384.5 80q203 0 387 -79.5t317.5 -216t212 -328t78.5 -404.5q0 -215 -78.5 -407t-212 -328.5t-317.5 -216.5t-387 -80q-201 0 -384.5 80t-317.5 216.5t-213.5 328.5t-79.5 407zM363 1004q0 -179 66 -339.5t177 -274
t262.5 -180t318.5 -66.5q169 0 321.5 66.5t263 180t175 273.5t64.5 340q0 178 -64.5 337.5t-175 272.5t-263 179.5t-321.5 66.5q-167 0 -318.5 -66.5t-262.5 -179.5t-177 -272.5t-66 -337.5zM1207 900h-219v-464h-213v1168h395q213 0 334 -92t121 -266q0 -159 -162 -244
q158 -76 158 -294v-76q0 -113 24 -176v-20h-217q-20 44 -20 196v76q0 99 -46.5 145.5t-154.5 46.5zM988 1084h194q98 0 166 42t68 118q0 99 -55 137.5t-191 38.5h-182v-336z" />
    <glyph glyph-name="uni00AF" unicode="&#xaf;" horiz-adv-x="1483" 
d="M1226 1995v-221h-966v221h966z" />
    <glyph glyph-name="uni00B0" unicode="&#xb0;" horiz-adv-x="1184" 
d="M594 1161q-184 0 -317 128t-134 308q1 181 134.5 311.5t316.5 130.5t312.5 -130.5t129.5 -311.5t-129 -308.5t-313 -127.5zM594 1386q88 0 152 61.5t64 150.5t-64 152.5t-152 63.5q-89 0 -155 -63.5t-66 -152.5q0 -87 66 -149.5t155 -62.5z" />
    <glyph glyph-name="uni00B1" unicode="&#xb1;" horiz-adv-x="1723" 
d="M1514 1198v-294h-502v-427h-301v427h-505v294h505v455h301v-455h502zM1512 294v-294h-1301v294h1301z" />
    <glyph glyph-name="uni00B2" unicode="&#xb2;" horiz-adv-x="1190" 
d="M128 1024v198l483 396l65 55.5t51 49t43 52.5t24 50.5t11 58.5q-1 77 -62.5 123t-154.5 46q-97 0 -156.5 -49.5t-59.5 -134.5h-261q0 181 133.5 290t345.5 109q211 0 342 -108t131 -274q0 -122 -75.5 -227.5t-255.5 -237.5l-209 -167v-8h564v-222h-959z" />
    <glyph glyph-name="uni00B3" unicode="&#xb3;" horiz-adv-x="1202" 
d="M592 1008q-218 0 -354 102.5t-135 265.5h279q-1 -63 58 -103.5t154 -40.5q94 0 157.5 43t64.5 112q-1 70 -71 115.5t-176 45.5h-109v200h109q98 0 161.5 44t64.5 112q-1 66 -57.5 107.5t-145.5 41.5q-92 0 -149 -41t-56 -109h-263q-1 161 131 263t339 102q203 0 334 -98
t132 -250q-1 -100 -73.5 -171t-184.5 -86v-12q138 -21 219 -96.5t81 -184.5q0 -159 -144 -260.5t-366 -101.5z" />
    <glyph glyph-name="uni00B4" unicode="&#xb4;" horiz-adv-x="1287" 
d="M317 1725l262 449h391l-352 -449h-301z" />
    <glyph glyph-name="uni00B5" unicode="&#xb5;" horiz-adv-x="1835" 
d="M186 -563v2099h362v-890q0 -156 102 -253t268 -97q165 0 267.5 97.5t101.5 252.5v890h363v-1536h-352v222h-12q-50 -106 -148.5 -164.5t-219.5 -58.5t-219.5 58.5t-149.5 164.5h-12v-785h-351z" />
    <glyph glyph-name="uni00B6" unicode="&#xb6;" horiz-adv-x="1710" 
d="M1197 0v1756h-248v-996h-118q-164 0 -295 48t-217 134.5t-131.5 204t-45.5 257.5q0 139 45.5 256t131.5 203.5t217.5 135.5t294.5 49h675v-2048h-309z" />
    <glyph glyph-name="uni00B7" unicode="&#xb7;" horiz-adv-x="819" 
d="M416 776q-92 0 -156.5 64t-63.5 156q-1 89 64.5 152.5t155.5 63.5t155.5 -64t65.5 -152q0 -92 -65 -156t-156 -64z" />
    <glyph glyph-name="uni00B8" unicode="&#xb8;" horiz-adv-x="954" 
d="M381 8h196l-16 -85q100 -15 162.5 -76t62.5 -165q1 -144 -128.5 -229t-363.5 -85l-4 178q249 0 252 127q1 62 -47 92t-157 42z" />
    <glyph glyph-name="uni00B9" unicode="&#xb9;" horiz-adv-x="898" 
d="M657 2252v-1228h-251v897h-12q-25 -35 -100.5 -63.5t-178.5 -28.5v220q123 0 207.5 66t91.5 137h243z" />
    <glyph glyph-name="uni00BA" unicode="&#xba;" horiz-adv-x="1331" 
d="M180 1436v106q0 217 133 353.5t353 136.5q222 0 353.5 -136t131.5 -354v-106q0 -216 -130 -351t-351 -135q-224 0 -357 135t-133 351zM425 1542v-106q0 -128 63 -206t182 -78q115 0 175.5 78t60.5 206v106q0 126 -61.5 206t-178.5 80q-116 0 -178.5 -80t-62.5 -206z" />
    <glyph glyph-name="uni00BB" unicode="&#xbb;" horiz-adv-x="1477" 
d="M167 186l354 578l-354 577h247l399 -565v-25l-399 -565h-247zM668 186l354 578l-354 577h247l399 -565v-25l-399 -565h-247z" />
    <glyph glyph-name="uni00BC" unicode="&#xbc;" horiz-adv-x="2502" 
d="M1430 206v216l430 666h358v-666h148v-216h-148v-206h-262v206h-526zM345 0l1408 2048h251l-1408 -2048h-251zM381 960v759h-16q-44 -36 -120.5 -70t-145.5 -40v229q63 13 123 42t102.5 62.5t69 59.5t40.5 46h207v-1088h-260zM1960 417v401h-16l-248 -388v-13h264z" />
    <glyph glyph-name="uni00BD" unicode="&#xbd;" horiz-adv-x="2631" 
d="M2496 217v-217h-864v183l372 332q107 96 150 147t42 97q1 59 -39 93t-111 34q-79 0 -124 -43.5t-46 -111.5h-268q1 163 116.5 267t312.5 104q192 0 309 -95t116 -245q0 -43 -12.5 -82.5t-29 -69t-57.5 -72t-71 -70l-96 -84.5q-5 -5 -16.5 -15t-12.5 -11l-155 -141h484z
M345 0l1408 2048h251l-1408 -2048h-251zM381 960v759h-16q-44 -36 -120.5 -70t-145.5 -40v229q63 13 123 42t102.5 62.5t69 59.5t40.5 46h207v-1088h-260z" />
    <glyph glyph-name="uni00BE" unicode="&#xbe;" horiz-adv-x="2739" 
d="M1667 206v216l430 666h358v-666h148v-216h-148v-206h-262v206h-526zM537 944q-202 0 -320 90.5t-118 246.5h273q0 -54 47 -86.5t128 -32.5q80 0 125.5 34t45.5 93q0 61 -51 97t-139 36h-122v184h122q79 0 124 33.5t44 90.5q1 56 -41.5 90t-116.5 34q-69 0 -110 -27.5
t-41 -73.5h-271q0 143 112 227t304 84q196 0 316 -82.5t120 -221.5q0 -97 -64.5 -159.5t-178.5 -76.5v-16q125 -16 195 -82t69 -169q1 -144 -121.5 -228.5t-330.5 -84.5zM582 0l1408 2048h251l-1408 -2048h-251zM2197 417v401h-16l-248 -388v-13h264z" />
    <glyph glyph-name="uni00BF" unicode="&#xbf;" horiz-adv-x="1534" 
d="M997 919q5 -132 -10.5 -228.5t-54.5 -166.5t-89 -117.5t-127 -95.5q-103 -65 -158.5 -139.5t-55.5 -171.5q0 -115 79.5 -187t196.5 -72q73 0 135 29.5t104.5 94t46.5 154.5h356q-4 -139 -55.5 -249.5t-139 -180.5t-202 -107t-247.5 -37q-289 0 -467 149.5t-178 400.5
q0 304 286 481q97 60 147.5 113t75 130.5t24.5 199.5h333zM823 1550q93 0 158.5 -63t66.5 -153q-1 -91 -66.5 -153.5t-158.5 -62.5q-95 0 -161 62.5t-65 153.5q-1 90 65 153t161 63z" />
    <glyph glyph-name="uni00C0" unicode="&#xc0;" horiz-adv-x="2038" 
d="M465 0h-396l721 2048h458l722 -2048h-396l-170 505h-770zM734 803h570l-277 825h-16zM934 2605l275 -421h-308l-382 421h415z" />
    <glyph glyph-name="uni00C1" unicode="&#xc1;" horiz-adv-x="2038" 
d="M465 0h-396l721 2048h458l722 -2048h-396l-170 505h-770zM734 803h570l-277 825h-16zM855 2179l262 449h391l-352 -449h-301z" />
    <glyph glyph-name="uni00C2" unicode="&#xc2;" horiz-adv-x="2038" 
d="M465 0h-396l721 2048h458l722 -2048h-396l-170 505h-770zM734 803h570l-277 825h-16zM803 2203h-298v14l412 384h220l412 -384v-14h-296l-224 208z" />
    <glyph glyph-name="uni00C3" unicode="&#xc3;" horiz-adv-x="2038" 
d="M465 0h-396l721 2048h458l722 -2048h-396l-170 505h-770zM727 2200l-224 11q0 151 91 257.5t225 106.5q50 0 103 -18.5t91 -41.5t88.5 -41.5t97.5 -18.5q52 0 89 37.5t36 98.5l222 -16q0 -152 -90.5 -255.5t-226.5 -103.5q-60 0 -114 19t-87.5 41.5t-81.5 41.5t-97 19
q-53 0 -87.5 -37.5t-34.5 -99.5zM734 803h570l-277 825h-16z" />
    <glyph glyph-name="uni00C4" unicode="&#xc4;" horiz-adv-x="2038" 
d="M465 0h-396l721 2048h458l722 -2048h-396l-170 505h-770zM734 803h570l-277 825h-16zM723 2222q-79 0 -136.5 56t-57.5 132q0 79 57 134t137 55q81 0 136.5 -54.5t55.5 -134.5q0 -77 -56 -132.5t-136 -55.5zM1318 2222q-79 0 -136.5 56t-57.5 132q0 79 57 134t137 55
q81 0 136.5 -54.5t55.5 -134.5q0 -77 -56 -132.5t-136 -55.5z" />
    <glyph glyph-name="uni00C5" unicode="&#xc5;" horiz-adv-x="2038" 
d="M465 0h-396l721 2048h458l722 -2048h-396l-170 505h-770zM677 2480q0 128 98.5 220t243.5 92q143 0 240 -92t97 -220t-96 -214.5t-241 -86.5q-146 0 -244 87t-98 214zM734 803h570l-277 825h-16zM848 2480q0 -67 48 -115.5t123 -48.5q74 0 121.5 48.5t47.5 115.5
q0 68 -48 117.5t-121 49.5q-74 0 -122.5 -49.5t-48.5 -117.5z" />
    <glyph glyph-name="uni00C6" unicode="&#xc6;" horiz-adv-x="2863" 
d="M69 0l915 2048h1702v-311h-961v-556h892v-311h-892v-559h969v-311h-1340v505h-658l-219 -505h-408zM825 803h529v887h-145z" />
    <glyph glyph-name="uni00C7" unicode="&#xc7;" horiz-adv-x="2094" 
d="M1955 1357h-374q-32 181 -164.5 283.5t-322.5 102.5q-257 0 -414 -190t-157 -529q0 -343 156.5 -531t413.5 -188q187 0 320 99t168 276l374 -2q-20 -138 -83.5 -260t-162 -216t-236.5 -154t-299 -73l-11 -58q100 -15 162.5 -76t62.5 -165q1 -144 -128.5 -229t-363.5 -85
l-4 178q249 0 252 127q1 62 -47 92t-157 42l38 177q-181 19 -333 99t-262 211.5t-171.5 320.5t-61.5 415q0 243 71.5 442.5t197 332.5t297 205t372.5 72q346 0 583 -191.5t284 -527.5z" />
    <glyph glyph-name="uni00C8" unicode="&#xc8;" horiz-adv-x="1711" 
d="M202 0v2048h1332v-311h-961v-556h892v-311h-892v-559h969v-311h-1340zM772 2605l275 -421h-308l-382 421h415z" />
    <glyph glyph-name="uni00C9" unicode="&#xc9;" horiz-adv-x="1711" 
d="M202 0v2048h1332v-311h-961v-556h892v-311h-892v-559h969v-311h-1340zM692 2179l262 449h391l-352 -449h-301z" />
    <glyph glyph-name="uni00CA" unicode="&#xca;" horiz-adv-x="1711" 
d="M202 0v2048h1332v-311h-961v-556h892v-311h-892v-559h969v-311h-1340zM640 2203h-298v14l412 384h220l412 -384v-14h-296l-224 208z" />
    <glyph glyph-name="uni00CB" unicode="&#xcb;" horiz-adv-x="1711" 
d="M202 0v2048h1332v-311h-961v-556h892v-311h-892v-559h969v-311h-1340zM560 2222q-79 0 -136.5 56t-57.5 132q0 79 57 134t137 55q81 0 136.5 -54.5t55.5 -134.5q0 -77 -56 -132.5t-136 -55.5zM1155 2222q-79 0 -136.5 56t-57.5 132q0 79 57 134t137 55q81 0 136.5 -54.5
t55.5 -134.5q0 -77 -56 -132.5t-136 -55.5z" />
    <glyph glyph-name="uni00CC" unicode="&#xcc;" horiz-adv-x="774" 
d="M573 2048v-2048h-371v2048h371zM303 2605l275 -421h-308l-382 421h415z" />
    <glyph glyph-name="uni00CD" unicode="&#xcd;" horiz-adv-x="774" 
d="M573 2048v-2048h-371v2048h371zM223 2179l262 449h391l-352 -449h-301z" />
    <glyph glyph-name="uni00CE" unicode="&#xce;" horiz-adv-x="774" 
d="M573 2048v-2048h-371v2048h371zM172 2203h-298v14l412 384h220l412 -384v-14h-296l-224 208z" />
    <glyph glyph-name="uni00CF" unicode="&#xcf;" horiz-adv-x="774" 
d="M573 2048v-2048h-371v2048h371zM92 2222q-79 0 -136.5 56t-57.5 132q0 79 57 134t137 55q81 0 136.5 -54.5t55.5 -134.5q0 -77 -56 -132.5t-136 -55.5zM687 2222q-79 0 -136.5 56t-57.5 132q0 79 57 134t137 55q81 0 136.5 -54.5t55.5 -134.5q0 -77 -56 -132.5
t-136 -55.5z" />
    <glyph glyph-name="uni00D0" unicode="&#xd0;" horiz-adv-x="2040" 
d="M896 0h-694v958h-295v229h295v861h708q458 0 719 -272t261 -750q0 -481 -263.5 -753.5t-730.5 -272.5zM573 321h305q644 0 644 705q0 350 -160 525.5t-473 175.5h-316v-540h292v-229h-292v-637z" />
    <glyph glyph-name="uni00D1" unicode="&#xd1;" horiz-adv-x="2086" 
d="M1885 2048v-2048h-330l-965 1395h-17v-1395h-371v2048h332l964 -1396h18v1396h369zM748 2191l-224 11q0 151 91 257.5t225 106.5q50 0 103 -19t91 -41t88.5 -41t97.5 -19q52 0 89 37.5t36 98.5l222 -16q0 -152 -90.5 -255.5t-226.5 -103.5q-60 0 -114 19t-87.5 41.5
t-81.5 41.5t-97 19q-53 0 -87.5 -37.5t-34.5 -99.5z" />
    <glyph glyph-name="uni00D2" unicode="&#xd2;" horiz-adv-x="2182" 
d="M2032 1024q0 -243 -71.5 -442.5t-197.5 -332.5t-298.5 -205t-373.5 -72q-202 0 -374 72t-298 205t-197.5 332.5t-71.5 442.5t71.5 442.5t197.5 332.5t298 205t374 72q201 0 373.5 -72t298.5 -205t197.5 -332.5t71.5 -442.5zM1659 1024q0 342 -155.5 530.5t-412.5 188.5
q-256 0 -412 -188.5t-156 -530.5t156 -530.5t412 -188.5q257 0 412.5 188.5t155.5 530.5zM1006 2605l275 -421h-308l-382 421h415z" />
    <glyph glyph-name="uni00D3" unicode="&#xd3;" horiz-adv-x="2182" 
d="M2032 1024q0 -243 -71.5 -442.5t-197.5 -332.5t-298.5 -205t-373.5 -72q-202 0 -374 72t-298 205t-197.5 332.5t-71.5 442.5t71.5 442.5t197.5 332.5t298 205t374 72q201 0 373.5 -72t298.5 -205t197.5 -332.5t71.5 -442.5zM1659 1024q0 342 -155.5 530.5t-412.5 188.5
q-256 0 -412 -188.5t-156 -530.5t156 -530.5t412 -188.5q257 0 412.5 188.5t155.5 530.5zM927 2179l262 449h391l-352 -449h-301z" />
    <glyph glyph-name="uni00D4" unicode="&#xd4;" horiz-adv-x="2182" 
d="M2032 1024q0 -243 -71.5 -442.5t-197.5 -332.5t-298.5 -205t-373.5 -72q-202 0 -374 72t-298 205t-197.5 332.5t-71.5 442.5t71.5 442.5t197.5 332.5t298 205t374 72q201 0 373.5 -72t298.5 -205t197.5 -332.5t71.5 -442.5zM1659 1024q0 342 -155.5 530.5t-412.5 188.5
q-256 0 -412 -188.5t-156 -530.5t156 -530.5t412 -188.5q257 0 412.5 188.5t155.5 530.5zM875 2203h-298v14l412 384h220l412 -384v-14h-296l-224 208z" />
    <glyph glyph-name="uni00D5" unicode="&#xd5;" horiz-adv-x="2182" 
d="M2032 1024q0 -243 -71.5 -442.5t-197.5 -332.5t-298.5 -205t-373.5 -72q-202 0 -374 72t-298 205t-197.5 332.5t-71.5 442.5t71.5 442.5t197.5 332.5t298 205t374 72q201 0 373.5 -72t298.5 -205t197.5 -332.5t71.5 -442.5zM1659 1024q0 342 -155.5 530.5t-412.5 188.5
q-256 0 -412 -188.5t-156 -530.5t156 -530.5t412 -188.5q257 0 412.5 188.5t155.5 530.5zM799 2200l-224 11q0 151 91 257.5t225 106.5q50 0 103 -18.5t91 -41.5t88.5 -41.5t97.5 -18.5q52 0 89 37.5t36 98.5l222 -16q0 -152 -90.5 -255.5t-226.5 -103.5q-60 0 -114 19
t-87.5 41.5t-81.5 41.5t-97 19q-53 0 -87.5 -37.5t-34.5 -99.5z" />
    <glyph glyph-name="uni00D6" unicode="&#xd6;" horiz-adv-x="2182" 
d="M2032 1024q0 -243 -71.5 -442.5t-197.5 -332.5t-298.5 -205t-373.5 -72q-202 0 -374 72t-298 205t-197.5 332.5t-71.5 442.5t71.5 442.5t197.5 332.5t298 205t374 72q201 0 373.5 -72t298.5 -205t197.5 -332.5t71.5 -442.5zM1659 1024q0 342 -155.5 530.5t-412.5 188.5
q-256 0 -412 -188.5t-156 -530.5t156 -530.5t412 -188.5q257 0 412.5 188.5t155.5 530.5zM795 2222q-79 0 -136.5 56t-57.5 132q0 79 57 134t137 55q81 0 136.5 -54.5t55.5 -134.5q0 -77 -56 -132.5t-136 -55.5zM1390 2222q-79 0 -136.5 56t-57.5 132q0 79 57 134t137 55
q81 0 136.5 -54.5t55.5 -134.5q0 -77 -56 -132.5t-136 -55.5z" />
    <glyph glyph-name="uni00D7" unicode="&#xd7;" horiz-adv-x="1720" 
d="M431 258l-211 210l429 428l-437 436l213 209l436 -435l436 435l211 -209l-437 -436l429 -428l-211 -210l-429 428z" />
    <glyph glyph-name="uni00D8" unicode="&#xd8;" horiz-adv-x="2182" 
d="M453 -94l-181 124l150 217q-130 139 -201 336t-71 441q0 243 71.5 442.5t197.5 332.5t298 205t374 72q280 0 498 -135l136 197l181 -124l-146 -212q130 -139 201 -336t71 -442q0 -243 -71.5 -442.5t-197.5 -332.5t-298.5 -205t-373.5 -72q-280 0 -499 136zM1659 1024
q0 283 -112 469l-759 -1100q130 -88 303 -88q257 0 412.5 188.5t155.5 530.5zM635 556l758 1100q-129 87 -302 87q-256 0 -412 -188.5t-156 -530.5q0 -282 112 -468z" />
    <glyph glyph-name="uni00D9" unicode="&#xd9;" horiz-adv-x="2066" 
d="M1494 2048h370v-1354q0 -137 -41 -253.5t-115.5 -202.5t-177.5 -147t-229 -91.5t-268 -30.5q-179 0 -330.5 48.5t-263 139.5t-174.5 229t-63 308v1354h371v-1345q0 -123 61.5 -215t165 -138.5t233.5 -46.5t233.5 46.5t165.5 138.5t62 215v1345zM948 2605l275 -421h-308
l-382 421h415z" />
    <glyph glyph-name="uni00DA" unicode="&#xda;" horiz-adv-x="2066" 
d="M1494 2048h370v-1354q0 -137 -41 -253.5t-115.5 -202.5t-177.5 -147t-229 -91.5t-268 -30.5q-179 0 -330.5 48.5t-263 139.5t-174.5 229t-63 308v1354h371v-1345q0 -123 61.5 -215t165 -138.5t233.5 -46.5t233.5 46.5t165.5 138.5t62 215v1345zM868 2179l262 449h391
l-352 -449h-301z" />
    <glyph glyph-name="uni00DB" unicode="&#xdb;" horiz-adv-x="2066" 
d="M1494 2048h370v-1354q0 -137 -41 -253.5t-115.5 -202.5t-177.5 -147t-229 -91.5t-268 -30.5q-179 0 -330.5 48.5t-263 139.5t-174.5 229t-63 308v1354h371v-1345q0 -123 61.5 -215t165 -138.5t233.5 -46.5t233.5 46.5t165.5 138.5t62 215v1345zM816 2203h-298v14l412 384
h220l412 -384v-14h-296l-224 208z" />
    <glyph glyph-name="uni00DC" unicode="&#xdc;" horiz-adv-x="2066" 
d="M1494 2048h370v-1354q0 -137 -41 -253.5t-115.5 -202.5t-177.5 -147t-229 -91.5t-268 -30.5q-179 0 -330.5 48.5t-263 139.5t-174.5 229t-63 308v1354h371v-1345q0 -123 61.5 -215t165 -138.5t233.5 -46.5t233.5 46.5t165.5 138.5t62 215v1345zM736 2222q-79 0 -136.5 56
t-57.5 132q0 79 57 134t137 55q81 0 136.5 -54.5t55.5 -134.5q0 -77 -56 -132.5t-136 -55.5zM1331 2222q-79 0 -136.5 56t-57.5 132q0 79 57 134t137 55q81 0 136.5 -54.5t55.5 -134.5q0 -77 -56 -132.5t-136 -55.5z" />
    <glyph glyph-name="uni00DD" unicode="&#xdd;" horiz-adv-x="1989" 
d="M65 2048h418l501 -906h21l501 906h418l-745 -1284v-764h-369v764zM830 2179l262 449h391l-352 -449h-301z" />
    <glyph glyph-name="uni00DE" unicode="&#xde;" horiz-adv-x="1851" 
d="M194 2048h371v-392h332q174 0 314.5 -47t231.5 -129.5t140 -194.5t49 -243t-49 -242.5t-140.5 -194t-231.5 -129t-314 -46.5h-332v-430h-371v2048zM565 726h332q187 0 284 85t97 227q0 144 -97 232.5t-284 88.5h-332v-633z" />
    <glyph glyph-name="uni00DF" unicode="&#xdf;" horiz-adv-x="1818" 
d="M202 0v1513q0 260 182 411.5t485 151.5q143 0 267 -36t217.5 -104t147 -172.5t53.5 -233.5q0 -163 -81.5 -278t-222.5 -158v-22q198 -16 318 -154.5t119 -353.5q-1 -258 -176 -411t-461 -153h-255v305h211q143 0 229.5 79t86.5 207q-1 135 -96.5 217t-256.5 82h-166v296
h114q119 0 193.5 85t75.5 206q0 126 -83.5 207t-223.5 81t-227.5 -81t-87.5 -213v-1471h-362z" />
    <glyph glyph-name="uni00E0" unicode="&#xe0;" horiz-adv-x="1618" 
d="M628 -31q-149 0 -263.5 51.5t-182.5 157.5t-68 253q0 100 33 178t85.5 127t131.5 83.5t157 51t176 27.5l27 3q211 23 268 41q72 23 83 73q2 12 2 25q-1 115 -67.5 177t-192.5 62q-125 0 -205.5 -55t-109.5 -140l-338 48q59 207 231.5 315.5t424.5 108.5q91 0 175 -15.5
t166 -54t142.5 -97t98 -151.5t37.5 -210v-1028h-348v211h-12q-54 -106 -168 -174t-283 -68zM722 235q159 0 257.5 92t98.5 224v181q-44 -36 -332 -75q-283 -40 -283 -220q0 -97 71 -149.5t188 -52.5zM743 2133l275 -421h-308l-382 421h415z" />
    <glyph glyph-name="uni00E1" unicode="&#xe1;" horiz-adv-x="1618" 
d="M628 -31q-149 0 -263.5 51.5t-182.5 157.5t-68 253q0 100 33 178t85.5 127t131.5 83.5t157 51t176 27.5l27 3q211 23 268 41q72 23 83 73q2 12 2 25q-1 115 -67.5 177t-192.5 62q-125 0 -205.5 -55t-109.5 -140l-338 48q59 207 231.5 315.5t424.5 108.5q91 0 175 -15.5
t166 -54t142.5 -97t98 -151.5t37.5 -210v-1028h-348v211h-12q-54 -106 -168 -174t-283 -68zM722 235q159 0 257.5 92t98.5 224v181q-44 -36 -332 -75q-283 -40 -283 -220q0 -97 71 -149.5t188 -52.5zM663 1707l262 449h391l-352 -449h-301z" />
    <glyph glyph-name="uni00E2" unicode="&#xe2;" horiz-adv-x="1618" 
d="M628 -31q-149 0 -263.5 51.5t-182.5 157.5t-68 253q0 100 33 178t85.5 127t131.5 83.5t157 51t176 27.5l27 3q211 23 268 41q72 23 83 73q2 12 2 25q-1 115 -67.5 177t-192.5 62q-125 0 -205.5 -55t-109.5 -140l-338 48q59 207 231.5 315.5t424.5 108.5q91 0 175 -15.5
t166 -54t142.5 -97t98 -151.5t37.5 -210v-1028h-348v211h-12q-54 -106 -168 -174t-283 -68zM722 235q159 0 257.5 92t98.5 224v181q-44 -36 -332 -75q-283 -40 -283 -220q0 -97 71 -149.5t188 -52.5zM612 1731h-298v14l412 384h220l412 -384v-14h-296l-224 208z" />
    <glyph glyph-name="uni00E3" unicode="&#xe3;" horiz-adv-x="1618" 
d="M628 -31q-149 0 -263.5 51.5t-182.5 157.5t-68 253q0 100 33 178t85.5 127t131.5 83.5t157 51t176 27.5l27 3q211 23 268 41q72 23 83 73q2 12 2 25q-1 115 -67.5 177t-192.5 62q-125 0 -205.5 -55t-109.5 -140l-338 48q59 207 231.5 315.5t424.5 108.5q91 0 175 -15.5
t166 -54t142.5 -97t98 -151.5t37.5 -210v-1028h-348v211h-12q-54 -106 -168 -174t-283 -68zM532 1719l-224 11q0 151 91 257.5t225 106.5q50 0 103 -19t91 -41t88.5 -41t97.5 -19q52 0 89 37.5t36 98.5l222 -16q0 -152 -90.5 -255.5t-226.5 -103.5q-60 0 -114 19t-87.5 41.5
t-81.5 41.5t-97 19q-53 0 -87.5 -37.5t-34.5 -99.5zM722 235q159 0 257.5 92t98.5 224v181q-44 -36 -332 -75q-283 -40 -283 -220q0 -97 71 -149.5t188 -52.5z" />
    <glyph glyph-name="uni00E4" unicode="&#xe4;" horiz-adv-x="1618" 
d="M628 -31q-149 0 -263.5 51.5t-182.5 157.5t-68 253q0 100 33 178t85.5 127t131.5 83.5t157 51t176 27.5l27 3q211 23 268 41q72 23 83 73q2 12 2 25q-1 115 -67.5 177t-192.5 62q-125 0 -205.5 -55t-109.5 -140l-338 48q59 207 231.5 315.5t424.5 108.5q91 0 175 -15.5
t166 -54t142.5 -97t98 -151.5t37.5 -210v-1028h-348v211h-12q-54 -106 -168 -174t-283 -68zM722 235q159 0 257.5 92t98.5 224v181q-44 -36 -332 -75q-283 -40 -283 -220q0 -97 71 -149.5t188 -52.5zM531 1750q-79 0 -136.5 56t-57.5 132q0 79 57 134t137 55
q81 0 136.5 -54.5t55.5 -134.5q0 -77 -56 -132.5t-136 -55.5zM1126 1750q-79 0 -136.5 56t-57.5 132q0 79 57 134t137 55q81 0 136.5 -54.5t55.5 -134.5q0 -77 -56 -132.5t-136 -55.5z" />
    <glyph glyph-name="uni00E5" unicode="&#xe5;" horiz-adv-x="1618" 
d="M628 -31q-149 0 -263.5 51.5t-182.5 157.5t-68 253q0 100 33 178t85.5 127t131.5 83.5t157 51t176 27.5l27 3q211 23 268 41q72 23 83 73q2 12 2 25q-1 115 -67.5 177t-192.5 62q-125 0 -205.5 -55t-109.5 -140l-338 48q59 207 231.5 315.5t424.5 108.5q91 0 175 -15.5
t166 -54t142.5 -97t98 -151.5t37.5 -210v-1028h-348v211h-12q-54 -106 -168 -174t-283 -68zM486 2008q0 128 98.5 220t243.5 92q143 0 240 -92t97 -220t-96 -214.5t-241 -86.5q-146 0 -244 87t-98 214zM722 235q159 0 257.5 92t98.5 224v181q-44 -36 -332 -75
q-283 -40 -283 -220q0 -97 71 -149.5t188 -52.5zM657 2008q0 -67 48 -115.5t123 -48.5q74 0 121.5 48.5t47.5 115.5q0 68 -48 117.5t-121 49.5q-74 0 -122.5 -49.5t-48.5 -117.5z" />
    <glyph glyph-name="uni00E6" unicode="&#xe6;" horiz-adv-x="2586" 
d="M1781 -30q-412 0 -583 313h-13q-19 -53 -67 -107t-118 -101t-168 -76.5t-204 -29.5q-148 0 -263 52t-183 158t-68 252q0 100 33 177t85.5 126.5t131 84t157 51.5t176.5 28q218 22 275 36q95 24 104 77q1 7 1 15q0 253 -258 253q-126 0 -207 -54.5t-110 -140.5l-338 48
q59 207 231.5 315.5t424.5 108.5q169 0 284.5 -60.5t168.5 -162.5q176 223 489 223q115 0 217.5 -28.5t192 -90t153.5 -151t101 -219t37 -287.5v-96l-1067 -61q19 -176 121 -273.5t269 -97.5q120 0 204 50.5t120 147.5l339 -38q-49 -203 -226 -322.5t-442 -119.5zM722 235
q159 0 257.5 92t98.5 224v181q-44 -36 -332 -75q-283 -40 -283 -220q0 -97 71 -149.5t188 -52.5zM1395 866l721 47q-1 158 -97.5 259.5t-250.5 101.5q-158 0 -260.5 -109.5t-112.5 -298.5z" />
    <glyph glyph-name="uni00E7" unicode="&#xe7;" horiz-adv-x="1630" 
d="M945 -26l-10 -51q100 -15 162.5 -76t62.5 -165q1 -144 -128.5 -229t-363.5 -85l-4 178q249 0 252 127q1 62 -47 92t-157 42l36 170q-291 36 -458 249t-167 536q0 233 89 413t256 280.5t389 100.5q281 0 461 -151t200 -401h-347q-21 116 -102 188t-207 72
q-169 0 -270.5 -133t-101.5 -363q0 -234 100.5 -368.5t271.5 -134.5q120 0 203 68.5t106 191.5h347q-19 -229 -171.5 -378.5t-401.5 -172.5z" />
    <glyph glyph-name="uni00E8" unicode="&#xe8;" horiz-adv-x="1675" 
d="M870 -30q-347 0 -547 213t-200 576q0 235 89.5 416t255 281t382.5 100q145 0 269.5 -46.5t222.5 -138.5t154 -243.5t56 -347.5v-111h-1070q2 -195 108.5 -306t283.5 -111q119 0 204 51t121 147l339 -38q-49 -203 -226 -322.5t-442 -119.5zM483 913h722q-1 158 -98 259.5
t-252 101.5q-158 0 -260.5 -104.5t-111.5 -256.5zM755 2133l275 -421h-308l-382 421h415z" />
    <glyph glyph-name="uni00E9" unicode="&#xe9;" horiz-adv-x="1675" 
d="M870 -30q-347 0 -547 213t-200 576q0 235 89.5 416t255 281t382.5 100q145 0 269.5 -46.5t222.5 -138.5t154 -243.5t56 -347.5v-111h-1070q2 -195 108.5 -306t283.5 -111q119 0 204 51t121 147l339 -38q-49 -203 -226 -322.5t-442 -119.5zM483 913h722q-1 158 -98 259.5
t-252 101.5q-158 0 -260.5 -104.5t-111.5 -256.5zM675 1707l262 449h391l-352 -449h-301z" />
    <glyph glyph-name="uni00EA" unicode="&#xea;" horiz-adv-x="1675" 
d="M870 -30q-347 0 -547 213t-200 576q0 235 89.5 416t255 281t382.5 100q145 0 269.5 -46.5t222.5 -138.5t154 -243.5t56 -347.5v-111h-1070q2 -195 108.5 -306t283.5 -111q119 0 204 51t121 147l339 -38q-49 -203 -226 -322.5t-442 -119.5zM624 1731h-298v14l412 384h220
l412 -384v-14h-296l-224 208zM483 913h722q-1 158 -98 259.5t-252 101.5q-158 0 -260.5 -104.5t-111.5 -256.5z" />
    <glyph glyph-name="uni00EB" unicode="&#xeb;" horiz-adv-x="1675" 
d="M870 -30q-347 0 -547 213t-200 576q0 235 89.5 416t255 281t382.5 100q145 0 269.5 -46.5t222.5 -138.5t154 -243.5t56 -347.5v-111h-1070q2 -195 108.5 -306t283.5 -111q119 0 204 51t121 147l339 -38q-49 -203 -226 -322.5t-442 -119.5zM483 913h722q-1 158 -98 259.5
t-252 101.5q-158 0 -260.5 -104.5t-111.5 -256.5zM543 1750q-79 0 -136.5 56t-57.5 132q0 79 57 134t137 55q81 0 136.5 -54.5t55.5 -134.5q0 -77 -56 -132.5t-136 -55.5zM1138 1750q-79 0 -136.5 56t-57.5 132q0 79 57 134t137 55q81 0 136.5 -54.5t55.5 -134.5
q0 -77 -56 -132.5t-136 -55.5z" />
    <glyph glyph-name="uni00EC" unicode="&#xec;" horiz-adv-x="734" 
d="M186 0v1536h362v-1536h-362zM283 2133l275 -421h-308l-382 421h415z" />
    <glyph glyph-name="uni00ED" unicode="&#xed;" horiz-adv-x="734" 
d="M186 0v1536h362v-1536h-362zM203 1707l262 449h391l-352 -449h-301z" />
    <glyph glyph-name="uni00EE" unicode="&#xee;" horiz-adv-x="734" 
d="M186 0v1536h362v-1536h-362zM152 1731h-298v14l412 384h220l412 -384v-14h-296l-224 208z" />
    <glyph glyph-name="uni00EF" unicode="&#xef;" horiz-adv-x="734" 
d="M186 0v1536h362v-1536h-362zM71 1750q-79 0 -136.5 56t-57.5 132q0 79 57 134t137 55q81 0 136.5 -54.5t55.5 -134.5q0 -77 -56 -132.5t-136 -55.5zM666 1750q-79 0 -136.5 56t-57.5 132q0 79 57 134t137 55q81 0 136.5 -54.5t55.5 -134.5q0 -77 -56 -132.5t-136 -55.5z
" />
    <glyph glyph-name="uni00F0" unicode="&#xf0;" horiz-adv-x="1618" 
d="M1294 1902l-227 -114q197 -210 312 -471.5t115 -564.5q0 -368 -186.5 -576t-499.5 -208q-205 0 -361.5 94.5t-240 261.5t-83.5 380q0 154 44.5 286.5t120 223.5t173 147t205.5 68q127 9 232 -35.5t166 -125.5h20q-111 225 -283 387l-352 -177l-100 193l266 133
q-106 73 -228 138l160 234q187 -95 351 -230l296 148zM819 260q168 0 259.5 116.5t91.5 322.5q0 207 -90.5 331t-260.5 124q-165 0 -255.5 -119t-90.5 -329q0 -207 88.5 -326.5t257.5 -119.5z" />
    <glyph glyph-name="uni00F1" unicode="&#xf1;" horiz-adv-x="1649" 
d="M554 900v-900h-362v1536h346v-261h18q54 132 171.5 206.5t286.5 74.5q241 0 384 -153t142 -425v-978h-362v922q0 154 -79.5 241t-219.5 87q-146 0 -235.5 -93t-89.5 -257zM517 1722l-224 11q0 151 91 257.5t225 106.5q50 0 103 -18.5t91 -41.5t88.5 -41.5t97.5 -18.5
q52 0 89 37.5t36 98.5l222 -16q0 -152 -90.5 -255.5t-226.5 -103.5q-60 0 -114 19t-87.5 41.5t-81.5 41.5t-97 19q-53 0 -87.5 -37.5t-34.5 -99.5z" />
    <glyph glyph-name="uni00F2" unicode="&#xf2;" horiz-adv-x="1718" 
d="M859 -30q-335 0 -535.5 217t-200.5 575q0 236 90 416t257 279t389 99t389.5 -99t257 -279t89.5 -416t-89.5 -415.5t-257 -278t-389.5 -98.5zM861 260q119 0 203 68t124 179.5t40 255.5t-39.5 256t-124 181t-203.5 69q-91 0 -162.5 -39.5t-116.5 -108.5t-68.5 -160
t-23.5 -198q0 -144 40 -255.5t125 -179.5t206 -68zM774 2133l275 -421h-308l-382 421h415z" />
    <glyph glyph-name="uni00F3" unicode="&#xf3;" horiz-adv-x="1718" 
d="M859 -30q-335 0 -535.5 217t-200.5 575q0 236 90 416t257 279t389 99t389.5 -99t257 -279t89.5 -416t-89.5 -415.5t-257 -278t-389.5 -98.5zM861 260q119 0 203 68t124 179.5t40 255.5t-39.5 256t-124 181t-203.5 69q-91 0 -162.5 -39.5t-116.5 -108.5t-68.5 -160
t-23.5 -198q0 -144 40 -255.5t125 -179.5t206 -68zM695 1707l262 449h391l-352 -449h-301z" />
    <glyph glyph-name="uni00F4" unicode="&#xf4;" horiz-adv-x="1718" 
d="M859 -30q-335 0 -535.5 217t-200.5 575q0 236 90 416t257 279t389 99t389.5 -99t257 -279t89.5 -416t-89.5 -415.5t-257 -278t-389.5 -98.5zM861 260q119 0 203 68t124 179.5t40 255.5t-39.5 256t-124 181t-203.5 69q-91 0 -162.5 -39.5t-116.5 -108.5t-68.5 -160
t-23.5 -198q0 -144 40 -255.5t125 -179.5t206 -68zM643 1731h-298v14l412 384h220l412 -384v-14h-296l-224 208z" />
    <glyph glyph-name="uni00F5" unicode="&#xf5;" horiz-adv-x="1666" 
d="M862 -30q-335 0 -535.5 217t-200.5 575q0 236 90 416t257 279t389 99t389.5 -99t257 -279t89.5 -416t-89.5 -415.5t-257 -278t-389.5 -98.5zM864 260q119 0 203 68t124 179.5t40 255.5t-39.5 256t-124 181t-203.5 69q-91 0 -162.5 -39.5t-116.5 -108.5t-68.5 -160
t-23.5 -198q0 -144 40 -255.5t125 -179.5t206 -68zM558 1722l-224 11q0 151 91 257.5t225 106.5q50 0 103 -18.5t91 -41.5t88.5 -41.5t97.5 -18.5q52 0 89 37.5t36 98.5l222 -16q0 -152 -90.5 -255.5t-226.5 -103.5q-60 0 -114 19t-87.5 41.5t-81.5 41.5t-97 19
q-53 0 -87.5 -37.5t-34.5 -99.5z" />
    <glyph glyph-name="uni00F6" unicode="&#xf6;" horiz-adv-x="1718" 
d="M859 -30q-335 0 -535.5 217t-200.5 575q0 236 90 416t257 279t389 99t389.5 -99t257 -279t89.5 -416t-89.5 -415.5t-257 -278t-389.5 -98.5zM861 260q119 0 203 68t124 179.5t40 255.5t-39.5 256t-124 181t-203.5 69q-91 0 -162.5 -39.5t-116.5 -108.5t-68.5 -160
t-23.5 -198q0 -144 40 -255.5t125 -179.5t206 -68zM563 1750q-79 0 -136.5 56t-57.5 132q0 79 57 134t137 55q81 0 136.5 -54.5t55.5 -134.5q0 -77 -56 -132.5t-136 -55.5zM1158 1750q-79 0 -136.5 56t-57.5 132q0 79 57 134t137 55q81 0 136.5 -54.5t55.5 -134.5
q0 -77 -56 -132.5t-136 -55.5z" />
    <glyph glyph-name="uni00F7" unicode="&#xf7;" horiz-adv-x="1725" 
d="M1515 1043v-293h-1305v293h1305zM648 1430q0 88 57.5 143.5t156.5 55.5q98 0 156.5 -55.5t58.5 -143.5q0 -85 -58.5 -139.5t-156.5 -54.5q-99 0 -156.5 54t-57.5 140zM648 356q0 87 58 143t156 56q97 0 156 -56.5t59 -142.5q0 -85 -58.5 -139.5t-156.5 -54.5t-156 53.5
t-58 140.5z" />
    <glyph glyph-name="uni00F8" unicode="&#xf8;" horiz-adv-x="1715" 
d="M399 -94l-181 124l106 154q-201 217 -201 576q0 236 90 416t257 279t389 99q197 0 353 -79l99 143l183 -124l-105 -152q206 -217 206 -582q0 -236 -89.5 -415.5t-257 -278t-389.5 -98.5q-202 0 -360 83zM861 258q119 0 203 68t124 179.5t40 255.5q0 158 -49 277
l-502 -729q79 -51 184 -51zM536 492l500 727q-76 48 -175 48q-91 0 -162.5 -39.5t-116.5 -108.5t-68.5 -160t-23.5 -198q0 -153 46 -269z" />
    <glyph glyph-name="uni00F9" unicode="&#xf9;" horiz-adv-x="1713" 
d="M1165 646v890h362v-1536h-351v273h-16q-54 -134 -174.5 -213.5t-287.5 -79.5q-231 0 -371.5 153t-140.5 425v978h362v-922q0 -146 79.5 -232t210.5 -86q61 0 118.5 22.5t104.5 64.5t75.5 110.5t28.5 152.5zM773 2133l275 -421h-308l-382 421h415z" />
    <glyph glyph-name="uni00FA" unicode="&#xfa;" horiz-adv-x="1713" 
d="M1165 646v890h362v-1536h-351v273h-16q-54 -134 -174.5 -213.5t-287.5 -79.5q-231 0 -371.5 153t-140.5 425v978h362v-922q0 -146 79.5 -232t210.5 -86q61 0 118.5 22.5t104.5 64.5t75.5 110.5t28.5 152.5zM694 1707l262 449h391l-352 -449h-301z" />
    <glyph glyph-name="uni00FB" unicode="&#xfb;" horiz-adv-x="1713" 
d="M1165 646v890h362v-1536h-351v273h-16q-54 -134 -174.5 -213.5t-287.5 -79.5q-231 0 -371.5 153t-140.5 425v978h362v-922q0 -146 79.5 -232t210.5 -86q61 0 118.5 22.5t104.5 64.5t75.5 110.5t28.5 152.5zM642 1731h-298v14l412 384h220l412 -384v-14h-296l-224 208z
" />
    <glyph glyph-name="uni00FC" unicode="&#xfc;" horiz-adv-x="1713" 
d="M1165 646v890h362v-1536h-351v273h-16q-54 -134 -174.5 -213.5t-287.5 -79.5q-231 0 -371.5 153t-140.5 425v978h362v-922q0 -146 79.5 -232t210.5 -86q61 0 118.5 22.5t104.5 64.5t75.5 110.5t28.5 152.5zM562 1750q-79 0 -136.5 56t-57.5 132q0 79 57 134t137 55
q81 0 136.5 -54.5t55.5 -134.5q0 -77 -56 -132.5t-136 -55.5zM1157 1750q-79 0 -136.5 56t-57.5 132q0 79 57 134t137 55q81 0 136.5 -54.5t55.5 -134.5q0 -77 -56 -132.5t-136 -55.5z" />
    <glyph glyph-name="uni00FD" unicode="&#xfd;" horiz-adv-x="1622" 
d="M398 -598q-129 0 -228 41l84 290q79 -23 140 -22.5t108.5 39t82.5 120.5l38 96l-559 1570h384l354 -1160h16l355 1160h385l-620 -1736q-67 -189 -202 -293.5t-338 -104.5zM638 1707l262 449h391l-352 -449h-301z" />
    <glyph glyph-name="uni00FE" unicode="&#xfe;" horiz-adv-x="1722" 
d="M186 2048h362v-711h18q120 219 400 219q133 0 247.5 -52t201 -150t135.5 -249.5t49 -338.5q0 -186 -48 -337.5t-133.5 -250.5t-201 -152t-250.5 -53q-81 0 -150 19t-116.5 52.5t-79.5 69t-54 77.5h-18v-767h-362v2624zM1251 768q1 226 -95 358.5t-279 132.5
q-180 0 -269 -133.5t-90 -357.5q0 -108 21.5 -197t63.5 -157.5t112 -106t162 -37.5q181 0 278 135.5t96 362.5z" />
    <glyph glyph-name="uni00FF" unicode="&#xff;" horiz-adv-x="1622" 
d="M398 -598q-129 0 -228 41l84 290q79 -23 140 -22.5t108.5 39t82.5 120.5l38 96l-559 1570h384l354 -1160h16l355 1160h385l-620 -1736q-67 -189 -202 -293.5t-338 -104.5zM506 1750q-79 0 -136.5 56t-57.5 132q0 79 57 134t137 55q81 0 136.5 -54.5t55.5 -134.5
q0 -77 -56 -132.5t-136 -55.5zM1101 1750q-79 0 -136.5 56t-57.5 132q0 79 57 134t137 55q81 0 136.5 -54.5t55.5 -134.5q0 -77 -56 -132.5t-136 -55.5z" />
    <glyph glyph-name="uni0100" unicode="&#x100;" horiz-adv-x="2038" 
d="M465 0h-396l721 2048h458l722 -2048h-396l-170 505h-770zM734 803h570l-277 825h-16zM1503 2474v-221h-966v221h966z" />
    <glyph glyph-name="uni0101" unicode="&#x101;" horiz-adv-x="1618" 
d="M628 -31q-149 0 -263.5 51.5t-182.5 157.5t-68 253q0 100 33 178t85.5 127t131.5 83.5t157 51t176 27.5l27 3q211 23 268 41q72 23 83 73q2 12 2 25q-1 115 -67.5 177t-192.5 62q-125 0 -205.5 -55t-109.5 -140l-338 48q59 207 231.5 315.5t424.5 108.5q91 0 175 -15.5
t166 -54t142.5 -97t98 -151.5t37.5 -210v-1028h-348v211h-12q-54 -106 -168 -174t-283 -68zM722 235q159 0 257.5 92t98.5 224v181q-44 -36 -332 -75q-283 -40 -283 -220q0 -97 71 -149.5t188 -52.5zM1312 2002v-221h-966v221h966z" />
    <glyph glyph-name="uni0102" unicode="&#x102;" horiz-adv-x="2038" 
d="M465 0h-396l721 2048h458l722 -2048h-396l-170 505h-770zM1217 2568h271q-1 -178 -128.5 -289t-340.5 -111q-212 0 -339.5 111.5t-126.5 288.5h269q0 -80 48 -132.5t149 -52.5q99 0 148 52.5t50 132.5zM734 803h570l-277 825h-16z" />
    <glyph glyph-name="uni0103" unicode="&#x103;" horiz-adv-x="1618" 
d="M628 -31q-149 0 -263.5 51.5t-182.5 157.5t-68 253q0 100 33 178t85.5 127t131.5 83.5t157 51t176 27.5l27 3q211 23 268 41q72 23 83 73q2 12 2 25q-1 115 -67.5 177t-192.5 62q-125 0 -205.5 -55t-109.5 -140l-338 48q59 207 231.5 315.5t424.5 108.5q91 0 175 -15.5
t166 -54t142.5 -97t98 -151.5t37.5 -210v-1028h-348v211h-12q-54 -106 -168 -174t-283 -68zM1026 2096h271q-1 -178 -128.5 -289t-340.5 -111q-212 0 -339.5 111.5t-126.5 288.5h269q0 -80 48 -132.5t149 -52.5q99 0 148 52.5t50 132.5zM722 235q159 0 257.5 92t98.5 224
v181q-44 -36 -332 -75q-283 -40 -283 -220q0 -97 71 -149.5t188 -52.5z" />
    <glyph glyph-name="uni0104" unicode="&#x104;" horiz-adv-x="2038" 
d="M465 0h-396l721 2048h458l722 -2048h-1q-106 -59 -162.5 -116.5t-56.5 -129.5q0 -100 99 -100q49 0 115 28l36 -204q-103 -60 -224 -60q-131 0 -216.5 69t-100.5 195q-12 86 16.5 170t97.5 152l-169 501h-770zM734 803h570l-277 825h-16z" />
    <glyph glyph-name="uni0105" unicode="&#x105;" horiz-adv-x="1618" 
d="M628 -31q-149 0 -263.5 51.5t-182.5 157.5t-68 253q0 100 33 178t85.5 127t131.5 83.5t157 51t176 27.5l27 3q211 23 268 41q72 23 83 73q2 12 2 25q-1 115 -67.5 177t-192.5 62q-125 0 -205.5 -55t-109.5 -140l-338 48q59 207 231.5 315.5t424.5 108.5q91 0 175 -15.5
t166 -54t142.5 -97t98 -151.5t37.5 -210v-1028q-106 -59 -162.5 -116.5t-56.5 -129.5q0 -100 99 -100q49 0 115 28l36 -204q-103 -60 -224 -60q-131 0 -216.5 69t-100.5 195q-13 100 27.5 197t134.5 167v165h-12q-54 -106 -168 -174t-283 -68zM722 235q159 0 257.5 92
t98.5 224v181q-44 -36 -332 -75q-283 -40 -283 -220q0 -97 71 -149.5t188 -52.5z" />
    <glyph glyph-name="uni0106" unicode="&#x106;" horiz-adv-x="2094" 
d="M1955 1357h-374q-32 181 -164.5 283.5t-322.5 102.5q-257 0 -414 -190t-157 -529q0 -343 156.5 -531t413.5 -188q187 0 320 99t168 276l374 -2q-21 -147 -91.5 -275.5t-180 -224.5t-263.5 -151t-332 -55q-202 0 -374 72t-297.5 205t-196 332.5t-70.5 442.5t71.5 442.5
t197 332.5t297 205t372.5 72q346 0 583 -191.5t284 -527.5zM923 2179l262 449h391l-352 -449h-301z" />
    <glyph glyph-name="uni0107" unicode="&#x107;" horiz-adv-x="1630" 
d="M859 -30q-225 0 -393 101t-255.5 280t-87.5 411q0 233 89 413t256 280.5t389 100.5q281 0 461 -151t200 -401h-347q-21 116 -102 188t-207 72q-169 0 -270.5 -133t-101.5 -363q0 -234 100.5 -368.5t271.5 -134.5q120 0 203 68.5t106 191.5h347q-21 -249 -197.5 -402
t-461.5 -153zM691 1706l262 449h391l-352 -449h-301z" />
    <glyph glyph-name="uni0108" unicode="&#x108;" horiz-adv-x="2094" 
d="M1955 1357h-374q-32 181 -164.5 283.5t-322.5 102.5q-257 0 -414 -190t-157 -529q0 -343 156.5 -531t413.5 -188q187 0 320 99t168 276l374 -2q-21 -147 -91.5 -275.5t-180 -224.5t-263.5 -151t-332 -55q-202 0 -374 72t-297.5 205t-196 332.5t-70.5 442.5t71.5 442.5
t197 332.5t297 205t372.5 72q346 0 583 -191.5t284 -527.5zM872 2203h-298v14l412 384h220l412 -384v-14h-296l-224 208z" />
    <glyph glyph-name="uni0109" unicode="&#x109;" horiz-adv-x="1630" 
d="M859 -30q-225 0 -393 101t-255.5 280t-87.5 411q0 233 89 413t256 280.5t389 100.5q281 0 461 -151t200 -401h-347q-21 116 -102 188t-207 72q-169 0 -270.5 -133t-101.5 -363q0 -234 100.5 -368.5t271.5 -134.5q120 0 203 68.5t106 191.5h347q-21 -249 -197.5 -402
t-461.5 -153zM640 1730h-298v14l412 384h220l412 -384v-14h-296l-224 208z" />
    <glyph glyph-name="uni010A" unicode="&#x10a;" horiz-adv-x="2094" 
d="M1955 1357h-374q-32 181 -164.5 283.5t-322.5 102.5q-257 0 -414 -190t-157 -529q0 -343 156.5 -531t413.5 -188q187 0 320 99t168 276l374 -2q-21 -147 -91.5 -275.5t-180 -224.5t-263.5 -151t-332 -55q-202 0 -374 72t-297.5 205t-196 332.5t-70.5 442.5t71.5 442.5
t197 332.5t297 205t372.5 72q346 0 583 -191.5t284 -527.5zM1088 2214q-86 0 -148 57t-62 139t62 139.5t148 57.5q85 0 147 -57.5t62 -139.5t-62 -139t-147 -57z" />
    <glyph glyph-name="uni010B" unicode="&#x10b;" horiz-adv-x="1630" 
d="M859 -30q-225 0 -393 101t-255.5 280t-87.5 411q0 233 89 413t256 280.5t389 100.5q281 0 461 -151t200 -401h-347q-21 116 -102 188t-207 72q-169 0 -270.5 -133t-101.5 -363q0 -234 100.5 -368.5t271.5 -134.5q120 0 203 68.5t106 191.5h347q-21 -249 -197.5 -402
t-461.5 -153zM856 1740q-86 0 -148 57t-62 139t62 139.5t148 57.5q85 0 147 -57.5t62 -139.5t-62 -139t-147 -57z" />
    <glyph glyph-name="uni010C" unicode="&#x10c;" horiz-adv-x="2094" 
d="M1955 1357h-374q-32 181 -164.5 283.5t-322.5 102.5q-257 0 -414 -190t-157 -529q0 -343 156.5 -531t413.5 -188q187 0 320 99t168 276l374 -2q-21 -147 -91.5 -275.5t-180 -224.5t-263.5 -151t-332 -55q-202 0 -374 72t-297.5 205t-196 332.5t-70.5 442.5t71.5 442.5
t197 332.5t297 205t372.5 72q346 0 583 -191.5t284 -527.5zM862 2585l226 -208l224 208h296v-14l-412 -384h-220l-412 384v14h298z" />
    <glyph glyph-name="uni010D" unicode="&#x10d;" horiz-adv-x="1630" 
d="M859 -30q-225 0 -393 101t-255.5 280t-87.5 411q0 233 89 413t256 280.5t389 100.5q281 0 461 -151t200 -401h-347q-21 116 -102 188t-207 72q-169 0 -270.5 -133t-101.5 -363q0 -234 100.5 -368.5t271.5 -134.5q120 0 203 68.5t106 191.5h347q-21 -249 -197.5 -402
t-461.5 -153zM630 2111l226 -208l224 208h296v-14l-412 -384h-220l-412 384v14h298z" />
    <glyph glyph-name="uni010E" unicode="&#x10e;" horiz-adv-x="2040" 
d="M896 0h-694v2048h708q458 0 719 -272t261 -750q0 -481 -263.5 -753.5t-730.5 -272.5zM573 321h305q644 0 644 705q0 350 -160 525.5t-473 175.5h-316v-1406zM610 2585l226 -208l224 208h296v-14l-412 -384h-220l-412 384v14h298z" />
    <glyph glyph-name="uni010F" unicode="&#x10f;" horiz-adv-x="2009" 
d="M1576 0h-356v242h-21q-137 -269 -440 -269q-136 0 -251.5 53.5t-200.5 152.5t-133 250t-48 337q0 187 49 338.5t135 249.5t201 150t249 52q303 0 439 -274h15v766h362v-2048zM1221 768q0 227 -94.5 359t-266.5 132q-118 0 -201 -63.5t-123.5 -173t-40.5 -254.5
q0 -223 95.5 -360.5t269.5 -137.5q171 0 266 135.5t95 362.5zM2046 2048v-183q-2 -161 -47 -307t-136 -253l-217 81q56 123 85.5 228.5t28.5 233.5v200h286z" />
    <glyph glyph-name="uni0110" unicode="&#x110;" horiz-adv-x="2040" 
d="M896 0h-694v958h-295v229h295v861h708q458 0 719 -272t261 -750q0 -481 -263.5 -753.5t-730.5 -272.5zM573 321h305q644 0 644 705q0 350 -160 525.5t-473 175.5h-316v-540h292v-229h-292v-637z" />
    <glyph glyph-name="uni0111" unicode="&#x111;" horiz-adv-x="1759" 
d="M1573 0h-356v242h-21q-137 -269 -440 -269q-136 0 -251.5 53.5t-200.5 152.5t-133 250t-48 337q0 187 49 338.5t135 249.5t201 150t249 52q303 0 439 -274h15v369h-298v229h298v168h362v-168h298v-229h-298v-1651zM1218 768q0 227 -94.5 359t-266.5 132
q-118 0 -201 -63.5t-123.5 -173t-40.5 -254.5q0 -223 95.5 -360.5t269.5 -137.5q171 0 266 135.5t95 362.5z" />
    <glyph glyph-name="uni0112" unicode="&#x112;" horiz-adv-x="1711" 
d="M202 0v2048h1332v-311h-961v-556h892v-311h-892v-559h969v-311h-1340zM1340 2474v-221h-966v221h966z" />
    <glyph glyph-name="uni0113" unicode="&#x113;" horiz-adv-x="1675" 
d="M870 -30q-347 0 -547 213t-200 576q0 235 89.5 416t255 281t382.5 100q145 0 269.5 -46.5t222.5 -138.5t154 -243.5t56 -347.5v-111h-1070q2 -195 108.5 -306t283.5 -111q119 0 204 51t121 147l339 -38q-49 -203 -226 -322.5t-442 -119.5zM1324 2002v-221h-966v221h966z
M483 913h722q-1 158 -98 259.5t-252 101.5q-158 0 -260.5 -104.5t-111.5 -256.5z" />
    <glyph glyph-name="uni0114" unicode="&#x114;" horiz-adv-x="1711" 
d="M202 0v2048h1332v-311h-961v-556h892v-311h-892v-559h969v-311h-1340zM1055 2568h271q-1 -178 -128.5 -289t-340.5 -111q-212 0 -339.5 111.5t-126.5 288.5h269q0 -80 48 -132.5t149 -52.5q99 0 148 52.5t50 132.5z" />
    <glyph glyph-name="uni0115" unicode="&#x115;" horiz-adv-x="1675" 
d="M870 -30q-347 0 -547 213t-200 576q0 235 89.5 416t255 281t382.5 100q145 0 269.5 -46.5t222.5 -138.5t154 -243.5t56 -347.5v-111h-1070q2 -195 108.5 -306t283.5 -111q119 0 204 51t121 147l339 -38q-49 -203 -226 -322.5t-442 -119.5zM1038 2096h271
q-1 -178 -128.5 -289t-340.5 -111q-212 0 -339.5 111.5t-126.5 288.5h269q0 -80 48 -132.5t149 -52.5q99 0 148 52.5t50 132.5zM483 913h722q-1 158 -98 259.5t-252 101.5q-158 0 -260.5 -104.5t-111.5 -256.5z" />
    <glyph glyph-name="uni0116" unicode="&#x116;" horiz-adv-x="1711" 
d="M202 0v2048h1332v-311h-961v-556h892v-311h-892v-559h969v-311h-1340zM857 2214q-86 0 -148 57t-62 139t62 139.5t148 57.5q85 0 147 -57.5t62 -139.5t-62 -139t-147 -57z" />
    <glyph glyph-name="uni0117" unicode="&#x117;" horiz-adv-x="1675" 
d="M870 -30q-347 0 -547 213t-200 576q0 235 89.5 416t255 281t382.5 100q145 0 269.5 -46.5t222.5 -138.5t154 -243.5t56 -347.5v-111h-1070q2 -195 108.5 -306t283.5 -111q119 0 204 51t121 147l339 -38q-49 -203 -226 -322.5t-442 -119.5zM483 913h722q-1 158 -98 259.5
t-252 101.5q-158 0 -260.5 -104.5t-111.5 -256.5zM840 1742q-86 0 -148 57t-62 139t62 139.5t148 57.5q85 0 147 -57.5t62 -139.5t-62 -139t-147 -57z" />
    <glyph glyph-name="uni0118" unicode="&#x118;" horiz-adv-x="1711" 
d="M202 0v2048h1332v-311h-961v-556h892v-311h-892v-559h969v-311h-1q-106 -59 -162.5 -116.5t-56.5 -129.5q0 -100 99 -100q49 0 115 28l36 -204q-103 -60 -224 -60q-131 0 -216.5 69t-100.5 195q-12 84 16 167.5t94 150.5h-939z" />
    <glyph glyph-name="uni0119" unicode="&#x119;" horiz-adv-x="1675" 
d="M970 -555q-131 0 -216.5 69t-100.5 195q-19 148 70 272q-282 44 -441 250t-159 528q0 235 89.5 416t255 281t382.5 100q145 0 269.5 -46.5t222.5 -138.5t154 -243.5t56 -347.5v-111h-1070q2 -195 108.5 -306t283.5 -111q119 0 204 51t121 147l339 -38
q-36 -149 -144 -255.5t-272 -153.5q-86 -51 -132 -104t-46 -118q0 -100 99 -100q49 0 115 28l36 -204q-103 -60 -224 -60zM483 913h722q-1 158 -98 259.5t-252 101.5q-158 0 -260.5 -104.5t-111.5 -256.5z" />
    <glyph glyph-name="uni011A" unicode="&#x11a;" horiz-adv-x="1711" 
d="M202 0v2048h1332v-311h-961v-556h892v-311h-892v-559h969v-311h-1340zM631 2585l226 -208l224 208h296v-14l-412 -384h-220l-412 384v14h298z" />
    <glyph glyph-name="uni011B" unicode="&#x11b;" horiz-adv-x="1675" 
d="M870 -30q-347 0 -547 213t-200 576q0 235 89.5 416t255 281t382.5 100q145 0 269.5 -46.5t222.5 -138.5t154 -243.5t56 -347.5v-111h-1070q2 -195 108.5 -306t283.5 -111q119 0 204 51t121 147l339 -38q-49 -203 -226 -322.5t-442 -119.5zM614 2113l226 -208l224 208h296
v-14l-412 -384h-220l-412 384v14h298zM483 913h722q-1 158 -98 259.5t-252 101.5q-158 0 -260.5 -104.5t-111.5 -256.5z" />
    <glyph glyph-name="uni011C" unicode="&#x11c;" horiz-adv-x="2126" 
d="M150 1022q0 243 70.5 442.5t195 333t295.5 206t372 72.5q224 0 411 -86t307 -241.5t151 -354.5h-381q-53 165 -178.5 257t-309.5 92q-252 0 -406 -190t-154 -527q0 -343 156.5 -532t418.5 -189q142 0 256.5 58t181 167.5t66.5 251.5h-464v290h831v-246
q0 -259 -112.5 -454t-310 -297.5t-450.5 -102.5q-210 0 -385.5 73.5t-299.5 208t-192.5 331.5t-68.5 437zM865 2203h-298v14l412 384h220l412 -384v-14h-296l-224 208z" />
    <glyph glyph-name="uni011D" unicode="&#x11d;" horiz-adv-x="1759" 
d="M815 -590q-239 0 -395.5 80t-243.5 212l250 188q156 -190 391 -190q174 0 289 93t113 253v230h-21q-24 -48 -57 -88.5t-85 -80t-129 -62.5t-171 -23q-134 0 -248.5 47.5t-200.5 139t-135 236.5t-49 328q0 185 49 334.5t135 247t201 149.5t249 52q305 0 441 -274h20v254
h356v-1503q0 -292 -207.5 -457.5t-551.5 -165.5zM857 306q172 0 266.5 124t94.5 345q0 222 -94.5 353t-266.5 131q-175 0 -270 -133.5t-95 -350.5t94.5 -343t270.5 -126zM668 1731h-298v14l412 384h220l412 -384v-14h-296l-224 208z" />
    <glyph glyph-name="uni011E" unicode="&#x11e;" horiz-adv-x="2126" 
d="M150 1022q0 243 70.5 442.5t195 333t295.5 206t372 72.5q224 0 411 -86t307 -241.5t151 -354.5h-381q-53 165 -178.5 257t-309.5 92q-252 0 -406 -190t-154 -527q0 -343 156.5 -532t418.5 -189q142 0 256.5 58t181 167.5t66.5 251.5h-464v290h831v-246
q0 -259 -112.5 -454t-310 -297.5t-450.5 -102.5q-210 0 -385.5 73.5t-299.5 208t-192.5 331.5t-68.5 437zM1280 2568h271q-1 -178 -128.5 -289t-340.5 -111q-212 0 -339.5 111.5t-126.5 288.5h269q0 -80 48 -132.5t149 -52.5q99 0 148 52.5t50 132.5z" />
    <glyph glyph-name="uni011F" unicode="&#x11f;" horiz-adv-x="1759" 
d="M815 -590q-239 0 -395.5 80t-243.5 212l250 188q156 -190 391 -190q174 0 289 93t113 253v230h-21q-24 -48 -57 -88.5t-85 -80t-129 -62.5t-171 -23q-134 0 -248.5 47.5t-200.5 139t-135 236.5t-49 328q0 185 49 334.5t135 247t201 149.5t249 52q305 0 441 -274h20v254
h356v-1503q0 -292 -207.5 -457.5t-551.5 -165.5zM857 306q172 0 266.5 124t94.5 345q0 222 -94.5 353t-266.5 131q-175 0 -270 -133.5t-95 -350.5t94.5 -343t270.5 -126zM1083 2096h271q-1 -178 -128.5 -289t-340.5 -111q-212 0 -339.5 111.5t-126.5 288.5h269
q0 -80 48 -132.5t149 -52.5q99 0 148 52.5t50 132.5z" />
    <glyph glyph-name="uni0120" unicode="&#x120;" horiz-adv-x="2126" 
d="M150 1022q0 243 70.5 442.5t195 333t295.5 206t372 72.5q224 0 411 -86t307 -241.5t151 -354.5h-381q-53 165 -178.5 257t-309.5 92q-252 0 -406 -190t-154 -527q0 -343 156.5 -532t418.5 -189q142 0 256.5 58t181 167.5t66.5 251.5h-464v290h831v-246
q0 -259 -112.5 -454t-310 -297.5t-450.5 -102.5q-210 0 -385.5 73.5t-299.5 208t-192.5 331.5t-68.5 437zM1082 2214q-86 0 -148 57t-62 139t62 139.5t148 57.5q85 0 147 -57.5t62 -139.5t-62 -139t-147 -57z" />
    <glyph glyph-name="uni0121" unicode="&#x121;" horiz-adv-x="1759" 
d="M815 -590q-239 0 -395.5 80t-243.5 212l250 188q156 -190 391 -190q174 0 289 93t113 253v230h-21q-24 -48 -57 -88.5t-85 -80t-129 -62.5t-171 -23q-134 0 -248.5 47.5t-200.5 139t-135 236.5t-49 328q0 185 49 334.5t135 247t201 149.5t249 52q305 0 441 -274h20v254
h356v-1503q0 -292 -207.5 -457.5t-551.5 -165.5zM857 306q172 0 266.5 124t94.5 345q0 222 -94.5 353t-266.5 131q-175 0 -270 -133.5t-95 -350.5t94.5 -343t270.5 -126zM885 1742q-86 0 -148 57t-62 139t62 139.5t148 57.5q85 0 147 -57.5t62 -139.5t-62 -139t-147 -57z
" />
    <glyph glyph-name="uni0122" unicode="&#x122;" horiz-adv-x="2126" 
d="M150 1022q0 243 70.5 442.5t195 333t295.5 206t372 72.5q224 0 411 -86t307 -241.5t151 -354.5h-381q-53 165 -178.5 257t-309.5 92q-252 0 -406 -190t-154 -527q0 -343 156.5 -532t418.5 -189q142 0 256.5 58t181 167.5t66.5 251.5h-464v290h831v-246
q0 -259 -112.5 -454t-310 -297.5t-450.5 -102.5q-210 0 -385.5 73.5t-299.5 208t-192.5 331.5t-68.5 437zM1225 -118v-183q-2 -161 -47 -307t-136 -253l-217 81q56 123 85.5 228.5t28.5 233.5v200h286z" />
    <glyph glyph-name="uni0123" unicode="&#x123;" horiz-adv-x="1759" 
d="M815 -590q-239 0 -395.5 80t-243.5 212l250 188q156 -190 391 -190q174 0 289 93t113 253v230h-21q-24 -48 -57 -88.5t-85 -80t-129 -62.5t-171 -23q-134 0 -248.5 47.5t-200.5 139t-135 236.5t-49 328q0 185 49 334.5t135 247t201 149.5t249 52q305 0 441 -274h20v254
h356v-1503q0 -292 -207.5 -457.5t-551.5 -165.5zM857 306q172 0 266.5 124t94.5 345q0 222 -94.5 353t-266.5 131q-175 0 -270 -133.5t-95 -350.5t94.5 -343t270.5 -126zM727 1737v185q0 140 59.5 261t144.5 182l194 -113q-90 -153 -90 -345l-4 -170h-304z" />
    <glyph glyph-name="uni0124" unicode="&#x124;" horiz-adv-x="2095" 
d="M202 0v2048h371v-867h949v867h372v-2048h-372v870h-949v-870h-371zM837 2206h-298v14l412 384h220l412 -384v-14h-296l-224 208z" />
    <glyph glyph-name="uni0125" unicode="&#x125;" horiz-adv-x="1726" 
d="M548 900v-900h-362v2048h354v-773h18q55 134 169.5 207.5t287.5 73.5q243 0 386 -152t143 -426v-978h-362v922q0 155 -79.5 241.5t-222.5 86.5q-149 0 -240.5 -93.5t-91.5 -256.5zM148 2203h-298v14l412 384h220l412 -384v-14h-296l-224 208z" />
    <glyph glyph-name="uni0126" unicode="&#x126;" horiz-adv-x="2250" 
d="M2138 1667v-230h-166v-1437h-372v870h-949v-870h-371v1437h-168v230h168v381h371v-381h949v381h372v-381h166zM1600 1437h-949v-256h949v256z" />
    <glyph glyph-name="uni0127" unicode="&#x127;" horiz-adv-x="1726" 
d="M548 900v-900h-362v1665h-302v229h302v154h354v-154h302v-229h-302v-390h18q55 134 169.5 207.5t287.5 73.5q243 0 386 -152t143 -426v-978h-362v922q0 155 -79.5 241.5t-222.5 86.5q-149 0 -240.5 -93.5t-91.5 -256.5z" />
    <glyph glyph-name="uni0128" unicode="&#x128;" horiz-adv-x="774" 
d="M573 2048v-2048h-371v2048h371zM92 2191l-224 11q0 151 91 257.5t225 106.5q50 0 103 -19t91 -41t88.5 -41t97.5 -19q52 0 89 37.5t36 98.5l222 -16q0 -152 -90.5 -255.5t-226.5 -103.5q-60 0 -114 19t-87.5 41.5t-81.5 41.5t-97 19q-53 0 -87.5 -37.5t-34.5 -99.5z" />
    <glyph glyph-name="uni0129" unicode="&#x129;" horiz-adv-x="862" 
d="M265 0v1536h362v-1536h-362zM164 1722l-224 11q0 151 91 257.5t225 106.5q50 0 103 -18.5t91 -41.5t88.5 -41.5t97.5 -18.5q52 0 89 37.5t36 98.5l222 -16q0 -152 -90.5 -255.5t-226.5 -103.5q-60 0 -114 19t-87.5 41.5t-81.5 41.5t-97 19q-53 0 -87.5 -37.5t-34.5 -99.5
z" />
    <glyph glyph-name="uni012A" unicode="&#x12a;" horiz-adv-x="774" 
d="M573 2048v-2048h-371v2048h371zM872 2474v-221h-966v221h966z" />
    <glyph glyph-name="uni012B" unicode="&#x12b;" horiz-adv-x="734" 
d="M186 0v1536h362v-1536h-362zM852 2002v-221h-966v221h966z" />
    <glyph glyph-name="uni012C" unicode="&#x12c;" horiz-adv-x="774" 
d="M573 2048v-2048h-371v2048h371zM586 2568h271q-1 -178 -128.5 -289t-340.5 -111q-212 0 -339.5 111.5t-126.5 288.5h269q0 -80 48 -132.5t149 -52.5q99 0 148 52.5t50 132.5z" />
    <glyph glyph-name="uni012D" unicode="&#x12d;" horiz-adv-x="734" 
d="M186 0v1536h362v-1536h-362zM566 2096h271q-1 -178 -128.5 -289t-340.5 -111q-212 0 -339.5 111.5t-126.5 288.5h269q0 -80 48 -132.5t149 -52.5q99 0 148 52.5t50 132.5z" />
    <glyph glyph-name="uni012E" unicode="&#x12e;" horiz-adv-x="770" 
d="M576 2048v-2048q-106 -59 -162.5 -116.5t-56.5 -129.5q0 -100 99 -100q49 0 115 28l36 -204q-103 -60 -224 -60q-131 0 -216.5 69t-100.5 195q-12 94 22.5 185t116.5 160v2021h371z" />
    <glyph glyph-name="uni012F" unicode="&#x12f;" horiz-adv-x="752" 
d="M348 -582q-131 0 -216.5 69t-100.5 195q-13 98 26 193.5t130 165.5v1495h362v-1536h-8q-106 -59 -162.5 -116.5t-56.5 -129.5q0 -100 99 -100q49 0 115 28l36 -204q-103 -60 -224 -60zM370 1742q-86 0 -148 57t-62 139t62 139.5t148 57.5q85 0 147 -57.5t62 -139.5
t-62 -139t-147 -57z" />
    <glyph glyph-name="uni0130" unicode="&#x130;" horiz-adv-x="774" 
d="M573 2048v-2048h-371v2048h371zM388 2214q-86 0 -148 57t-62 139t62 139.5t148 57.5q85 0 147 -57.5t62 -139.5t-62 -139t-147 -57z" />
    <glyph glyph-name="uni0131" unicode="&#x131;" horiz-adv-x="734" 
d="M186 0v1536h362v-1536h-362z" />
    <glyph glyph-name="uni0132" unicode="&#x132;" horiz-adv-x="2357" 
d="M1784 608v1440h368v-1440q-1 -294 -181.5 -465t-479.5 -171q-136 0 -251 37t-201 107t-134.5 180t-48.5 248h369q2 -124 78.5 -195.5t201.5 -71.5q134 0 206 85t73 246zM573 2048v-2048h-371v2048h371z" />
    <glyph glyph-name="uni0133" unicode="&#x133;" horiz-adv-x="1467" 
d="M920 1536h362v-1613q0 -244 -143.5 -371.5t-395.5 -127.5h-114v298h73q119 0 168.5 53t49.5 153v1608zM186 0v1536h362v-1536h-362zM368 1742q-86 0 -148 57t-62 139t62 139.5t148 57.5q85 0 147 -57.5t62 -139.5t-62 -139t-147 -57zM1100 1742q-86 0 -148 57t-62 139
t62 139.5t148 57.5q85 0 147 -57.5t62 -139.5t-62 -139t-147 -57z" />
    <glyph glyph-name="uni0134" unicode="&#x134;" horiz-adv-x="1582" 
d="M1010 608v1440h368v-1440q-1 -294 -181.5 -465t-479.5 -171q-136 0 -251 37t-201 107t-134.5 180t-48.5 248h369q2 -124 78.5 -195.5t201.5 -71.5q134 0 206 85t73 246zM976 2203h-298v14l412 384h220l412 -384v-14h-296l-224 208z" />
    <glyph glyph-name="uni0135" unicode="&#x135;" horiz-adv-x="734" 
d="M186 1536h362v-1613q0 -244 -143.5 -371.5t-395.5 -127.5h-114v298h73q119 0 168.5 53t49.5 153v1608zM149 1731h-298v14l412 384h220l412 -384v-14h-296l-224 208z" />
    <glyph glyph-name="uni0136" unicode="&#x136;" horiz-adv-x="1906" 
d="M202 0v2048h371v-941h25l799 941h453l-792 -919l799 -1129h-446l-611 878l-227 -268v-610h-371zM1096 -120v-183q-2 -161 -47 -307t-136 -253l-217 81q56 123 85.5 228.5t28.5 233.5v200h286z" />
    <glyph glyph-name="uni0137" unicode="&#x137;" horiz-adv-x="1602" 
d="M186 0v2048h362v-1129h25l552 617h423l-595 -663l630 -873h-433l-470 657l-132 -141v-516h-362zM968 -121v-183q-2 -161 -47 -307t-136 -253l-217 81q56 123 85.5 228.5t28.5 233.5v200h286z" />
    <glyph glyph-name="uni0138" unicode="&#x138;" horiz-adv-x="1851" 
d="M588 1488v-574h120l434 574h465l-558 -720l588 -768h-475l-412 567h-162v-567h-374v1488h374z" />
    <glyph glyph-name="uni0139" unicode="&#x139;" horiz-adv-x="1594" 
d="M202 0v2048h371v-1737h902v-311h-1273zM220 2179l262 449h391l-352 -449h-301z" />
    <glyph glyph-name="uni013A" unicode="&#x13a;" horiz-adv-x="734" 
d="M548 2048v-2048h-362v2048h362zM201 2179l262 449h391l-352 -449h-301z" />
    <glyph glyph-name="uni013B" unicode="&#x13b;" horiz-adv-x="1594" 
d="M202 0v2048h371v-1737h902v-311h-1273zM986 -121v-183q-2 -161 -47 -307t-136 -253l-217 81q56 123 85.5 228.5t28.5 233.5v200h286z" />
    <glyph glyph-name="uni013C" unicode="&#x13c;" horiz-adv-x="734" 
d="M548 2048v-2048h-362v2048h362zM517 -121v-183q-2 -161 -47 -307t-136 -253l-217 81q56 123 85.5 228.5t28.5 233.5v200h286z" />
    <glyph glyph-name="uni013D" unicode="&#x13d;" horiz-adv-x="1594" 
d="M202 0v2048h371v-1737h902v-311h-1273zM1185 2048v-183q-2 -161 -47 -307t-136 -253l-217 81q56 123 85.5 228.5t28.5 233.5v200h286z" />
    <glyph glyph-name="uni013E" unicode="&#x13e;" horiz-adv-x="960" 
d="M554 2048v-2048h-362v2048h362zM1000 2048v-183q-2 -161 -47 -307t-136 -253l-217 81q56 123 85.5 228.5t28.5 233.5v200h286z" />
    <glyph glyph-name="uni013F" unicode="&#x13f;" horiz-adv-x="1616" 
d="M207 0v2048h371v-1737h902v-311h-1273zM1016 1010q-86 0 -148 57t-62 139t62 139.5t148 57.5q85 0 147 -57.5t62 -139.5t-62 -139t-147 -57z" />
    <glyph glyph-name="uni0140" unicode="&#x140;" horiz-adv-x="1069" 
d="M554 2048v-2048h-362v2048h362zM891 923q-86 0 -148 57t-62 139t62 139.5t148 57.5q85 0 147 -57.5t62 -139.5t-62 -139t-147 -57z" />
    <glyph glyph-name="uni0141" unicode="&#x141;" horiz-adv-x="1627" 
d="M936 1309v-219l-305 -88v-691h902v-311h-1273v895l-213 -61v217l213 62v935h371v-828z" />
    <glyph glyph-name="uni0142" unicode="&#x142;" horiz-adv-x="734" 
d="M749 1315v-216l-201 -68v-1031h-362v910l-201 -68v216l201 68v922h362v-801z" />
    <glyph glyph-name="uni0143" unicode="&#x143;" horiz-adv-x="2086" 
d="M1885 2048v-2048h-330l-965 1395h-17v-1395h-371v2048h332l964 -1396h18v1396h369zM879 2179l262 449h391l-352 -449h-301z" />
    <glyph glyph-name="uni0144" unicode="&#x144;" horiz-adv-x="1717" 
d="M548 900v-900h-362v1536h346v-261h18q54 132 171.5 206.5t286.5 74.5q241 0 384 -153t142 -425v-978h-362v922q0 154 -79.5 241t-219.5 87q-146 0 -235.5 -93t-89.5 -257zM695 1707l262 449h391l-352 -449h-301z" />
    <glyph glyph-name="uni0145" unicode="&#x145;" horiz-adv-x="2086" 
d="M1885 2048v-2048h-330l-965 1395h-17v-1395h-371v2048h332l964 -1396h18v1396h369zM1191 -121v-183q-2 -161 -47 -307t-136 -253l-217 81q56 123 85.5 228.5t28.5 233.5v200h286z" />
    <glyph glyph-name="uni0146" unicode="&#x146;" horiz-adv-x="1717" 
d="M548 900v-900h-362v1536h346v-261h18q54 132 171.5 206.5t286.5 74.5q241 0 384 -153t142 -425v-978h-362v922q0 154 -79.5 241t-219.5 87q-146 0 -235.5 -93t-89.5 -257zM1007 -121v-183q-2 -161 -47 -307t-136 -253l-217 81q56 123 85.5 228.5t28.5 233.5v200h286z" />
    <glyph glyph-name="uni0147" unicode="&#x147;" horiz-adv-x="2086" 
d="M1885 2048v-2048h-330l-965 1395h-17v-1395h-371v2048h332l964 -1396h18v1396h369zM818 2585l226 -208l224 208h296v-14l-412 -384h-220l-412 384v14h298z" />
    <glyph glyph-name="uni0148" unicode="&#x148;" horiz-adv-x="1717" 
d="M548 900v-900h-362v1536h346v-261h18q54 132 171.5 206.5t286.5 74.5q241 0 384 -153t142 -425v-978h-362v922q0 154 -79.5 241t-219.5 87q-146 0 -235.5 -93t-89.5 -257zM634 2113l226 -208l224 208h296v-14l-412 -384h-220l-412 384v14h298z" />
    <glyph glyph-name="uni014A" unicode="&#x14a;" horiz-adv-x="2086" 
d="M1555 0l-965 1395h-17v-1395h-371v2048h332l964 -1396h18v1396h369v-2158q0 -127 -39 -222t-111.5 -152t-169 -85t-218.5 -28q-89 0 -149 19v282q63 -13 124 -13q109 0 171 48t62 149v112z" />
    <glyph glyph-name="uni014B" unicode="&#x14b;" horiz-adv-x="1734" 
d="M548 900v-900h-362v1536h346v-261h18q54 132 171.5 206.5t286.5 74.5q241 0 384 -153t142 -425v-1089q0 -230 -136.5 -354t-362.5 -124q-121 0 -189 15l20 298q58 -13 109 -13q197 0 197 178v1033q0 154 -79.5 241t-219.5 87q-146 0 -235.5 -93t-89.5 -257z" />
    <glyph glyph-name="uni014C" unicode="&#x14c;" horiz-adv-x="2182" 
d="M2032 1024q0 -243 -71.5 -442.5t-197.5 -332.5t-298.5 -205t-373.5 -72q-202 0 -374 72t-298 205t-197.5 332.5t-71.5 442.5t71.5 442.5t197.5 332.5t298 205t374 72q201 0 373.5 -72t298.5 -205t197.5 -332.5t71.5 -442.5zM1659 1024q0 342 -155.5 530.5t-412.5 188.5
q-256 0 -412 -188.5t-156 -530.5t156 -530.5t412 -188.5q257 0 412.5 188.5t155.5 530.5zM1575 2474v-221h-966v221h966z" />
    <glyph glyph-name="uni014D" unicode="&#x14d;" horiz-adv-x="1718" 
d="M859 -30q-335 0 -535.5 217t-200.5 575q0 236 90 416t257 279t389 99t389.5 -99t257 -279t89.5 -416t-89.5 -415.5t-257 -278t-389.5 -98.5zM861 260q119 0 203 68t124 179.5t40 255.5t-39.5 256t-124 181t-203.5 69q-91 0 -162.5 -39.5t-116.5 -108.5t-68.5 -160
t-23.5 -198q0 -144 40 -255.5t125 -179.5t206 -68zM1343 2002v-221h-966v221h966z" />
    <glyph glyph-name="uni014E" unicode="&#x14e;" horiz-adv-x="2182" 
d="M2032 1024q0 -243 -71.5 -442.5t-197.5 -332.5t-298.5 -205t-373.5 -72q-202 0 -374 72t-298 205t-197.5 332.5t-71.5 442.5t71.5 442.5t197.5 332.5t298 205t374 72q201 0 373.5 -72t298.5 -205t197.5 -332.5t71.5 -442.5zM1659 1024q0 342 -155.5 530.5t-412.5 188.5
q-256 0 -412 -188.5t-156 -530.5t156 -530.5t412 -188.5q257 0 412.5 188.5t155.5 530.5zM1289 2568h271q-1 -178 -128.5 -289t-340.5 -111q-212 0 -339.5 111.5t-126.5 288.5h269q0 -80 48 -132.5t149 -52.5q99 0 148 52.5t50 132.5z" />
    <glyph glyph-name="uni014F" unicode="&#x14f;" horiz-adv-x="1718" 
d="M859 -30q-335 0 -535.5 217t-200.5 575q0 236 90 416t257 279t389 99t389.5 -99t257 -279t89.5 -416t-89.5 -415.5t-257 -278t-389.5 -98.5zM861 260q119 0 203 68t124 179.5t40 255.5t-39.5 256t-124 181t-203.5 69q-91 0 -162.5 -39.5t-116.5 -108.5t-68.5 -160
t-23.5 -198q0 -144 40 -255.5t125 -179.5t206 -68zM1057 2096h271q-1 -178 -128.5 -289t-340.5 -111q-212 0 -339.5 111.5t-126.5 288.5h269q0 -80 48 -132.5t149 -52.5q99 0 148 52.5t50 132.5z" />
    <glyph glyph-name="uni0150" unicode="&#x150;" horiz-adv-x="2182" 
d="M2032 1024q0 -243 -71.5 -442.5t-197.5 -332.5t-298.5 -205t-373.5 -72q-202 0 -374 72t-298 205t-197.5 332.5t-71.5 442.5t71.5 442.5t197.5 332.5t298 205t374 72q201 0 373.5 -72t298.5 -205t197.5 -332.5t71.5 -442.5zM1659 1024q0 342 -155.5 530.5t-412.5 188.5
q-256 0 -412 -188.5t-156 -530.5t156 -530.5t412 -188.5q257 0 412.5 188.5t155.5 530.5zM1160 2172l315 418h328l-372 -418h-271zM681 2172l253 418h326l-317 -418h-262z" />
    <glyph glyph-name="uni0151" unicode="&#x151;" horiz-adv-x="1718" 
d="M859 -30q-335 0 -535.5 217t-200.5 575q0 236 90 416t257 279t389 99t389.5 -99t257 -279t89.5 -416t-89.5 -415.5t-257 -278t-389.5 -98.5zM861 260q119 0 203 68t124 179.5t40 255.5t-39.5 256t-124 181t-203.5 69q-91 0 -162.5 -39.5t-116.5 -108.5t-68.5 -160
t-23.5 -198q0 -144 40 -255.5t125 -179.5t206 -68zM928 1700l315 418h328l-372 -418h-271zM449 1700l253 418h326l-317 -418h-262z" />
    <glyph glyph-name="uni0152" unicode="&#x152;" horiz-adv-x="2806" 
d="M1072 0q-160 0 -301.5 44t-255 130.5t-195 208.5t-126 285.5t-44.5 353.5q0 239 68.5 433.5t191.5 324t292 199t370 69.5h1556v-311h-961v-556h892v-311h-892v-559h969v-311h-1564zM1296 311v1426h-224q-251 0 -401.5 -185.5t-150.5 -529.5q0 -342 150.5 -526.5
t401.5 -184.5h224z" />
    <glyph glyph-name="uni0153" unicode="&#x153;" horiz-adv-x="2762" 
d="M862 -30q-335 0 -535.5 217t-200.5 575q0 236 90 416t257 279t389 99q177 0 320 -63.5t240 -181.5q97 118 237 181.5t313 63.5q145 0 269.5 -46.5t222.5 -138.5t154 -243.5t56 -347.5v-111h-1070q2 -195 108.5 -306t283.5 -111q119 0 204 51t121 147l339 -38
q-49 -203 -226 -322.5t-442 -119.5q-183 0 -328.5 62.5t-243.5 179.5q-98 -117 -240 -179.5t-318 -62.5zM864 260q119 0 203 68t124 179.5t40 255.5t-39.5 256t-124 181t-203.5 69q-91 0 -162.5 -39.5t-116.5 -108.5t-68.5 -160t-23.5 -198q0 -144 40 -255.5t125 -179.5
t206 -68zM1605 913h722q-1 158 -98 259.5t-252 101.5q-158 0 -260.5 -104.5t-111.5 -256.5z" />
    <glyph glyph-name="uni0154" unicode="&#x154;" horiz-adv-x="1843" 
d="M202 0v2048h790q333 0 521.5 -173.5t188.5 -469.5q0 -200 -95.5 -348.5t-272.5 -224.5l444 -832h-414l-405 770h-386v-770h-371zM573 1061h376q184 0 278.5 89t94.5 248q0 160 -93 250t-263 90h-393v-677zM728 2179l262 449h391l-352 -449h-301z" />
    <glyph glyph-name="uni0155" unicode="&#x155;" horiz-adv-x="1165" 
d="M186 0v1536h351v-256h16q41 132 142.5 205t236.5 73q117 0 206 -56l-112 -300q-69 32 -143 32q-143 0 -239 -93.5t-96 -237.5v-903h-362zM451 1707l262 449h391l-352 -449h-301z" />
    <glyph glyph-name="uni0156" unicode="&#x156;" horiz-adv-x="1843" 
d="M202 0v2048h790q333 0 521.5 -173.5t188.5 -469.5q0 -200 -95.5 -348.5t-272.5 -224.5l444 -832h-414l-405 770h-386v-770h-371zM573 1061h376q184 0 278.5 89t94.5 248q0 160 -93 250t-263 90h-393v-677zM1086 -121v-183q-2 -161 -47 -307t-136 -253l-217 81
q56 123 85.5 228.5t28.5 233.5v200h286z" />
    <glyph glyph-name="uni0157" unicode="&#x157;" horiz-adv-x="1165" 
d="M186 0v1536h351v-256h16q41 132 142.5 205t236.5 73q117 0 206 -56l-112 -300q-69 32 -143 32q-143 0 -239 -93.5t-96 -237.5v-903h-362zM515 -121v-183q-2 -161 -47 -307t-136 -253l-217 81q56 123 85.5 228.5t28.5 233.5v200h286z" />
    <glyph glyph-name="uni0158" unicode="&#x158;" horiz-adv-x="1843" 
d="M202 0v2048h790q333 0 521.5 -173.5t188.5 -469.5q0 -200 -95.5 -348.5t-272.5 -224.5l444 -832h-414l-405 770h-386v-770h-371zM573 1061h376q184 0 278.5 89t94.5 248q0 160 -93 250t-263 90h-393v-677zM667 2585l226 -208l224 208h296v-14l-412 -384h-220l-412 384v14
h298z" />
    <glyph glyph-name="uni0159" unicode="&#x159;" horiz-adv-x="1165" 
d="M186 0v1536h351v-256h16q41 132 142.5 205t236.5 73q117 0 206 -56l-112 -300q-69 32 -143 32q-143 0 -239 -93.5t-96 -237.5v-903h-362zM390 2113l226 -208l224 208h296v-14l-412 -384h-220l-412 384v14h298z" />
    <glyph glyph-name="uni015A" unicode="&#x15a;" horiz-adv-x="1828" 
d="M1315 1485q-14 130 -117 203.5t-269 73.5q-171 0 -270.5 -74.5t-100.5 -192.5q-1 -61 28.5 -109.5t83.5 -81.5t109 -53.5t127 -37.5l192 -48q98 -23 181.5 -55t163 -82t134.5 -112.5t89 -150t34 -190.5q-1 -275 -207.5 -440.5t-569.5 -165.5q-361 0 -572.5 166.5
t-222.5 469.5h365q11 -156 128 -237.5t299 -81.5t295 80.5t114 211.5q0 77 -48.5 132.5t-123.5 88t-196 63.5l-233 60q-546 141 -546 550q0 178 98 316.5t269 213t385 74.5q215 0 382 -75.5t260 -209.5t96 -306h-357zM749 2179l262 449h391l-352 -449h-301z" />
    <glyph glyph-name="uni015B" unicode="&#x15b;" horiz-adv-x="1546" 
d="M1400 1130l-330 -36q-23 83 -94.5 137.5t-188.5 54.5q-114 0 -190 -49.5t-75 -126.5q-1 -67 50 -109.5t167 -68.5l262 -56q218 -47 324.5 -149.5t107.5 -266.5q-1 -218 -184 -354t-472 -136q-281 0 -453 118t-206 331l353 34q23 -103 101.5 -156.5t203.5 -53.5
q127 0 206.5 52t79.5 132q0 129 -207 175l-262 55q-434 90 -432 433q0 140 77.5 246t218.5 163t325 57q264 0 422 -113t196 -313zM626 1706l262 449h391l-352 -449h-301z" />
    <glyph glyph-name="uni015C" unicode="&#x15c;" horiz-adv-x="1828" 
d="M1315 1485q-14 130 -117 203.5t-269 73.5q-171 0 -270.5 -74.5t-100.5 -192.5q-1 -61 28.5 -109.5t83.5 -81.5t109 -53.5t127 -37.5l192 -48q98 -23 181.5 -55t163 -82t134.5 -112.5t89 -150t34 -190.5q-1 -275 -207.5 -440.5t-569.5 -165.5q-361 0 -572.5 166.5
t-222.5 469.5h365q11 -156 128 -237.5t299 -81.5t295 80.5t114 211.5q0 77 -48.5 132.5t-123.5 88t-196 63.5l-233 60q-546 141 -546 550q0 178 98 316.5t269 213t385 74.5q215 0 382 -75.5t260 -209.5t96 -306h-357zM697 2203h-298v14l412 384h220l412 -384v-14h-296
l-224 208z" />
    <glyph glyph-name="uni015D" unicode="&#x15d;" horiz-adv-x="1546" 
d="M1400 1130l-330 -36q-23 83 -94.5 137.5t-188.5 54.5q-114 0 -190 -49.5t-75 -126.5q-1 -67 50 -109.5t167 -68.5l262 -56q218 -47 324.5 -149.5t107.5 -266.5q-1 -218 -184 -354t-472 -136q-281 0 -453 118t-206 331l353 34q23 -103 101.5 -156.5t203.5 -53.5
q127 0 206.5 52t79.5 132q0 129 -207 175l-262 55q-434 90 -432 433q0 140 77.5 246t218.5 163t325 57q264 0 422 -113t196 -313zM574 1730h-298v14l412 384h220l412 -384v-14h-296l-224 208z" />
    <glyph glyph-name="uni015E" unicode="&#x15e;" horiz-adv-x="1828" 
d="M1315 1485q-14 130 -117 203.5t-269 73.5q-171 0 -270.5 -74.5t-100.5 -192.5q-1 -61 28.5 -109.5t83.5 -81.5t109 -53.5t127 -37.5l192 -48q98 -23 181.5 -55t163 -82t134.5 -112.5t89 -150t34 -190.5q-1 -258 -184.5 -421t-509.5 -183l-9 -48q100 -15 162.5 -76
t62.5 -165q1 -144 -128.5 -229t-363.5 -85l-4 178q249 0 252 127q1 62 -47 92t-157 42l36 167q-312 26 -492 189.5t-190 441.5h365q11 -156 128 -237.5t299 -81.5t295 80.5t114 211.5q0 77 -48.5 132.5t-123.5 88t-196 63.5l-233 60q-546 141 -546 550q0 178 98 316.5
t269 213t385 74.5q215 0 382 -75.5t260 -209.5t96 -306h-357z" />
    <glyph glyph-name="uni015F" unicode="&#x15f;" horiz-adv-x="1546" 
d="M1400 1130l-330 -36q-23 83 -94.5 137.5t-188.5 54.5q-114 0 -190 -49.5t-75 -126.5q-1 -67 50 -109.5t167 -68.5l262 -56q218 -47 324.5 -149.5t107.5 -266.5q-1 -197 -152.5 -328.5t-399.5 -156.5l-10 -52q100 -15 162.5 -76t62.5 -165q1 -144 -128.5 -229t-363.5 -85
l-4 178q249 0 252 127q1 62 -47 92t-157 42l36 167q-241 19 -388 135t-178 310l353 34q23 -103 101.5 -156.5t203.5 -53.5q127 0 206.5 52t79.5 132q0 129 -207 175l-262 55q-434 90 -432 433q0 140 77.5 246t218.5 163t325 57q264 0 422 -113t196 -313z" />
    <glyph glyph-name="uni0160" unicode="&#x160;" horiz-adv-x="1828" 
d="M1315 1485q-14 130 -117 203.5t-269 73.5q-171 0 -270.5 -74.5t-100.5 -192.5q-1 -61 28.5 -109.5t83.5 -81.5t109 -53.5t127 -37.5l192 -48q98 -23 181.5 -55t163 -82t134.5 -112.5t89 -150t34 -190.5q-1 -275 -207.5 -440.5t-569.5 -165.5q-361 0 -572.5 166.5
t-222.5 469.5h365q11 -156 128 -237.5t299 -81.5t295 80.5t114 211.5q0 77 -48.5 132.5t-123.5 88t-196 63.5l-233 60q-546 141 -546 550q0 178 98 316.5t269 213t385 74.5q215 0 382 -75.5t260 -209.5t96 -306h-357zM688 2585l226 -208l224 208h296v-14l-412 -384h-220
l-412 384v14h298z" />
    <glyph glyph-name="uni0161" unicode="&#x161;" horiz-adv-x="1546" 
d="M1400 1130l-330 -36q-23 83 -94.5 137.5t-188.5 54.5q-114 0 -190 -49.5t-75 -126.5q-1 -67 50 -109.5t167 -68.5l262 -56q218 -47 324.5 -149.5t107.5 -266.5q-1 -218 -184 -354t-472 -136q-281 0 -453 118t-206 331l353 34q23 -103 101.5 -156.5t203.5 -53.5
q127 0 206.5 52t79.5 132q0 129 -207 175l-262 55q-434 90 -432 433q0 140 77.5 246t218.5 163t325 57q264 0 422 -113t196 -313zM565 2111l226 -208l224 208h296v-14l-412 -384h-220l-412 384v14h298z" />
    <glyph glyph-name="uni0162" unicode="&#x162;" horiz-adv-x="1858" 
d="M112 1737v311h1634v-311h-633v-1737h-76l-14 -77q100 -15 162.5 -76t62.5 -165q1 -144 -128.5 -229t-363.5 -85l-4 178q249 0 252 127q1 62 -47 92t-157 42l41 193h-96v1737h-633z" />
    <glyph glyph-name="uni0163" unicode="&#x163;" horiz-adv-x="1080" 
d="M953 1536v-280h-303v-792q-1 -101 43 -139.5t121 -38.5q36 0 106 14l61 -282q-67 -25 -163 -34l-12 -61q100 -15 162.5 -76t62.5 -165q1 -144 -128.5 -229t-363.5 -85l-4 178q249 0 252 127q1 62 -47 92t-157 42l40 186q-155 30 -245.5 135.5t-89.5 276.5v851h-218v280
h218v368h362v-368h303z" />
    <glyph glyph-name="uni0164" unicode="&#x164;" horiz-adv-x="1858" 
d="M112 1737v311h1634v-311h-633v-1737h-368v1737h-633zM704 2585l226 -208l224 208h296v-14l-412 -384h-220l-412 384v14h298z" />
    <glyph glyph-name="uni0165" unicode="&#x165;" horiz-adv-x="1128" 
d="M956 1536v-280h-303v-792q-1 -101 43 -139.5t121 -38.5q36 0 106 14l61 -282q-94 -34 -213 -36q-213 -7 -347 103t-133 320v851h-218v280h218v368h362v-368h303zM1124 2355v-183q-2 -161 -47 -307t-136 -253l-217 81q56 123 85.5 228.5t28.5 233.5v200h286z" />
    <glyph glyph-name="uni0166" unicode="&#x166;" horiz-adv-x="1858" 
d="M112 1737v311h1634v-311h-633v-617h293v-229h-293v-891h-368v891h-297v229h297v617h-633z" />
    <glyph glyph-name="uni0167" unicode="&#x167;" horiz-adv-x="1080" 
d="M70 794v196h218v266h-218v280h218v368h362v-368h303v-280h-303v-266h303v-196h-303v-330q-1 -101 43 -139.5t121 -38.5q36 0 106 14l61 -282q-94 -34 -213 -36q-213 -7 -347 103t-133 320v389h-218z" />
    <glyph glyph-name="uni0168" unicode="&#x168;" horiz-adv-x="2066" 
d="M1494 2048h370v-1354q0 -137 -41 -253.5t-115.5 -202.5t-177.5 -147t-229 -91.5t-268 -30.5q-179 0 -330.5 48.5t-263 139.5t-174.5 229t-63 308v1354h371v-1345q0 -123 61.5 -215t165 -138.5t233.5 -46.5t233.5 46.5t165.5 138.5t62 215v1345zM736 2191l-224 11
q0 151 91 257.5t225 106.5q50 0 103 -19t91 -41t88.5 -41t97.5 -19q52 0 89 37.5t36 98.5l222 -16q0 -152 -90.5 -255.5t-226.5 -103.5q-60 0 -114 19t-87.5 41.5t-81.5 41.5t-97 19q-53 0 -87.5 -37.5t-34.5 -99.5z" />
    <glyph glyph-name="uni0169" unicode="&#x169;" horiz-adv-x="1649" 
d="M1171 646v890h362v-1536h-351v273h-16q-54 -134 -174.5 -213.5t-287.5 -79.5q-231 0 -371.5 153t-140.5 425v978h362v-922q0 -146 79.5 -232t210.5 -86q61 0 118.5 22.5t104.5 64.5t75.5 110.5t28.5 152.5zM528 1722l-224 11q0 151 91 257.5t225 106.5q50 0 103 -18.5
t91 -41.5t88.5 -41.5t97.5 -18.5q52 0 89 37.5t36 98.5l222 -16q0 -152 -90.5 -255.5t-226.5 -103.5q-60 0 -114 19t-87.5 41.5t-81.5 41.5t-97 19q-53 0 -87.5 -37.5t-34.5 -99.5z" />
    <glyph glyph-name="uni016A" unicode="&#x16a;" horiz-adv-x="2066" 
d="M1494 2048h370v-1354q0 -137 -41 -253.5t-115.5 -202.5t-177.5 -147t-229 -91.5t-268 -30.5q-179 0 -330.5 48.5t-263 139.5t-174.5 229t-63 308v1354h371v-1345q0 -123 61.5 -215t165 -138.5t233.5 -46.5t233.5 46.5t165.5 138.5t62 215v1345zM1516 2474v-221h-966v221
h966z" />
    <glyph glyph-name="uni016B" unicode="&#x16b;" horiz-adv-x="1713" 
d="M1165 646v890h362v-1536h-351v273h-16q-54 -134 -174.5 -213.5t-287.5 -79.5q-231 0 -371.5 153t-140.5 425v978h362v-922q0 -146 79.5 -232t210.5 -86q61 0 118.5 22.5t104.5 64.5t75.5 110.5t28.5 152.5zM1342 2002v-221h-966v221h966z" />
    <glyph glyph-name="uni016C" unicode="&#x16c;" horiz-adv-x="2066" 
d="M1494 2048h370v-1354q0 -137 -41 -253.5t-115.5 -202.5t-177.5 -147t-229 -91.5t-268 -30.5q-179 0 -330.5 48.5t-263 139.5t-174.5 229t-63 308v1354h371v-1345q0 -123 61.5 -215t165 -138.5t233.5 -46.5t233.5 46.5t165.5 138.5t62 215v1345zM1231 2568h271
q-1 -178 -128.5 -289t-340.5 -111q-212 0 -339.5 111.5t-126.5 288.5h269q0 -80 48 -132.5t149 -52.5q99 0 148 52.5t50 132.5z" />
    <glyph glyph-name="uni016D" unicode="&#x16d;" horiz-adv-x="1713" 
d="M1165 646v890h362v-1536h-351v273h-16q-54 -134 -174.5 -213.5t-287.5 -79.5q-231 0 -371.5 153t-140.5 425v978h362v-922q0 -146 79.5 -232t210.5 -86q61 0 118.5 22.5t104.5 64.5t75.5 110.5t28.5 152.5zM1056 2096h271q-1 -178 -128.5 -289t-340.5 -111
q-212 0 -339.5 111.5t-126.5 288.5h269q0 -80 48 -132.5t149 -52.5q99 0 148 52.5t50 132.5z" />
    <glyph glyph-name="uni016E" unicode="&#x16e;" horiz-adv-x="2066" 
d="M1494 2048h370v-1354q0 -137 -41 -253.5t-115.5 -202.5t-177.5 -147t-229 -91.5t-268 -30.5q-179 0 -330.5 48.5t-263 139.5t-174.5 229t-63 308v1354h371v-1345q0 -123 61.5 -215t165 -138.5t233.5 -46.5t233.5 46.5t165.5 138.5t62 215v1345zM691 2480q0 128 98.5 220
t243.5 92q143 0 240 -92t97 -220t-96 -214.5t-241 -86.5q-146 0 -244 87t-98 214zM862 2480q0 -67 48 -115.5t123 -48.5q74 0 121.5 48.5t47.5 115.5q0 68 -48 117.5t-121 49.5q-74 0 -122.5 -49.5t-48.5 -117.5z" />
    <glyph glyph-name="uni016F" unicode="&#x16f;" horiz-adv-x="1713" 
d="M1165 646v890h362v-1536h-351v273h-16q-54 -134 -174.5 -213.5t-287.5 -79.5q-231 0 -371.5 153t-140.5 425v978h362v-922q0 -146 79.5 -232t210.5 -86q61 0 118.5 22.5t104.5 64.5t75.5 110.5t28.5 152.5zM517 2008q0 128 98.5 220t243.5 92q143 0 240 -92t97 -220
t-96 -214.5t-241 -86.5q-146 0 -244 87t-98 214zM688 2008q0 -67 48 -115.5t123 -48.5q74 0 121.5 48.5t47.5 115.5q0 68 -48 117.5t-121 49.5q-74 0 -122.5 -49.5t-48.5 -117.5z" />
    <glyph glyph-name="uni0170" unicode="&#x170;" horiz-adv-x="2066" 
d="M1494 2048h370v-1354q0 -137 -41 -253.5t-115.5 -202.5t-177.5 -147t-229 -91.5t-268 -30.5q-179 0 -330.5 48.5t-263 139.5t-174.5 229t-63 308v1354h371v-1345q0 -123 61.5 -215t165 -138.5t233.5 -46.5t233.5 46.5t165.5 138.5t62 215v1345zM1102 2172l315 418h328
l-372 -418h-271zM623 2172l253 418h326l-317 -418h-262z" />
    <glyph glyph-name="uni0171" unicode="&#x171;" horiz-adv-x="1713" 
d="M1165 646v890h362v-1536h-351v273h-16q-54 -134 -174.5 -213.5t-287.5 -79.5q-231 0 -371.5 153t-140.5 425v978h362v-922q0 -146 79.5 -232t210.5 -86q61 0 118.5 22.5t104.5 64.5t75.5 110.5t28.5 152.5zM928 1700l315 418h328l-372 -418h-271zM449 1700l253 418h326
l-317 -418h-262z" />
    <glyph glyph-name="uni0172" unicode="&#x172;" horiz-adv-x="2066" 
d="M1494 2048h370v-1354q0 -144 -45 -265t-127 -209t-194.5 -147t-249.5 -85q-94 -55 -144.5 -109.5t-50.5 -122.5q0 -100 99 -100q49 0 115 28l36 -204q-103 -60 -224 -60q-131 0 -216.5 69t-100.5 195q-11 77 12 155t79 143q-295 46 -473 232t-178 480v1354h371v-1345
q0 -123 61.5 -215t165 -138.5t233.5 -46.5t233.5 46.5t165.5 138.5t62 215v1345z" />
    <glyph glyph-name="uni0173" unicode="&#x173;" horiz-adv-x="1713" 
d="M1165 646v890h362v-1536q-106 -59 -162.5 -116.5t-56.5 -129.5q0 -100 99 -100q49 0 115 28l36 -204q-103 -60 -224 -60q-131 0 -216.5 69t-100.5 195q-13 99 26.5 195t132.5 167v229h-16q-54 -134 -174.5 -213.5t-287.5 -79.5q-231 0 -371.5 153t-140.5 425v978h362
v-922q0 -146 79.5 -232t210.5 -86q61 0 118.5 22.5t104.5 64.5t75.5 110.5t28.5 152.5z" />
    <glyph glyph-name="uni0174" unicode="&#x174;" horiz-adv-x="2835" 
d="M633 0l-578 2048h399l369 -1505h19l394 1505h363l395 -1506h18l369 1506h399l-578 -2048h-366l-410 1437h-16l-411 -1437h-366zM1201 2203h-298v14l412 384h220l412 -384v-14h-296l-224 208z" />
    <glyph glyph-name="uni0175" unicode="&#x175;" horiz-adv-x="2358" 
d="M503 0l-434 1536h369l270 -1080h14l276 1080h365l276 -1074h15l266 1074h370l-435 -1536h-377l-288 1038h-21l-288 -1038h-378zM963 1731h-298v14l412 384h220l412 -384v-14h-296l-224 208z" />
    <glyph glyph-name="uni0176" unicode="&#x176;" horiz-adv-x="1989" 
d="M65 2048h418l501 -906h21l501 906h418l-745 -1284v-764h-369v764zM778 2203h-298v14l412 384h220l412 -384v-14h-296l-224 208z" />
    <glyph glyph-name="uni0177" unicode="&#x177;" horiz-adv-x="1622" 
d="M398 -598q-129 0 -228 41l84 290q79 -23 140 -22.5t108.5 39t82.5 120.5l38 96l-559 1570h384l354 -1160h16l355 1160h385l-620 -1736q-67 -189 -202 -293.5t-338 -104.5zM586 1731h-298v14l412 384h220l412 -384v-14h-296l-224 208z" />
    <glyph glyph-name="uni0178" unicode="&#x178;" horiz-adv-x="1989" 
d="M65 2048h418l501 -906h21l501 906h418l-745 -1284v-764h-369v764zM698 2222q-79 0 -136.5 56t-57.5 132q0 79 57 134t137 55q81 0 136.5 -54.5t55.5 -134.5q0 -77 -56 -132.5t-136 -55.5zM1293 2222q-79 0 -136.5 56t-57.5 132q0 79 57 134t137 55q81 0 136.5 -54.5
t55.5 -134.5q0 -77 -56 -132.5t-136 -55.5z" />
    <glyph glyph-name="uni0179" unicode="&#x179;" horiz-adv-x="1838" 
d="M164 0v231l1050 1506h-1056v311h1516v-231l-1049 -1506h1055v-311h-1516zM757 2179l262 449h391l-352 -449h-301z" />
    <glyph glyph-name="uni017A" unicode="&#x17a;" horiz-adv-x="1582" 
d="M166 0v230l792 993v13h-790v300h1233v-247l-754 -976v-13h773v-300h-1254zM623 1707l262 449h391l-352 -449h-301z" />
    <glyph glyph-name="uni017B" unicode="&#x17b;" horiz-adv-x="1838" 
d="M164 0v231l1050 1506h-1056v311h1516v-231l-1049 -1506h1055v-311h-1516zM922 2214q-86 0 -148 57t-62 139t62 139.5t148 57.5q85 0 147 -57.5t62 -139.5t-62 -139t-147 -57z" />
    <glyph glyph-name="uni017C" unicode="&#x17c;" horiz-adv-x="1582" 
d="M166 0v230l792 993v13h-790v300h1233v-247l-754 -976v-13h773v-300h-1254zM788 1742q-86 0 -148 57t-62 139t62 139.5t148 57.5q85 0 147 -57.5t62 -139.5t-62 -139t-147 -57z" />
    <glyph glyph-name="uni017D" unicode="&#x17d;" horiz-adv-x="1838" 
d="M164 0v231l1050 1506h-1056v311h1516v-231l-1049 -1506h1055v-311h-1516zM696 2585l226 -208l224 208h296v-14l-412 -384h-220l-412 384v14h298z" />
    <glyph glyph-name="uni017E" unicode="&#x17e;" horiz-adv-x="1582" 
d="M166 0v230l792 993v13h-790v300h1233v-247l-754 -976v-13h773v-300h-1254zM562 2113l226 -208l224 208h296v-14l-412 -384h-220l-412 384v14h298z" />
    <glyph glyph-name="uni017F" unicode="&#x17f;" horiz-adv-x="794" 
d="M393 0h-374v1622q0 251 141.5 384.5t398.5 133.5q89 0 215 -28l-32 -281q-57 12 -131 12q-107 0 -163 -57t-55 -164v-1622z" />
    <glyph glyph-name="uni0180" unicode="&#x180;" horiz-adv-x="1759" 
d="M186 0v1651h-299v229h299v168h362v-168h297v-229h-297v-369h15q136 274 439 274q134 0 249 -52t201 -150t135 -249.5t49 -338.5q0 -186 -48 -337t-133 -250t-200.5 -152.5t-251.5 -53.5q-303 0 -440 269h-21v-242h-356zM541 768q0 -227 95 -362.5t266 -135.5
q174 0 269.5 137.5t95.5 360.5q0 145 -40.5 254.5t-123.5 173t-201 63.5q-172 0 -266.5 -132t-94.5 -359z" />
    <glyph glyph-name="uni0181" unicode="&#x181;" horiz-adv-x="2380" 
d="M731 0v1738h-90q-47 0 -83 -14.5t-57 -38t-33.5 -57.5t-17 -67.5t-4.5 -74.5v-105h-334v179q-1 220 140 354t386 134h877q163 0 290.5 -40t208.5 -111.5t123 -167.5t42 -212q0 -178 -99 -288t-259 -148v-20q83 -4 160.5 -40t140 -98.5t100 -157.5t37.5 -207
q0 -121 -44 -222t-129 -176.5t-219.5 -117.5t-306.5 -42h-829zM1102 310h399q194 0 287.5 74t93.5 203q0 140 -101.5 231.5t-269.5 91.5h-409v-600zM1102 1177h367q148 0 243.5 79.5t95.5 212.5q0 123 -86 198t-245 75h-375v-565z" />
    <glyph glyph-name="uni0182" unicode="&#x182;" horiz-adv-x="1843" 
d="M202 0v2048h1317v-311h-946v-480h395q350 0 551 -167.5t201 -451.5q0 -287 -202 -462.5t-550 -175.5h-766zM573 304h395q179 0 282 98t103 240q0 135 -102.5 224t-282.5 89h-395v-651z" />
    <glyph glyph-name="uni0183" unicode="&#x183;" horiz-adv-x="1759" 
d="M1438 2048v-278h-890v-488h15q136 274 439 274q134 0 249 -52t201 -150t135 -249.5t49 -338.5q0 -186 -48 -337t-133 -250t-200.5 -152.5t-251.5 -53.5q-303 0 -440 269h-21v-242h-356v2048h1252zM541 768q0 -227 95 -362.5t266 -135.5q174 0 269.5 137.5t95.5 360.5
q0 145 -40.5 254.5t-123.5 173t-201 63.5q-172 0 -266.5 -132t-94.5 -359z" />
    <glyph glyph-name="uni0184" unicode="&#x184;" horiz-adv-x="2143" 
d="M894 1257h395q350 0 551 -167.5t201 -451.5q0 -287 -202 -462.5t-550 -175.5h-767v1737h-489v311h861v-791zM894 955v-651h395q179 0 282 98t103 240q0 135 -102.5 224t-282.5 89h-395z" />
    <glyph glyph-name="uni0185" unicode="&#x185;" horiz-adv-x="1846" 
d="M357 2112h69v-64h297v-711h19q46 91 145 155t252 64q133 0 248 -52t201.5 -150t136 -249.5t49.5 -338.5q0 -186 -48.5 -337.5t-133.5 -250.5t-200.5 -152t-249.5 -53q-84 0 -153.5 19.5t-116.5 53t-78 69t-52 76.5h-25v-191h-356v1440h-4l-250 248v173zM1426 768
q0 225 -96 358t-278 133q-123 0 -205 -65t-118 -172.5t-35 -253.5q0 -108 20.5 -197t63 -157.5t112.5 -106t162 -37.5q180 0 277 136t97 362z" />
    <glyph glyph-name="uni0186" unicode="&#x186;" horiz-adv-x="2094" 
d="M1006 -28q-178 0 -332 55t-263.5 151t-180 224.5t-91.5 275.5l375 2q35 -177 167.5 -276t320.5 -99q256 0 412.5 187.5t156.5 531.5q0 339 -157 529t-414 190q-191 0 -323 -102.5t-163 -283.5h-375q31 223 151.5 387t304.5 248t411 84q201 0 372.5 -72t297.5 -205
t197 -332.5t71 -442.5t-70.5 -442.5t-196 -332.5t-297.5 -205t-374 -72z" />
    <glyph glyph-name="uni0187" unicode="&#x187;" horiz-adv-x="2297" 
d="M1955 1357h-374q-32 181 -164.5 283.5t-322.5 102.5q-257 0 -414 -190t-157 -529q0 -343 156.5 -531t413.5 -188q187 0 320 99t168 276l374 -2q-21 -147 -91.5 -275.5t-180 -224.5t-263.5 -151t-332 -55q-202 0 -374 72t-297.5 205t-196 332.5t-70.5 442.5t71.5 442.5
t197 332.5t297 205t372.5 72q356 0 592 -198q71 106 192.5 163t267.5 57q121 0 181 -12v-296q-65 7 -107 7q-51 0 -95 -12.5t-82 -39t-60 -75t-22 -113.5v-200z" />
    <glyph glyph-name="uni0188" unicode="&#x188;" horiz-adv-x="1781" 
d="M1518 1004h-347q-21 116 -102 188t-207 72q-169 0 -270.5 -133t-101.5 -363q0 -234 100.5 -368.5t271.5 -134.5q120 0 203 68.5t106 191.5h347q-21 -249 -197.5 -402t-461.5 -153q-225 0 -393 101t-255.5 280t-87.5 411q0 233 89 413t256 280.5t389 100.5q216 0 375 -91
q58 106 166.5 163.5t246.5 57.5q98 0 163 -20v-252q-65 9 -95 9q-97 0 -146 -46t-49 -152v-221z" />
    <glyph glyph-name="uni0189" unicode="&#x189;" horiz-adv-x="2040" 
d="M896 0h-694v958h-295v229h295v861h708q458 0 719 -272t261 -750q0 -481 -263.5 -753.5t-730.5 -272.5zM573 321h305q644 0 644 705q0 350 -160 525.5t-473 175.5h-316v-540h292v-229h-292v-637z" />
    <glyph glyph-name="uni018A" unicode="&#x18a;" horiz-adv-x="2399" 
d="M1338 0h-694v1727h-101q-59 0 -99 -19.5t-60 -55.5t-27.5 -75.5t-7.5 -90.5v-105h-335v179q0 221 141 354.5t386 133.5h811q458 0 719 -272t261 -750q0 -481 -263.5 -753.5t-730.5 -272.5zM1015 321h305q644 0 644 705q0 350 -160 525.5t-473 175.5h-316v-1406z" />
    <glyph glyph-name="uni018B" unicode="&#x18b;" horiz-adv-x="1851" 
d="M1686 0h-764q-174 0 -316.5 47t-238.5 131t-148 202t-52 258q0 284 202.5 454t552.5 170h379v452h-931v314h1316v-2028zM1301 308v645h-379q-181 0 -274.5 -87t-93.5 -224q0 -144 94 -239t274 -95h379z" />
    <glyph glyph-name="uni018C" unicode="&#x18c;" horiz-adv-x="1759" 
d="M321 2048h1252v-2048h-356v242h-21q-137 -269 -440 -269q-136 0 -251.5 53.5t-200.5 152.5t-133 250t-48 337q0 187 49 338.5t135 249.5t201 150t249 52q303 0 439 -274h15v488h-890v278zM1218 768q0 227 -94.5 359t-266.5 132q-118 0 -201 -63.5t-123.5 -173
t-40.5 -254.5q0 -223 95.5 -360.5t269.5 -137.5q171 0 266 135.5t95 362.5z" />
    <glyph glyph-name="uni018D" unicode="&#x18d;" horiz-adv-x="1736" 
d="M1393 -516h-1074v292h587q-29 29 -256 208q-114 94 -197 178.5t-151 180.5t-102.5 199.5t-34.5 213.5v28q0 157 47 290.5t135 232t222 154t300 55.5q165 0 299 -53t223 -147t136.5 -222t47.5 -278v-28q0 -268 -161.5 -455t-419.5 -224q-17 -3 -50 -3q294 -254 449 -423
v-199zM1203 756v28q0 88 -17 162.5t-54.5 137.5t-104.5 99t-158 36q-72 0 -129 -23t-95 -63t-63.5 -95.5t-36.5 -118.5t-11 -135v-28q0 -149 66 -263t165 -173q36 -13 91 -13q90 0 158.5 35.5t108.5 98.5t60 142t20 173z" />
    <glyph glyph-name="uni018E" unicode="&#x18e;" horiz-adv-x="1706" 
d="M1482 2048v-2048h-1332v311h961v556h-892v311h892v559h-969v311h1340z" />
    <glyph glyph-name="uni018F" unicode="&#x18f;" horiz-adv-x="2112" 
d="M1059 -28q-281 0 -478.5 115t-295 323.5t-97.5 497.5v212h1351q-4 125 -37.5 226.5t-101 181.5t-181 124.5t-265.5 44.5q-278 0 -532 -88l-69 309q65 35 239 74.5t376 39.5q230 0 412.5 -69.5t301.5 -195t181.5 -298t62.5 -379.5v-184q0 -203 -67 -378t-183.5 -296.5
t-276 -190.5t-340.5 -69zM1535 813h-962v-43q0 -102 26 -184t82 -147t152 -100.5t226 -35.5q205 0 329.5 141.5t146.5 368.5z" />
    <glyph glyph-name="uni0190" unicode="&#x190;" horiz-adv-x="1851" 
d="M1165 1080v-207h-242q-187 0 -280.5 -72t-92.5 -235q-1 -144 104 -215t289 -71q165 0 262.5 77.5t98.5 198.5h386q0 -118 -43 -216.5t-115.5 -165.5t-169 -113.5t-202 -67.5t-217.5 -21q-173 0 -314 35t-247 105t-163.5 184t-57.5 264q-1 171 89.5 289.5t260.5 176.5
q-150 62 -234.5 174t-83.5 260q0 183 94 313t262 194.5t394 64.5q145 0 275.5 -39.5t228.5 -111t156 -178.5t58 -234h-385q-1 117 -93 184t-240 67q-183 0 -274 -73t-90 -193q-1 -137 83 -210t261 -73h242v-91z" />
    <glyph glyph-name="uni0191" unicode="&#x191;" horiz-adv-x="1690" 
d="M243 0h1v2048h1312v-311h-941v-556h851v-311h-851v-870h-1v-118q0 -103 -26.5 -182.5t-72 -131t-113 -84.5t-144.5 -46.5t-171 -13.5q-82 0 -141 10v286q30 -5 82 -5q215 0 215 170v115z" />
    <glyph glyph-name="uni0192" unicode="&#x192;" horiz-adv-x="1243" 
d="M1058 1488v-270h-293v-1299q1 -251 -127.5 -385t-364.5 -134q-106 0 -190 20l20 293q45 -16 133 -16q172 0 170 222v1299h-236v270h236v134q1 249 139.5 383.5t376.5 134.5q125 0 238 -31l-47 -287q-64 15 -130 15q-105 0 -161 -54.5t-57 -160.5v-134h293z" />
    <glyph glyph-name="uni0193" unicode="&#x193;" horiz-adv-x="2291" 
d="M150 1022q0 243 70.5 442.5t195 333t295.5 206t372 72.5q313 0 549 -166q64 130 194.5 200t299.5 70q101 0 180 -20v-293q-83 10 -105 10q-55 0 -97.5 -9t-78.5 -30.5t-55.5 -63t-19.5 -100.5v-268q0 -2 1 -6t1 -6h-381q-53 165 -178.5 257t-309.5 92q-252 0 -406 -190
t-154 -527q0 -343 156.5 -532t418.5 -189q142 0 256.5 58t181 167.5t66.5 251.5h-464v290h831v-246q0 -259 -112.5 -454t-310 -297.5t-450.5 -102.5q-210 0 -385.5 73.5t-299.5 208t-192.5 331.5t-68.5 437z" />
    <glyph glyph-name="uni0194" unicode="&#x194;" horiz-adv-x="1990" 
d="M87 2024h417l491 -1147l490 1147h418l-725 -1571l83 -182.5l78 -170.5l57 -132t43 -119.5t13 -80.5q0 -123 -61 -207t-162 -122.5t-234 -38.5q-99 0 -182 22.5t-147 66.5t-100 115.5t-36 163.5q0 34 14 82.5t44 119l59.5 133.5l80 169.5l85.5 184.5zM997 59
q-53 -117 -74.5 -176t-21.5 -105q0 -45 24 -74t70 -29q47 0 71 30.5t24 72.5q0 46 -21 108t-72 173z" />
    <glyph glyph-name="uni0195" unicode="&#x195;" horiz-adv-x="2733" 
d="M186 0v2048h354v-773h18q55 134 169.5 207.5t287.5 73.5q243 0 386 -152t143 -426v-376q0 -75 14.5 -133t37.5 -94t54.5 -59t63.5 -31.5t68 -8.5q92 0 165 63.5t126.5 192.5t82.5 337.5t29 484.5v182h362v-182q0 -1382 -781 -1382q-273 0 -428.5 162.5t-155.5 467.5v320
q0 155 -79.5 241.5t-222.5 86.5q-149 0 -240.5 -93.5t-91.5 -256.5v-900h-362z" />
    <glyph glyph-name="uni0196" unicode="&#x196;" horiz-adv-x="1066" 
d="M529 2112v-1622q0 -105 56 -162.5t162 -57.5q63 0 131 15l32 -285q-126 -28 -215 -28q-256 0 -398 135t-142 383v1622h374z" />
    <glyph glyph-name="uni0197" unicode="&#x197;" horiz-adv-x="774" 
d="M573 2048v-861h292v-229h-292v-958h-371v958h-295v229h295v861h371z" />
    <glyph glyph-name="uni0198" unicode="&#x198;" horiz-adv-x="1999" 
d="M202 0v2048h371v-926h25l720 772q143 152 317.5 175t342.5 -83l-125 -265q-79 42 -141.5 26t-135.5 -93l-517 -544l851 -1110h-446l-638 848l-253 -275v-573h-371z" />
    <glyph glyph-name="uni0199" unicode="&#x199;" horiz-adv-x="1583" 
d="M1158 0l-450 620l-160 -174v-446h-362v1618q0 102 27 182.5t72 131.5t108.5 84t131 46.5t145.5 13.5q118 0 191 -14v-283q-58 8 -95 8q-218 0 -218 -169v-672h20l520 590h431l-588 -656l633 -880h-406z" />
    <glyph glyph-name="uni019A" unicode="&#x19a;" horiz-adv-x="734" 
d="M548 2048v-861h297v-229h-297v-958h-362v958h-299v229h299v861h362z" />
    <glyph glyph-name="uni019B" unicode="&#x19b;" horiz-adv-x="1846" 
d="M1045 1909v-259l-50 -17l491 -1215q29 -68 61.5 -103.5t81.5 -35.5h48l3 -293q-48 -12 -140 -12q-157 0 -249.5 69.5t-154.5 230.5l-253 670l-329 -944h-404l539 1443l-33 76l-374 -126v259l274 92q-50 74 -152 74q-49 0 -77 -4l-6 279q35 10 97 17t104 7q150 0 238 -59
t135 -176l8 -21z" />
    <glyph glyph-name="uni019C" unicode="&#x19c;" horiz-adv-x="2638" 
d="M1199 222q-151 -250 -473 -250q-167 0 -275.5 59t-168 197.5t-59.5 363.5v1412h371v-1412q0 -318 228 -318q238 0 317 196q-5 63 -5 122v1412h368v-1412q0 -169 63.5 -243.5t168.5 -74.5q233 0 312 190v1540h371v-2004h-340l-15 162q-153 -190 -425 -190q-324 0 -438 250
z" />
    <glyph glyph-name="uni019D" unicode="&#x19d;" horiz-adv-x="2092" 
d="M207 0h1v2048h332l964 -1396h18v1396h369v-2048h-330l-965 1395h-17v-1395h-1v-118q0 -102 -27.5 -182.5t-73 -131.5t-109.5 -84t-133 -46.5t-148 -13.5q-133 0 -177 10v286q30 -5 82 -5q215 0 215 170v115z" />
    <glyph glyph-name="uni019E" unicode="&#x19e;" horiz-adv-x="1717" 
d="M548 900v-900h-362v1536h346v-261h18q55 132 172.5 206.5t285.5 74.5q242 0 384 -152.5t142 -425.5v-1554h-362v1498q0 153 -79 240.5t-220 87.5q-145 0 -235 -93.5t-90 -256.5z" />
    <glyph glyph-name="uni019F" unicode="&#x19f;" horiz-adv-x="2182" 
d="M2032 1024q0 -243 -71.5 -442.5t-197.5 -332.5t-298.5 -205t-373.5 -72q-202 0 -374 72t-298 205t-197.5 332.5t-71.5 442.5t71.5 442.5t197.5 332.5t298 205t374 72q201 0 373.5 -72t298.5 -205t197.5 -332.5t71.5 -442.5zM1091 305q226 0 376 148t183 420
q-71 -26 -140 -38t-119 -13t-113.5 10t-99 21t-100.5 30q-77 24 -122.5 35.5t-119 22t-149 2.5t-159.5 -34q27 -289 178.5 -446.5t384.5 -157.5zM1654 1142q-27 288 -178.5 444.5t-384.5 156.5q-225 0 -374.5 -147t-184.5 -418q71 26 139.5 37.5t118 12.5t114 -10.5t98 -21
l100.5 -29.5q78 -24 123 -35.5t119.5 -22t150 -2t159.5 34.5z" />
    <glyph glyph-name="uni01A0" unicode="&#x1a0;" horiz-adv-x="2254" 
d="M1955 2164h262q0 -454 -314 -565q129 -244 129 -575q0 -243 -71.5 -442.5t-197.5 -332.5t-298.5 -205t-373.5 -72q-202 0 -374 72t-298 205t-197.5 332.5t-71.5 442.5t71.5 442.5t197.5 332.5t298 205t374 72q205 0 379.5 -73.5t301.5 -213.5q97 27 140 121.5t43 253.5z
M1659 1024q0 342 -155.5 530.5t-412.5 188.5q-256 0 -412 -188.5t-156 -530.5t156 -530.5t412 -188.5q257 0 412.5 188.5t155.5 530.5z" />
    <glyph glyph-name="uni01A1" unicode="&#x1a1;" horiz-adv-x="1748" 
d="M1506 1634h242q0 -363 -234 -474q81 -174 81 -398q0 -236 -89.5 -415.5t-257 -278t-389.5 -98.5q-335 0 -535.5 217t-200.5 575q0 236 90 416t257 279t389 99q173 0 313.5 -61t237.5 -174q55 39 75.5 115.5t20.5 197.5zM861 260q119 0 203 68t124 179.5t40 255.5
t-39.5 256t-124 181t-203.5 69q-91 0 -162.5 -39.5t-116.5 -108.5t-68.5 -160t-23.5 -198q0 -144 40 -255.5t125 -179.5t206 -68z" />
    <glyph glyph-name="uni01A2" unicode="&#x1a2;" horiz-adv-x="2510" 
d="M2362 2004v-2576h-371v2152l-207 -88v-1231q-30 -38 -69 -73.5t-106 -76t-146 -70.5t-193.5 -49.5t-243.5 -19.5q-194 0 -355.5 64.5t-277.5 185.5t-180 304.5t-64 411.5v128q0 225 64 407.5t179.5 304.5t277.5 188t356 66q431 0 670 -199l385 171h281zM538 1048v-110
q0 -150 30.5 -269.5t91.5 -207t159 -134.5t227 -47q80 0 144 10.5t107 29.5t67.5 35.5t48.5 38.5v1216q-116 112 -373 112q-248 0 -375 -169.5t-127 -486.5v-18z" />
    <glyph glyph-name="uni01A3" unicode="&#x1a3;" horiz-adv-x="1987" 
d="M1882 1488v-2060h-372v1627l-152 -69v-737q-188 -277 -556 -277q-172 0 -306.5 58.5t-218 161.5t-127 237.5t-43.5 292.5v44q0 125 27 236.5t83.5 206t137.5 162.5t195.5 106.5t251.5 38.5q142 0 261.5 -51.5t205.5 -135.5l349 159h264zM798 270q115 0 188 62v812
q-72 75 -192 75q-318 0 -316 -453v-44q-1 -210 76 -331t244 -121z" />
    <glyph glyph-name="uni01A4" unicode="&#x1a4;" horiz-adv-x="2334" 
d="M708 0v1738h-90q-197 0 -195 -252v-105h-334v179q-1 220 140 354t386 134h861q173 0 311 -50.5t227.5 -141.5t136.5 -214.5t47 -271.5t-47.5 -272t-137.5 -214.5t-229 -141t-313 -50.5h-392v-692h-371zM1079 997h342q200 0 300 100.5t99 272.5q1 169 -99.5 268.5
t-301.5 99.5h-340v-741z" />
    <glyph glyph-name="uni01A5" unicode="&#x1a5;" horiz-adv-x="1759" 
d="M542 1536v-254h21q138 274 439 274q134 0 249 -52t201 -150t135 -249.5t49 -338.5q0 -186 -48 -337t-133 -250t-200.5 -152.5t-251.5 -53.5q-304 0 -440 269h-15v-818h-362v2112q0 201 115.5 297t351.5 96q117 0 190 -20v-256q-59 15 -116 16q-185 2 -185 -133zM902 270
q175 0 270.5 137.5t94.5 360.5q1 221 -94 356t-271 135q-172 0 -266.5 -132.5t-94.5 -358.5q0 -228 95 -363t266 -135z" />
    <glyph glyph-name="uni01A6" unicode="&#x1a6;" horiz-adv-x="2109" 
d="M142 2004h2v140h387v-140h351q354 0 549 -156.5t195 -449.5q0 -395 -368 -553l708 -1314v-17h-412l-654 1238h-369v-752h-389v2004zM531 1060h351q173 0 266.5 85.5t93.5 227.5q0 151 -89.5 235t-270.5 84h-351v-632z" />
    <glyph glyph-name="uni01A7" unicode="&#x1a7;" horiz-adv-x="1828" 
d="M513 1485h-357q3 172 96 306t260 209.5t382 75.5q214 0 385 -74.5t269 -213t98 -316.5q0 -409 -546 -550l-233 -60q-121 -31 -196 -63.5t-123.5 -88t-48.5 -132.5q1 -131 114 -211.5t295 -80.5t299 81.5t128 237.5h365q-11 -303 -222.5 -469.5t-572.5 -166.5
q-363 0 -569.5 165.5t-207.5 440.5q0 103 34 190.5t89 150t134.5 112.5t163 82t181.5 55l192 48q72 17 127 37.5t109 53.5t83.5 81.5t28.5 109.5q-1 118 -100.5 192.5t-270.5 74.5q-166 0 -269 -73.5t-117 -203.5z" />
    <glyph glyph-name="uni01A8" unicode="&#x1a8;" horiz-adv-x="1546" 
d="M146 1130q38 200 196 313t422 113q184 0 325 -57t218.5 -163t77.5 -246q2 -343 -432 -433l-262 -55q-207 -46 -207 -175q0 -80 79.5 -132t206.5 -52q125 0 203.5 53.5t101.5 156.5l353 -34q-34 -213 -206 -331t-453 -118q-289 0 -472 136t-184 354q1 164 107.5 266.5
t324.5 149.5l262 56q116 26 167 68.5t50 109.5q1 77 -75 126.5t-190 49.5q-117 0 -188.5 -54.5t-94.5 -137.5z" />
    <glyph glyph-name="uni01A9" unicode="&#x1a9;" horiz-adv-x="1854" 
d="M1640 315v-315h-1445v210l629 802l-629 804v212h1403v-317h-879l513 -686v-23l-514 -687h922z" />
    <glyph glyph-name="uni01AA" unicode="&#x1aa;" horiz-adv-x="1731" 
d="M175 1630q0 144 71.5 266.5t196 194t271.5 71.5q109 0 208.5 -42.5t172 -114t116 -169.5t43.5 -206v-1676q-1 -235 190 -235q49 0 112 12v-291q-76 -22 -192 -22q-233 0 -358 138t-124 398v1171q-80 -27 -168 -27q-147 0 -271 71.5t-196 194t-72 266.5zM715 1420
q89 0 146 55t57 159q0 100 -57.5 155t-145.5 55q-94 0 -151.5 -55t-57.5 -155q0 -104 57.5 -159t151.5 -55z" />
    <glyph glyph-name="uni01AB" unicode="&#x1ab;" horiz-adv-x="1090" 
d="M953 1536v-280h-303v-792q-1 -101 43 -139.5t121 -38.5q30 0 60 5l116 24v-433q0 -215 -121.5 -335.5t-322.5 -120.5q-102 0 -165 16v255q54 -8 97 -8q47 0 85.5 9t74 29t55.5 59.5t20 95.5v100q-191 9 -308.5 118t-116.5 305v851h-218v280h218v368h362v-368h303z" />
    <glyph glyph-name="uni01AC" unicode="&#x1ac;" horiz-adv-x="1960" 
d="M1848 2048v-311h-633v-1737h-368v1737h-225q-56 0 -96 -20.5t-61 -56.5t-30 -76.5t-9 -89.5v-104h-314v171q0 225 134 356t376 131h1226z" />
    <glyph glyph-name="uni01AD" unicode="&#x1ad;" horiz-adv-x="1210" 
d="M1014 1488v-270h-266v-766q0 -97 40 -135.5t118 -38.5q40 0 120 11v-283q-102 -34 -236 -34q-193 0 -302.5 109.5t-109.5 340.5v796h-236v270h236v216q0 101 26.5 180t72 131t110 85.5t137 47.5t156.5 14q108 0 190 -22v-246q-48 12 -93 12q-47 0 -85.5 -10t-72 -32
t-52.5 -62.5t-19 -97.5v-216h266z" />
    <glyph glyph-name="uni01AE" unicode="&#x1ae;" horiz-adv-x="1858" 
d="M112 1737v311h1634v-311h-633v-1855q0 -161 225 -161h83v-297h-178q-79 0 -148.5 13.5t-135 46.5t-112 84t-74.5 131.5t-28 182.5v1855h-633z" />
    <glyph glyph-name="uni01AF" unicode="&#x1af;" horiz-adv-x="2446" 
d="M2073 2138h261q0 -283 -108 -438.5t-362 -186.5v-819q0 -137 -41 -253.5t-115.5 -202.5t-177.5 -147t-229 -91.5t-268 -30.5q-179 0 -330.5 48.5t-263 139.5t-174.5 229t-63 308v1354h371v-1345q0 -123 61.5 -215t165 -138.5t233.5 -46.5t233.5 46.5t165.5 138.5t62 215
v1345h370v-313q65 16 107.5 49.5t64 88t29.5 115.5t8 150z" />
    <glyph glyph-name="uni01B0" unicode="&#x1b0;" horiz-adv-x="1915" 
d="M1730 1615h233q0 -118 -22 -204t-71 -150.5t-132.5 -100.5t-204.5 -46v-1114h-351v273h-16q-54 -134 -174.5 -213.5t-287.5 -79.5q-231 0 -371.5 153t-140.5 425v978h362v-922q0 -146 79.5 -232t210.5 -86q61 0 118.5 22.5t104.5 64.5t75.5 110.5t28.5 152.5v890h362
v-239q53 7 89 24.5t57.5 41.5t32.5 65t14.5 81.5t3.5 105.5z" />
    <glyph glyph-name="uni01B1" unicode="&#x1b1;" horiz-adv-x="2176" 
d="M141 947q0 261 104 456.5t293 317.5v16h-397v311h784v-392q-179 -74 -296 -261t-117 -425q0 -187 73 -338.5t205 -238.5t298 -87t298 87t205 238.5t73 338.5q0 238 -117 425t-296 261v392h784v-311h-397v-16q188 -120 292.5 -316t104.5 -458q0 -211 -70.5 -392.5
t-195 -309.5t-300.5 -200.5t-381 -72.5t-381 72.5t-300.5 200.5t-195 309.5t-70.5 392.5z" />
    <glyph glyph-name="uni01B2" unicode="&#x1b2;" horiz-adv-x="1846" 
d="M925 -28q-169 0 -309.5 45.5t-244.5 132.5t-161.5 221.5t-57.5 303.5v1329h385v-1329q0 -196 99.5 -295.5t288.5 -99.5q188 0 285.5 99.5t97.5 295.5v819q0 121 -46.5 170t-155.5 49q-65 0 -111 -10v303q87 24 190 24q238 0 376 -140.5t137 -395.5v-819
q0 -169 -58.5 -303.5t-163.5 -221t-245.5 -132.5t-305.5 -46z" />
    <glyph glyph-name="uni01B3" unicode="&#x1b3;" horiz-adv-x="2145" 
d="M1698 1566l-477 -757v-809h-370v809l-777 1239h409l541 -906h24l338 563l59 99q58 100 136 163.5t163.5 86.5t175 16t178.5 -43l-83 -283q-90 34 -156.5 8.5t-121.5 -121.5z" />
    <glyph glyph-name="uni01B4" unicode="&#x1b4;" horiz-adv-x="1714" 
d="M1419 1286l-508 -1509q-25 -74 -70 -139.5t-109.5 -120t-154.5 -86t-193 -31.5q-113 0 -188 25v293q30 -6 87 -6q134 0 207 51t110 163l34 101l-556 1509h381l338 -982l278 832l31 96q54 155 152.5 261.5t251.5 130.5q153 34 317 -31l-43 -274q-31 11 -46 15.5t-44.5 9
t-47.5 -1.5q-74 -11 -118.5 -68t-88.5 -180z" />
    <glyph glyph-name="uni01B5" unicode="&#x1b5;" horiz-adv-x="1838" 
d="M164 0v231l507 727h-203v229h363l383 550h-1056v311h1516v-231l-439 -630h191v-229h-350l-451 -647h1055v-311h-1516z" />
    <glyph glyph-name="uni01B6" unicode="&#x1b6;" horiz-adv-x="1582" 
d="M166 0v230l342 429h-200v229h383l267 335v13h-790v300h1233v-247l-310 -401h175v-229h-352l-267 -346v-13h773v-300h-1254z" />
    <glyph glyph-name="uni01B7" unicode="&#x1b7;" horiz-adv-x="1894" 
d="M910 -576q-223 0 -404.5 90t-287 253t-106.5 367h378q16 -162 132 -271t297 -109q141 0 252.5 67.5t173 184t61.5 259.5q0 226 -153.5 364.5t-425.5 138.5h-274v273l601 680v16h-1019v311h1515l1 -254l-699 -772v-16q237 -7 424 -108t291.5 -275t104.5 -390
q0 -228 -115 -414t-312.5 -290.5t-434.5 -104.5z" />
    <glyph glyph-name="uni01B8" unicode="&#x1b8;" horiz-adv-x="1894" 
d="M984 -576q-237 0 -434.5 104.5t-312.5 290.5t-115 414q0 216 104.5 390t291.5 275t424 108v16l-699 772l1 254h1515v-311h-1019v-16l601 -680v-273h-274q-272 0 -425.5 -138.5t-153.5 -364.5q0 -143 61.5 -259.5t173 -184t252.5 -67.5q181 0 297 109t132 271h378
q-1 -204 -106.5 -367t-287 -253t-404.5 -90z" />
    <glyph glyph-name="uni01B9" unicode="&#x1b9;" horiz-adv-x="1833" 
d="M1667 45q-16 -259 -223.5 -422t-524.5 -163q-164 0 -305 45.5t-240.5 125.5t-155.5 193.5t-55 244.5q-2 234 157 395.5t454 195.5v16l-560 606l1 254h1323v-305h-862v-16l480 -523v-267h-229q-171 0 -277 -94t-106 -243q0 -140 103.5 -228.5t267.5 -88.5q153 0 256.5 76
t119.5 198h376z" />
    <glyph glyph-name="uni01BA" unicode="&#x1ba;" horiz-adv-x="1587" 
d="M214 1488h1227v-213l-437 -381q169 -48 264.5 -157t96.5 -251q0 -79 -29.5 -145.5t-78 -113t-120.5 -84.5t-148 -62t-169 -44q-125 -26 -196.5 -57.5t-96.5 -64.5t-25 -80q0 -78 69.5 -121.5t189.5 -43.5q55 0 103.5 11.5t92 36t70.5 71t31 109.5h355q0 -93 -43.5 -181
t-122.5 -159t-204 -114.5t-276 -43.5q-283 0 -455 127t-171 327q-1 185 137.5 293t421.5 163q174 35 238.5 74.5t65.5 117.5q-1 73 -61 114.5t-173 41.5h-303v218l399 315h-652v297z" />
    <glyph glyph-name="uni01BB" unicode="&#x1bb;" horiz-adv-x="1766" 
d="M198 0v268l711 697l9 9h-188v229h391q94 130 94 260q0 142 -96.5 227t-245.5 85q-154 0 -247.5 -92t-92.5 -248h-353q0 191 89.5 337.5t248 225t360.5 78.5q152 0 281 -47t217 -129t137.5 -194t50.5 -240q0 -139 -57 -263h181v-229h-331q-94 -114 -276 -291l-355 -359
v-14h876v-310h-1404z" />
    <glyph glyph-name="uni01BC" unicode="&#x1bc;" horiz-adv-x="1754" 
d="M926 -28q-198 0 -357.5 75t-252 208.5t-97.5 301.5h360q10 -125 108.5 -205t238.5 -80q165 0 271 110.5t105 281.5q1 174 -108 286t-278 113q-92 1 -181 -34t-141 -92l-335 55l75 737h-237v319h1457v-310h-881l-59 -543h12q59 69 163.5 112.5t225.5 43.5q138 0 257.5 -51
t205 -140t134.5 -215t49 -272q0 -201 -93 -361t-261 -250t-381 -90z" />
    <glyph glyph-name="uni01BD" unicode="&#x1bd;" horiz-adv-x="1736" 
d="M673 638l-332 19l69 533h-232v298h1285v-298h-709l-39 -273q49 28 131.5 49.5t169.5 23.5q256 3 399 -130t143 -374q0 -112 -36.5 -202.5t-111.5 -160.5t-199.5 -108.5t-289.5 -38.5q-121 0 -233 28t-204.5 82t-148 144.5t-55.5 205.5l365 21q4 -86 78.5 -133t197.5 -47
q134 0 200.5 61t67.5 168q-1 103 -71 164t-197 61q-171 0 -248 -93z" />
    <glyph glyph-name="uni01BE" unicode="&#x1be;" horiz-adv-x="1587" 
d="M1068 409q0 35 -13 64t-44 56t-55.5 43.5t-73.5 45.5l-65 39t-63 43t-63 53.5t-52.5 63.5t-45 80t-27 96t-11.5 118v107h-234v270h234v366h374v-366h264v-270h-264v-107q0 -51 14.5 -94.5t32.5 -71t55.5 -57.5t62 -44.5l72.5 -41.5l56.5 -32t52.5 -33.5t51 -41t41.5 -48
t35.5 -60t20.5 -72t8.5 -89.5q1 -200 -171 -327t-454 -127q-152 0 -278 44t-205.5 116t-122.5 160t-43 181h357q3 -63 30 -109.5t70.5 -72t92.5 -37.5t104 -12q121 0 189 45t67 122z" />
    <glyph glyph-name="uni01BF" unicode="&#x1bf;" horiz-adv-x="1858" 
d="M614 1341q148 175 396 175q189 0 324 -95.5t202.5 -264.5t67.5 -395v-31q0 -161 -43.5 -292.5t-122 -231.5t-202 -182t-270 -142t-339.5 -115v-339h-373v2060h346zM627 59q138 36 246 93t189 138t124.5 192.5t43.5 247.5v31q0 96 -18 175.5t-55 143.5t-100 100t-148 36
q-199 0 -282 -159v-998z" />
    <glyph glyph-name="uni01C0" unicode="&#x1c0;" horiz-adv-x="812" 
d="M526 2024v-2024h-240v2024h240z" />
    <glyph glyph-name="uni01C1" unicode="&#x1c1;" horiz-adv-x="1075" 
d="M471 2024v-2024h-240v2024h240zM841 2024v-2024h-240v2024h240z" />
    <glyph glyph-name="uni01C2" unicode="&#x1c2;" horiz-adv-x="1088" 
d="M672 2024v-505h325v-229h-325v-421h357v-229h-357v-640h-240v640h-361v229h361v421h-393v229h393v505h240z" />
    <glyph glyph-name="uni01C3" unicode="&#x1c3;" horiz-adv-x="870" 
d="M629 2048l-33 -1446h-322l-32 1446h387zM435 -29q-94 0 -159.5 63t-65.5 153q0 91 65.5 153.5t159.5 62.5q95 0 160.5 -62.5t65.5 -153.5q0 -90 -66 -153t-160 -63z" />
    <glyph glyph-name="uni01C5" unicode="&#x1c5;" horiz-adv-x="3622" 
d="M896 0h-694v2048h708q458 0 719 -272t261 -750q0 -481 -263.5 -753.5t-730.5 -272.5zM573 321h305q644 0 644 705q0 350 -160 525.5t-473 175.5h-316v-1406zM2206 0v230l792 993v13h-790v300h1233v-247l-754 -976v-13h773v-300h-1254zM2602 2113l226 -208l224 208h296
v-14l-412 -384h-220l-412 384v14h298z" />
    <glyph glyph-name="uni01C6" unicode="&#x1c6;" horiz-adv-x="3047" 
d="M1581 0h-356v242h-21q-137 -269 -440 -269q-136 0 -251.5 53.5t-200.5 152.5t-133 250t-48 337q0 187 49 338.5t135 249.5t201 150t249 52q303 0 439 -274h15v766h362v-2048zM1619 0v230l792 993v13h-790v300h1233v-247l-754 -976v-13h773v-300h-1254zM1226 768
q0 227 -94.5 359t-266.5 132q-118 0 -201 -63.5t-123.5 -173t-40.5 -254.5q0 -223 95.5 -360.5t269.5 -137.5q171 0 266 135.5t95 362.5zM2055 2048l226 -208l224 208h296v-14l-412 -384h-220l-412 384v14h298z" />
    <glyph glyph-name="uni01C7" unicode="&#x1c7;" horiz-adv-x="3176" 
d="M202 0v2048h371v-1737h902v-311h-1273zM2604 608v1440h368v-1440q-1 -294 -181.5 -465t-479.5 -171q-136 0 -251 37t-201 107t-134.5 180t-48.5 248h369q2 -124 78.5 -195.5t201.5 -71.5q134 0 206 85t73 246z" />
    <glyph glyph-name="uni01C8" unicode="&#x1c8;" horiz-adv-x="2726" 
d="M479 0v2048h371v-1737h902v-311h-1273zM2036 1536h362v-1613q0 -244 -143.5 -371.5t-395.5 -127.5h-114v298h73q119 0 168.5 53t49.5 153v1608zM2216 1742q-86 0 -148 57t-62 139t62 139.5t148 57.5q85 0 147 -57.5t62 -139.5t-62 -139t-147 -57z" />
    <glyph glyph-name="uni01C9" unicode="&#x1c9;" horiz-adv-x="1458" 
d="M881 1536h362v-1613q0 -244 -143.5 -371.5t-395.5 -127.5h-114v298h73q119 0 168.5 53t49.5 153v1608zM548 2048v-2048h-362v2048h362zM1061 1742q-86 0 -148 57t-62 139t62 139.5t148 57.5q85 0 147 -57.5t62 -139.5t-62 -139t-147 -57z" />
    <glyph glyph-name="uni01CA" unicode="&#x1ca;" horiz-adv-x="3669" 
d="M1885 2048v-2048h-330l-965 1395h-17v-1395h-371v2048h332l964 -1396h18v1396h369zM3096 608v1440h368v-1440q-1 -294 -181.5 -465t-479.5 -171q-136 0 -251 37t-201 107t-134.5 180t-48.5 248h369q2 -124 78.5 -195.5t201.5 -71.5q134 0 206 85t73 246z" />
    <glyph glyph-name="uni01CB" unicode="&#x1cb;" horiz-adv-x="2786" 
d="M1885 2048v-2048h-330l-965 1395h-17v-1395h-371v2048h332l964 -1396h18v1396h369zM2210 1536h362v-1613q0 -244 -143.5 -371.5t-395.5 -127.5h-114v298h73q119 0 168.5 53t49.5 153v1608zM2390 1742q-86 0 -148 57t-62 139t62 139.5t148 57.5q85 0 147 -57.5t62 -139.5
t-62 -139t-147 -57z" />
    <glyph glyph-name="uni01CC" unicode="&#x1cc;" horiz-adv-x="2450" 
d="M548 900v-900h-362v1536h346v-261h18q54 132 171.5 206.5t286.5 74.5q241 0 384 -153t142 -425v-978h-362v922q0 154 -79.5 241t-219.5 87q-146 0 -235.5 -93t-89.5 -257zM1903 1536h362v-1613q0 -244 -143.5 -371.5t-395.5 -127.5h-114v298h73q119 0 168.5 53t49.5 153
v1608zM2083 1742q-86 0 -148 57t-62 139t62 139.5t148 57.5q85 0 147 -57.5t62 -139.5t-62 -139t-147 -57z" />
    <glyph glyph-name="uni01CD" unicode="&#x1cd;" horiz-adv-x="2038" 
d="M465 0h-396l721 2048h458l722 -2048h-396l-170 505h-770zM734 803h570l-277 825h-16zM794 2585l226 -208l224 208h296v-14l-412 -384h-220l-412 384v14h298z" />
    <glyph glyph-name="uni01CE" unicode="&#x1ce;" horiz-adv-x="1618" 
d="M628 -31q-149 0 -263.5 51.5t-182.5 157.5t-68 253q0 100 33 178t85.5 127t131.5 83.5t157 51t176 27.5l27 3q211 23 268 41q72 23 83 73q2 12 2 25q-1 115 -67.5 177t-192.5 62q-125 0 -205.5 -55t-109.5 -140l-338 48q59 207 231.5 315.5t424.5 108.5q91 0 175 -15.5
t166 -54t142.5 -97t98 -151.5t37.5 -210v-1028h-348v211h-12q-54 -106 -168 -174t-283 -68zM722 235q159 0 257.5 92t98.5 224v181q-44 -36 -332 -75q-283 -40 -283 -220q0 -97 71 -149.5t188 -52.5zM602 2113l226 -208l224 208h296v-14l-412 -384h-220l-412 384v14h298z
" />
    <glyph glyph-name="uni01CF" unicode="&#x1cf;" horiz-adv-x="774" 
d="M573 2048v-2048h-371v2048h371zM162 2585l226 -208l224 208h296v-14l-412 -384h-220l-412 384v14h298z" />
    <glyph glyph-name="uni01D0" unicode="&#x1d0;" horiz-adv-x="734" 
d="M186 0v1536h362v-1536h-362zM142 2113l226 -208l224 208h296v-14l-412 -384h-220l-412 384v14h298z" />
    <glyph glyph-name="uni01D1" unicode="&#x1d1;" horiz-adv-x="2182" 
d="M2032 1024q0 -243 -71.5 -442.5t-197.5 -332.5t-298.5 -205t-373.5 -72q-202 0 -374 72t-298 205t-197.5 332.5t-71.5 442.5t71.5 442.5t197.5 332.5t298 205t374 72q201 0 373.5 -72t298.5 -205t197.5 -332.5t71.5 -442.5zM1659 1024q0 342 -155.5 530.5t-412.5 188.5
q-256 0 -412 -188.5t-156 -530.5t156 -530.5t412 -188.5q257 0 412.5 188.5t155.5 530.5zM866 2585l226 -208l224 208h296v-14l-412 -384h-220l-412 384v14h298z" />
    <glyph glyph-name="uni01D2" unicode="&#x1d2;" horiz-adv-x="1718" 
d="M859 -30q-335 0 -535.5 217t-200.5 575q0 236 90 416t257 279t389 99t389.5 -99t257 -279t89.5 -416t-89.5 -415.5t-257 -278t-389.5 -98.5zM861 260q119 0 203 68t124 179.5t40 255.5t-39.5 256t-124 181t-203.5 69q-91 0 -162.5 -39.5t-116.5 -108.5t-68.5 -160
t-23.5 -198q0 -144 40 -255.5t125 -179.5t206 -68zM634 2113l226 -208l224 208h296v-14l-412 -384h-220l-412 384v14h298z" />
    <glyph glyph-name="uni01D3" unicode="&#x1d3;" horiz-adv-x="2066" 
d="M1494 2048h370v-1354q0 -137 -41 -253.5t-115.5 -202.5t-177.5 -147t-229 -91.5t-268 -30.5q-179 0 -330.5 48.5t-263 139.5t-174.5 229t-63 308v1354h371v-1345q0 -123 61.5 -215t165 -138.5t233.5 -46.5t233.5 46.5t165.5 138.5t62 215v1345zM807 2585l226 -208
l224 208h296v-14l-412 -384h-220l-412 384v14h298z" />
    <glyph glyph-name="uni01D4" unicode="&#x1d4;" horiz-adv-x="1713" 
d="M1165 646v890h362v-1536h-351v273h-16q-54 -134 -174.5 -213.5t-287.5 -79.5q-231 0 -371.5 153t-140.5 425v978h362v-922q0 -146 79.5 -232t210.5 -86q61 0 118.5 22.5t104.5 64.5t75.5 110.5t28.5 152.5zM633 2113l226 -208l224 208h296v-14l-412 -384h-220l-412 384
v14h298z" />
    <glyph glyph-name="uni01D5" unicode="&#x1d5;" horiz-adv-x="2066" 
d="M1494 2048h370v-1354q0 -137 -41 -253.5t-115.5 -202.5t-177.5 -147t-229 -91.5t-268 -30.5q-179 0 -330.5 48.5t-263 139.5t-174.5 229t-63 308v1354h371v-1345q0 -123 61.5 -215t165 -138.5t233.5 -46.5t233.5 46.5t165.5 138.5t62 215v1345zM1514 2864v-226h-964v226
h964zM540 2360q-1 68 48.5 114t129.5 46q83 0 133.5 -46t50.5 -114q0 -69 -50 -113.5t-132 -44.5q-83 0 -132 45t-48 113zM1162 2359q-1 68 49.5 113.5t132.5 45.5q80 0 129.5 -45.5t50.5 -112.5q-1 -68 -49.5 -114t-130.5 -46t-132.5 45t-49.5 114z" />
    <glyph glyph-name="uni01D6" unicode="&#x1d6;" horiz-adv-x="1713" 
d="M1165 646v890h362v-1536h-351v273h-16q-54 -134 -174.5 -213.5t-287.5 -79.5q-231 0 -371.5 153t-140.5 425v978h362v-922q0 -146 79.5 -232t210.5 -86q61 0 118.5 22.5t104.5 64.5t75.5 110.5t28.5 152.5zM1347 2427v-226h-966v226h966zM1006 1883q0 72 51.5 121.5
t133.5 49.5q81 0 133 -50t52 -122q0 -70 -52 -118.5t-133 -48.5q-82 0 -133.5 48.5t-51.5 119.5zM343 1884q0 72 52.5 121t133.5 49q82 0 133.5 -49.5t51.5 -120.5t-52 -119t-133 -48t-133.5 48t-52.5 119z" />
    <glyph glyph-name="uni01D7" unicode="&#x1d7;" horiz-adv-x="2066" 
d="M1494 2048h370v-1354q0 -137 -41 -253.5t-115.5 -202.5t-177.5 -147t-229 -91.5t-268 -30.5q-179 0 -330.5 48.5t-263 139.5t-174.5 229t-63 308v1354h371v-1345q0 -123 61.5 -215t165 -138.5t233.5 -46.5t233.5 46.5t165.5 138.5t62 215v1345zM1344 2216
q-74 0 -128.5 48.5t-54.5 115.5q0 70 54 117t129 47q78 0 129.5 -47t52.5 -117q-1 -67 -53 -115.5t-129 -48.5zM718 2216q-74 0 -127.5 48.5t-53.5 115.5q0 69 53 116.5t128 47.5q79 0 131 -47t53 -117q-1 -68 -54 -116t-130 -48zM909 2499l177 280h284l-253 -280h-208z" />
    <glyph glyph-name="uni01D8" unicode="&#x1d8;" horiz-adv-x="1713" 
d="M1165 646v890h362v-1536h-351v273h-16q-54 -134 -174.5 -213.5t-287.5 -79.5q-231 0 -371.5 153t-140.5 425v978h362v-922q0 -146 79.5 -232t210.5 -86q61 0 118.5 22.5t104.5 64.5t75.5 110.5t28.5 152.5zM712 2163l262 449h391l-352 -449h-301zM567 1728
q-79 0 -136.5 56t-57.5 132q0 79 57 134t137 55q81 0 136.5 -54.5t55.5 -134.5q0 -77 -56 -132.5t-136 -55.5zM1162 1728q-79 0 -136.5 56t-57.5 132q0 79 57 134t137 55q81 0 136.5 -54.5t55.5 -134.5q0 -77 -56 -132.5t-136 -55.5z" />
    <glyph glyph-name="uni01D9" unicode="&#x1d9;" horiz-adv-x="2066" 
d="M1494 2048h370v-1354q0 -137 -41 -253.5t-115.5 -202.5t-177.5 -147t-229 -91.5t-268 -30.5q-179 0 -330.5 48.5t-263 139.5t-174.5 229t-63 308v1354h371v-1345q0 -123 61.5 -215t165 -138.5t233.5 -46.5t233.5 46.5t165.5 138.5t62 215v1345zM841 2866l191 -159
l190 159h318v-22l-383 -312h-249l-384 312v22h317zM541 2376q0 68 49 114t130 46q83 0 132.5 -45.5t49.5 -114.5t-49.5 -113.5t-131.5 -44.5t-131 45t-49 113zM1163 2375q0 68 49.5 113.5t132.5 45.5q80 0 130 -45.5t50 -112.5q0 -68 -49.5 -114t-130.5 -46
q-83 0 -132.5 45.5t-49.5 113.5z" />
    <glyph glyph-name="uni01DA" unicode="&#x1da;" horiz-adv-x="1713" 
d="M1165 646v890h362v-1536h-351v273h-16q-54 -134 -174.5 -213.5t-287.5 -79.5q-231 0 -371.5 153t-140.5 425v978h362v-922q0 -146 79.5 -232t210.5 -86q61 0 118.5 22.5t104.5 64.5t75.5 110.5t28.5 152.5zM654 2543l204 -205l207 205h316v-16l-405 -385h-235l-404 386
v15h317zM1005 1882q0 72 52 122t133 50q82 0 135 -50t53 -122q0 -70 -53 -118.5t-135 -48.5q-81 0 -133 48.5t-52 118.5zM345 1884q0 71 51 120.5t132 49.5q83 0 135 -49t52 -121t-52.5 -119.5t-134.5 -47.5q-80 0 -131.5 48t-51.5 119z" />
    <glyph glyph-name="uni01DB" unicode="&#x1db;" horiz-adv-x="2066" 
d="M1494 2048h370v-1354q0 -137 -41 -253.5t-115.5 -202.5t-177.5 -147t-229 -91.5t-268 -30.5q-179 0 -330.5 48.5t-263 139.5t-174.5 229t-63 308v1354h371v-1345q0 -123 61.5 -215t165 -138.5t233.5 -46.5t233.5 46.5t165.5 138.5t62 215v1345zM540 2376q-1 68 48.5 114
t129.5 46q83 0 133.5 -46t50.5 -114q0 -69 -50 -113.5t-132 -44.5q-83 0 -132 45t-48 113zM1162 2375q-1 68 49.5 113.5t132.5 45.5q80 0 129.5 -45.5t50.5 -112.5q-1 -68 -49.5 -114t-130.5 -46t-132.5 45t-49.5 114zM974 2779l179 -280h-208l-254 280h283z" />
    <glyph glyph-name="uni01DC" unicode="&#x1dc;" horiz-adv-x="1713" 
d="M1165 646v890h362v-1536h-351v273h-16q-54 -134 -174.5 -213.5t-287.5 -79.5q-231 0 -371.5 153t-140.5 425v978h362v-922q0 -146 79.5 -232t210.5 -86q61 0 118.5 22.5t104.5 64.5t75.5 110.5t28.5 152.5zM772 2540l276 -420h-308l-383 420h415zM1003 1882q0 72 53 122
t135 50q81 0 133 -50t52 -122q0 -70 -52 -118.5t-133 -48.5q-82 0 -135 48.5t-53 118.5zM343 1884q0 71 51.5 120.5t132.5 49.5q83 0 135 -49t52 -121q0 -71 -52 -119t-135 -48q-80 0 -132 48t-52 119z" />
    <glyph glyph-name="uni01DD" unicode="&#x1dd;" horiz-adv-x="1675" 
d="M805 1566q347 0 547 -213t200 -576q0 -235 -89.5 -416t-255 -281t-382.5 -100q-145 0 -269.5 46.5t-222.5 138.5t-154 243.5t-56 347.5v111h1070q-2 195 -108.5 306t-283.5 111q-119 0 -204 -51t-121 -147l-339 38q49 203 226 322.5t442 119.5zM1192 623h-722
q1 -158 98 -259.5t252 -101.5q158 0 260.5 104.5t111.5 256.5z" />
    <glyph glyph-name="uni01DE" unicode="&#x1de;" horiz-adv-x="2038" 
d="M465 0h-396l721 2048h458l722 -2048h-396l-170 505h-770zM734 803h570l-277 825h-16zM1500 2864v-226h-964v226h964zM526 2360q-1 68 48.5 114t129.5 46q83 0 133.5 -46t50.5 -114q0 -69 -50 -113.5t-132 -44.5q-83 0 -132 45t-48 113zM1148 2359q-1 68 49.5 113.5
t132.5 45.5q80 0 129.5 -45.5t50.5 -112.5q-1 -68 -49.5 -114t-130.5 -46t-132.5 45t-49.5 114z" />
    <glyph glyph-name="uni01DF" unicode="&#x1df;" horiz-adv-x="1618" 
d="M628 -31q-149 0 -263.5 51.5t-182.5 157.5t-68 253q0 100 33 178t85.5 127t131.5 83.5t157 51t176 27.5l27 3q211 23 268 41q72 23 83 73q2 12 2 25q-1 115 -67.5 177t-192.5 62q-125 0 -205.5 -55t-109.5 -140l-338 48q59 207 231.5 315.5t424.5 108.5q91 0 175 -15.5
t166 -54t142.5 -97t98 -151.5t37.5 -210v-1028h-348v211h-12q-54 -106 -168 -174t-283 -68zM722 235q159 0 257.5 92t98.5 224v181q-44 -36 -332 -75q-283 -40 -283 -220q0 -97 71 -149.5t188 -52.5zM1316 2427v-226h-966v226h966zM975 1883q0 72 51.5 121.5t133.5 49.5
q81 0 133 -50t52 -122q0 -70 -52 -118.5t-133 -48.5q-82 0 -133.5 48.5t-51.5 119.5zM312 1884q0 72 52.5 121t133.5 49q82 0 133.5 -49.5t51.5 -120.5t-52 -119t-133 -48t-133.5 48t-52.5 119z" />
    <glyph glyph-name="uni01E0" unicode="&#x1e0;" horiz-adv-x="2038" 
d="M465 0h-396l721 2048h458l722 -2048h-396l-170 505h-770zM734 803h570l-277 825h-16zM1502 2863v-226h-966v226h966zM836 2367q0 67 50 112.5t133 45.5q81 0 130.5 -45.5t50.5 -112.5q-1 -69 -50.5 -114.5t-130.5 -45.5q-83 0 -133 45.5t-50 114.5z" />
    <glyph glyph-name="uni01E1" unicode="&#x1e1;" horiz-adv-x="1618" 
d="M628 -31q-149 0 -263.5 51.5t-182.5 157.5t-68 253q0 100 33 178t85.5 127t131.5 83.5t157 51t176 27.5l27 3q211 23 268 41q72 23 83 73q2 12 2 25q-1 115 -67.5 177t-192.5 62q-125 0 -205.5 -55t-109.5 -140l-338 48q59 207 231.5 315.5t424.5 108.5q91 0 175 -15.5
t166 -54t142.5 -97t98 -151.5t37.5 -210v-1028h-348v211h-12q-54 -106 -168 -174t-283 -68zM722 235q159 0 257.5 92t98.5 224v181q-44 -36 -332 -75q-283 -40 -283 -220q0 -97 71 -149.5t188 -52.5zM1316 2472v-224h-966v224h966zM633 1913q0 79 53.5 130.5t141.5 51.5
q89 0 142 -51.5t53 -130.5q0 -78 -53.5 -128t-141.5 -50q-89 0 -142 50t-53 128z" />
    <glyph glyph-name="uni01E2" unicode="&#x1e2;" horiz-adv-x="2863" 
d="M69 0l915 2048h1702v-311h-961v-556h892v-311h-892v-559h969v-311h-1340v505h-658l-219 -505h-408zM825 803h529v887h-145zM2320 2474v-221h-966v221h966z" />
    <glyph glyph-name="uni01E3" unicode="&#x1e3;" horiz-adv-x="2586" 
d="M1781 -30q-412 0 -583 313h-13q-19 -53 -67 -107t-118 -101t-168 -76.5t-204 -29.5q-148 0 -263 52t-183 158t-68 252q0 100 33 177t85.5 126.5t131 84t157 51.5t176.5 28q218 22 275 36q95 24 104 77q1 7 1 15q0 253 -258 253q-126 0 -207 -54.5t-110 -140.5l-338 48
q59 207 231.5 315.5t424.5 108.5q169 0 284.5 -60.5t168.5 -162.5q176 223 489 223q115 0 217.5 -28.5t192 -90t153.5 -151t101 -219t37 -287.5v-96l-1067 -61q19 -176 121 -273.5t269 -97.5q120 0 204 50.5t120 147.5l339 -38q-49 -203 -226 -322.5t-442 -119.5zM722 235
q159 0 257.5 92t98.5 224v181q-44 -36 -332 -75q-283 -40 -283 -220q0 -97 71 -149.5t188 -52.5zM1395 866l721 47q-1 158 -97.5 259.5t-250.5 101.5q-158 0 -260.5 -109.5t-112.5 -298.5zM1750 2001v-221h-966v221h966z" />
    <glyph glyph-name="uni01E4" unicode="&#x1e4;" horiz-adv-x="2143" 
d="M155 1022q0 243 70.5 442.5t195 333t295.5 206t372 72.5q224 0 411 -86t307 -241.5t151 -354.5h-381q-53 165 -178.5 257t-309.5 92q-252 0 -406 -190t-154 -527q0 -343 156.5 -532t418.5 -189q153 0 273.5 67.5t180.5 188.5v49h21q29 79 29 172h-464v290h831v-246
q0 -259 -112.5 -454t-310 -297.5t-450.5 -102.5q-210 0 -385.5 73.5t-299.5 208t-192.5 331.5t-68.5 437z" />
    <glyph glyph-name="uni01E5" unicode="&#x1e5;" horiz-adv-x="1759" 
d="M815 -590q-239 0 -395.5 80t-243.5 212l250 188q156 -190 391 -190q174 0 289 93t113 253v230h-21q-24 -48 -57 -88.5t-85 -80t-129 -62.5t-171 -23q-134 0 -248.5 47.5t-200.5 139t-135 236.5t-49 328q0 185 49 334.5t135 247t201 149.5t249 52q305 0 441 -274h20v254
h356v-639h300v-229h-300v-635q0 -292 -207.5 -457.5t-551.5 -165.5zM857 306q150 0 241.5 95t113.5 267h-296v229h294q-24 170 -115 266t-238 96q-175 0 -270 -133.5t-95 -350.5t94.5 -343t270.5 -126z" />
    <glyph glyph-name="uni01E6" unicode="&#x1e6;" horiz-adv-x="2126" 
d="M150 1022q0 243 70.5 442.5t195 333t295.5 206t372 72.5q224 0 411 -86t307 -241.5t151 -354.5h-381q-53 165 -178.5 257t-309.5 92q-252 0 -406 -190t-154 -527q0 -343 156.5 -532t418.5 -189q142 0 256.5 58t181 167.5t66.5 251.5h-464v290h831v-246
q0 -259 -112.5 -454t-310 -297.5t-450.5 -102.5q-210 0 -385.5 73.5t-299.5 208t-192.5 331.5t-68.5 437zM856 2585l226 -208l224 208h296v-14l-412 -384h-220l-412 384v14h298z" />
    <glyph glyph-name="uni01E7" unicode="&#x1e7;" horiz-adv-x="1759" 
d="M815 -590q-239 0 -395.5 80t-243.5 212l250 188q156 -190 391 -190q174 0 289 93t113 253v230h-21q-24 -48 -57 -88.5t-85 -80t-129 -62.5t-171 -23q-134 0 -248.5 47.5t-200.5 139t-135 236.5t-49 328q0 185 49 334.5t135 247t201 149.5t249 52q305 0 441 -274h20v254
h356v-1503q0 -292 -207.5 -457.5t-551.5 -165.5zM857 306q172 0 266.5 124t94.5 345q0 222 -94.5 353t-266.5 131q-175 0 -270 -133.5t-95 -350.5t94.5 -343t270.5 -126zM659 2113l226 -208l224 208h296v-14l-412 -384h-220l-412 384v14h298z" />
    <glyph glyph-name="uni01E8" unicode="&#x1e8;" horiz-adv-x="1906" 
d="M202 0v2048h371v-941h25l799 941h453l-792 -919l799 -1129h-446l-611 878l-227 -268v-610h-371zM730 2585l226 -208l224 208h296v-14l-412 -384h-220l-412 384v14h298z" />
    <glyph glyph-name="uni01E9" unicode="&#x1e9;" horiz-adv-x="1602" 
d="M186 0v2048h362v-1129h25l552 617h423l-595 -663l630 -873h-433l-470 657l-132 -141v-516h-362zM142 2585l226 -208l224 208h296v-14l-412 -384h-220l-412 384v14h298z" />
    <glyph glyph-name="uni01EA" unicode="&#x1ea;" horiz-adv-x="2182" 
d="M2032 1024q0 -412 -194.5 -682t-516.5 -344q-105 -59 -161.5 -116.5t-56.5 -129.5q0 -100 99 -100q49 0 115 28l36 -204q-103 -60 -224 -60q-131 0 -216.5 69t-100.5 195q-11 81 14 161t85 146q-167 29 -306.5 113t-241 214.5t-157.5 312.5t-56 397q0 243 71.5 442.5
t197.5 332.5t298 205t374 72q201 0 373.5 -72t298.5 -205t197.5 -332.5t71.5 -442.5zM1659 1024q0 342 -155.5 530.5t-412.5 188.5q-256 0 -412 -188.5t-156 -530.5t156 -530.5t412 -188.5q257 0 412.5 188.5t155.5 530.5z" />
    <glyph glyph-name="uni01EB" unicode="&#x1eb;" horiz-adv-x="1718" 
d="M895 -582q-131 0 -216.5 69t-100.5 195q-23 173 99 307q-258 56 -406 262t-148 511q0 236 90 416t257 279t389 99t389.5 -99t257 -279t89.5 -416q0 -291 -135 -492.5t-373 -269.5h1q-106 -59 -162.5 -116.5t-56.5 -129.5q0 -100 99 -100q49 0 115 28l36 -204
q-103 -60 -224 -60zM861 260q119 0 203 68t124 179.5t40 255.5t-39.5 256t-124 181t-203.5 69q-91 0 -162.5 -39.5t-116.5 -108.5t-68.5 -160t-23.5 -198q0 -144 40 -255.5t125 -179.5t206 -68z" />
    <glyph glyph-name="uni01EC" unicode="&#x1ec;" horiz-adv-x="2182" 
d="M2032 1024q0 -412 -194.5 -682t-516.5 -344q-105 -59 -161.5 -116.5t-56.5 -129.5q0 -100 99 -100q49 0 115 28l36 -204q-103 -60 -224 -60q-131 0 -216.5 69t-100.5 195q-11 81 14 161t85 146q-167 29 -306.5 113t-241 214.5t-157.5 312.5t-56 397q0 243 71.5 442.5
t197.5 332.5t298 205t374 72q201 0 373.5 -72t298.5 -205t197.5 -332.5t71.5 -442.5zM1659 1024q0 342 -155.5 530.5t-412.5 188.5q-256 0 -412 -188.5t-156 -530.5t156 -530.5t412 -188.5q257 0 412.5 188.5t155.5 530.5zM1575 2474v-221h-966v221h966z" />
    <glyph glyph-name="uni01ED" unicode="&#x1ed;" horiz-adv-x="1718" 
d="M895 -582q-131 0 -216.5 69t-100.5 195q-23 173 99 307q-258 56 -406 262t-148 511q0 236 90 416t257 279t389 99t389.5 -99t257 -279t89.5 -416q0 -291 -135 -492.5t-373 -269.5h1q-106 -59 -162.5 -116.5t-56.5 -129.5q0 -100 99 -100q49 0 115 28l36 -204
q-103 -60 -224 -60zM861 260q119 0 203 68t124 179.5t40 255.5t-39.5 256t-124 181t-203.5 69q-91 0 -162.5 -39.5t-116.5 -108.5t-68.5 -160t-23.5 -198q0 -144 40 -255.5t125 -179.5t206 -68zM1343 2002v-221h-966v221h966z" />
    <glyph glyph-name="uni01EE" unicode="&#x1ee;" horiz-adv-x="1894" 
d="M910 -576q-223 0 -404.5 90t-287 253t-106.5 367h378q16 -162 132 -271t297 -109q141 0 252.5 67.5t173 184t61.5 259.5q0 226 -153.5 364.5t-425.5 138.5h-274v273l601 680v16h-1019v311h1515l1 -254l-699 -772v-16q237 -7 424 -108t291.5 -275t104.5 -390
q0 -228 -115 -414t-312.5 -290.5t-434.5 -104.5zM705 2585l226 -208l224 208h296v-14l-412 -384h-220l-412 384v14h298z" />
    <glyph glyph-name="uni01EF" unicode="&#x1ef;" horiz-adv-x="1833" 
d="M166 45h376q16 -122 119.5 -198t256.5 -76q164 0 267.5 88.5t103.5 228.5q0 149 -106 243t-277 94h-229v267l480 523v16h-862v305h1323l1 -254l-560 -606v-16q295 -34 454 -195.5t157 -395.5q1 -131 -55 -244.5t-155.5 -193.5t-240.5 -125.5t-305 -45.5
q-317 0 -524.5 163t-223.5 422zM695 2113l226 -208l224 208h296v-14l-412 -384h-220l-412 384v14h298z" />
    <glyph glyph-name="uni01F0" unicode="&#x1f0;" horiz-adv-x="734" 
d="M186 1536h362v-1613q0 -244 -143.5 -371.5t-395.5 -127.5h-114v298h73q119 0 168.5 53t49.5 153v1608zM140 2113l226 -208l224 208h296v-14l-412 -384h-220l-412 384v14h298z" />
    <glyph glyph-name="uni01F1" unicode="&#x1f1;" horiz-adv-x="3878" 
d="M896 0h-694v2048h708q458 0 719 -272t261 -750q0 -481 -263.5 -753.5t-730.5 -272.5zM2204 0v231l1050 1506h-1056v311h1516v-231l-1049 -1506h1055v-311h-1516zM573 321h305q644 0 644 705q0 350 -160 525.5t-473 175.5h-316v-1406z" />
    <glyph glyph-name="uni01F2" unicode="&#x1f2;" horiz-adv-x="3622" 
d="M896 0h-694v2048h708q458 0 719 -272t261 -750q0 -481 -263.5 -753.5t-730.5 -272.5zM573 321h305q644 0 644 705q0 350 -160 525.5t-473 175.5h-316v-1406zM2206 0v230l792 993v13h-790v300h1233v-247l-754 -976v-13h773v-300h-1254z" />
    <glyph glyph-name="uni01F4" unicode="&#x1f4;" horiz-adv-x="2126" 
d="M150 1022q0 243 70.5 442.5t195 333t295.5 206t372 72.5q224 0 411 -86t307 -241.5t151 -354.5h-381q-53 165 -178.5 257t-309.5 92q-252 0 -406 -190t-154 -527q0 -343 156.5 -532t418.5 -189q142 0 256.5 58t181 167.5t66.5 251.5h-464v290h831v-246
q0 -259 -112.5 -454t-310 -297.5t-450.5 -102.5q-210 0 -385.5 73.5t-299.5 208t-192.5 331.5t-68.5 437zM917 2179l262 449h391l-352 -449h-301z" />
    <glyph glyph-name="uni01F5" unicode="&#x1f5;" horiz-adv-x="1759" 
d="M815 -590q-239 0 -395.5 80t-243.5 212l250 188q156 -190 391 -190q174 0 289 93t113 253v230h-21q-24 -48 -57 -88.5t-85 -80t-129 -62.5t-171 -23q-134 0 -248.5 47.5t-200.5 139t-135 236.5t-49 328q0 185 49 334.5t135 247t201 149.5t249 52q305 0 441 -274h20v254
h356v-1503q0 -292 -207.5 -457.5t-551.5 -165.5zM857 306q172 0 266.5 124t94.5 345q0 222 -94.5 353t-266.5 131q-175 0 -270 -133.5t-95 -350.5t94.5 -343t270.5 -126zM720 1707l262 449h391l-352 -449h-301z" />
    <glyph glyph-name="uni01F6" unicode="&#x1f6;" horiz-adv-x="3154" 
d="M202 0v2048h371v-867h949v867h372v-1373q0 -189 92.5 -286.5t262.5 -97.5q169 0 258.5 97t89.5 287v834h371v-834q0 -336 -194 -519.5t-525 -183.5q-335 0 -531 184.5t-196 518.5v195h-949v-870h-371z" />
    <glyph glyph-name="uni01F7" unicode="&#x1f7;" horiz-adv-x="1997" 
d="M594 2004v-49q152 77 352 77q258 0 446.5 -98t293.5 -294.5t105 -475.5v-72q-1 -445 -323 -795t-874 -507v-362h-385v2576h385zM594 108q160 54 292.5 135t226.5 176.5t159 207t96.5 228t31.5 237.5v76q0 101 -13.5 182t-46 152t-83.5 118.5t-129.5 74.5t-181.5 27
q-220 0 -352 -153v-1461z" />
    <glyph glyph-name="uni01F8" unicode="&#x1f8;" horiz-adv-x="2086" 
d="M1885 2048v-2048h-330l-965 1395h-17v-1395h-371v2048h332l964 -1396h18v1396h369zM959 2605l275 -421h-308l-382 421h415z" />
    <glyph glyph-name="uni01F9" unicode="&#x1f9;" horiz-adv-x="1717" 
d="M548 900v-900h-362v1536h346v-261h18q54 132 171.5 206.5t286.5 74.5q241 0 384 -153t142 -425v-978h-362v922q0 154 -79.5 241t-219.5 87q-146 0 -235.5 -93t-89.5 -257zM774 2133l275 -421h-308l-382 421h415z" />
    <glyph glyph-name="uni01FA" unicode="&#x1fa;" horiz-adv-x="2038" 
d="M465 0h-396l721 2048h458l722 -2048h-396l-170 505h-770zM734 803h570l-277 825h-16zM1020 2105q-102 0 -175 70t-73 169q0 98 73 168t175 70q103 0 175 -69.5t72 -168.5t-72 -169t-175 -70zM889 2667l248 275h341l-358 -275h-231zM1020 2248q41 0 69 28t28 68
q0 37 -28 64.5t-69 27.5q-40 0 -69 -28t-29 -64q0 -39 29 -67.5t69 -28.5z" />
    <glyph glyph-name="uni01FB" unicode="&#x1fb;" horiz-adv-x="1618" 
d="M628 -31q-149 0 -263.5 51.5t-182.5 157.5t-68 253q0 100 33 178t85.5 127t131.5 83.5t157 51t176 27.5l27 3q211 23 268 41q72 23 83 73q2 12 2 25q-1 115 -67.5 177t-192.5 62q-125 0 -205.5 -55t-109.5 -140l-338 48q59 207 231.5 315.5t424.5 108.5q91 0 175 -15.5
t166 -54t142.5 -97t98 -151.5t37.5 -210v-1028h-348v211h-12q-54 -106 -168 -174t-283 -68zM722 235q159 0 257.5 92t98.5 224v181q-44 -36 -332 -75q-283 -40 -283 -220q0 -97 71 -149.5t188 -52.5zM828 1633q-102 0 -175 70t-73 169q0 98 73 168t175 70q103 0 175 -69.5
t72 -168.5t-72 -169t-175 -70zM697 2195l248 275h341l-358 -275h-231zM828 1776q41 0 69 28t28 68q0 37 -28 64.5t-69 27.5q-40 0 -69 -28t-29 -64q0 -39 29 -67.5t69 -28.5z" />
    <glyph glyph-name="uni01FC" unicode="&#x1fc;" horiz-adv-x="2863" 
d="M69 0l915 2048h1702v-311h-961v-556h892v-311h-892v-559h969v-311h-1340v505h-658l-219 -505h-408zM825 803h529v887h-145zM1671 2179l262 449h391l-352 -449h-301z" />
    <glyph glyph-name="uni01FD" unicode="&#x1fd;" horiz-adv-x="2586" 
d="M1781 -30q-412 0 -583 313h-13q-19 -53 -67 -107t-118 -101t-168 -76.5t-204 -29.5q-148 0 -263 52t-183 158t-68 252q0 100 33 177t85.5 126.5t131 84t157 51.5t176.5 28q218 22 275 36q95 24 104 77q1 7 1 15q0 253 -258 253q-126 0 -207 -54.5t-110 -140.5l-338 48
q59 207 231.5 315.5t424.5 108.5q169 0 284.5 -60.5t168.5 -162.5q176 223 489 223q115 0 217.5 -28.5t192 -90t153.5 -151t101 -219t37 -287.5v-96l-1067 -61q19 -176 121 -273.5t269 -97.5q120 0 204 50.5t120 147.5l339 -38q-49 -203 -226 -322.5t-442 -119.5zM722 235
q159 0 257.5 92t98.5 224v181q-44 -36 -332 -75q-283 -40 -283 -220q0 -97 71 -149.5t188 -52.5zM1395 866l721 47q-1 158 -97.5 259.5t-250.5 101.5q-158 0 -260.5 -109.5t-112.5 -298.5zM1102 1706l262 449h391l-352 -449h-301z" />
    <glyph glyph-name="uni01FE" unicode="&#x1fe;" horiz-adv-x="2182" 
d="M453 -94l-181 124l150 217q-130 139 -201 336t-71 441q0 243 71.5 442.5t197.5 332.5t298 205t374 72q280 0 498 -135l136 197l181 -124l-146 -212q130 -139 201 -336t71 -442q0 -243 -71.5 -442.5t-197.5 -332.5t-298.5 -205t-373.5 -72q-280 0 -499 136zM1659 1024
q0 283 -112 469l-759 -1100q130 -88 303 -88q257 0 412.5 188.5t155.5 530.5zM635 556l758 1100q-129 87 -302 87q-256 0 -412 -188.5t-156 -530.5q0 -282 112 -468zM927 2179l262 449h391l-352 -449h-301z" />
    <glyph glyph-name="uni01FF" unicode="&#x1ff;" horiz-adv-x="1715" 
d="M399 -94l-181 124l106 154q-201 217 -201 576q0 236 90 416t257 279t389 99q197 0 353 -79l99 143l183 -124l-105 -152q206 -217 206 -582q0 -236 -89.5 -415.5t-257 -278t-389.5 -98.5q-202 0 -360 83zM861 258q119 0 203 68t124 179.5t40 255.5q0 158 -49 277
l-502 -729q79 -51 184 -51zM536 492l500 727q-76 48 -175 48q-91 0 -162.5 -39.5t-116.5 -108.5t-68.5 -160t-23.5 -198q0 -153 46 -269zM695 1706l262 449h391l-352 -449h-301z" />
    <glyph glyph-name="uni0200" unicode="&#x200;" horiz-adv-x="2038" 
d="M465 0h-396l721 2048h458l722 -2048h-396l-170 505h-770zM734 803h570l-277 825h-16zM973 2202h-314l-414 364h385zM1420 2202h-300l-343 364h372z" />
    <glyph glyph-name="uni0201" unicode="&#x201;" horiz-adv-x="1618" 
d="M628 -31q-149 0 -263.5 51.5t-182.5 157.5t-68 253q0 100 33 178t85.5 127t131.5 83.5t157 51t176 27.5l27 3q211 23 268 41q72 23 83 73q2 12 2 25q-1 115 -67.5 177t-192.5 62q-125 0 -205.5 -55t-109.5 -140l-338 48q59 207 231.5 315.5t424.5 108.5q91 0 175 -15.5
t166 -54t142.5 -97t98 -151.5t37.5 -210v-1028h-348v211h-12q-54 -106 -168 -174t-283 -68zM722 235q159 0 257.5 92t98.5 224v181q-44 -36 -332 -75q-283 -40 -283 -220q0 -97 71 -149.5t188 -52.5zM782 1730h-314l-414 364h385zM1229 1730h-300l-343 364h372z" />
    <glyph glyph-name="uni0202" unicode="&#x202;" horiz-adv-x="2038" 
d="M465 0h-396l721 2048h458l722 -2048h-396l-170 505h-770zM551 2238q-1 178 127 289.5t342 111.5q213 0 340 -111.5t128 -289.5h-272q0 81 -48.5 133.5t-147.5 52.5q-102 0 -150.5 -53t-47.5 -133h-271zM734 803h570l-277 825h-16z" />
    <glyph glyph-name="uni0203" unicode="&#x203;" horiz-adv-x="1618" 
d="M628 -31q-149 0 -263.5 51.5t-182.5 157.5t-68 253q0 100 33 178t85.5 127t131.5 83.5t157 51t176 27.5l27 3q211 23 268 41q72 23 83 73q2 12 2 25q-1 115 -67.5 177t-192.5 62q-125 0 -205.5 -55t-109.5 -140l-338 48q59 207 231.5 315.5t424.5 108.5q91 0 175 -15.5
t166 -54t142.5 -97t98 -151.5t37.5 -210v-1028h-348v211h-12q-54 -106 -168 -174t-283 -68zM360 1766q-1 178 127 289.5t342 111.5q213 0 340 -111.5t128 -289.5h-272q0 81 -48.5 133.5t-147.5 52.5q-102 0 -150.5 -53t-47.5 -133h-271zM722 235q159 0 257.5 92t98.5 224
v181q-44 -36 -332 -75q-283 -40 -283 -220q0 -97 71 -149.5t188 -52.5z" />
    <glyph glyph-name="uni0204" unicode="&#x204;" horiz-adv-x="1711" 
d="M202 0v2048h1332v-311h-961v-556h892v-311h-892v-559h969v-311h-1340zM811 2202h-314l-414 364h385zM1258 2202h-300l-343 364h372z" />
    <glyph glyph-name="uni0205" unicode="&#x205;" horiz-adv-x="1675" 
d="M870 -30q-347 0 -547 213t-200 576q0 235 89.5 416t255 281t382.5 100q145 0 269.5 -46.5t222.5 -138.5t154 -243.5t56 -347.5v-111h-1070q2 -195 108.5 -306t283.5 -111q119 0 204 51t121 147l339 -38q-49 -203 -226 -322.5t-442 -119.5zM483 913h722q-1 158 -98 259.5
t-252 101.5q-158 0 -260.5 -104.5t-111.5 -256.5zM794 1730h-314l-414 364h385zM1241 1730h-300l-343 364h372z" />
    <glyph glyph-name="uni0206" unicode="&#x206;" horiz-adv-x="1711" 
d="M202 0v2048h1332v-311h-961v-556h892v-311h-892v-559h969v-311h-1340zM389 2238q-1 178 127 289.5t342 111.5q213 0 340 -111.5t128 -289.5h-272q0 81 -48.5 133.5t-147.5 52.5q-102 0 -150.5 -53t-47.5 -133h-271z" />
    <glyph glyph-name="uni0207" unicode="&#x207;" horiz-adv-x="1675" 
d="M870 -30q-347 0 -547 213t-200 576q0 235 89.5 416t255 281t382.5 100q145 0 269.5 -46.5t222.5 -138.5t154 -243.5t56 -347.5v-111h-1070q2 -195 108.5 -306t283.5 -111q119 0 204 51t121 147l339 -38q-49 -203 -226 -322.5t-442 -119.5zM372 1766q-1 178 127 289.5
t342 111.5q213 0 340 -111.5t128 -289.5h-272q0 81 -48.5 133.5t-147.5 52.5q-102 0 -150.5 -53t-47.5 -133h-271zM483 913h722q-1 158 -98 259.5t-252 101.5q-158 0 -260.5 -104.5t-111.5 -256.5z" />
    <glyph glyph-name="uni0208" unicode="&#x208;" horiz-adv-x="774" 
d="M573 2048v-2048h-371v2048h371zM342 2202h-314l-414 364h385zM789 2202h-300l-343 364h372z" />
    <glyph glyph-name="uni0209" unicode="&#x209;" horiz-adv-x="734" 
d="M186 0v1536h362v-1536h-362zM322 1730h-314l-414 364h385zM769 1730h-300l-343 364h372z" />
    <glyph glyph-name="uni020A" unicode="&#x20a;" horiz-adv-x="774" 
d="M573 2048v-2048h-371v2048h371zM-80 2238q-1 178 127 289.5t342 111.5q213 0 340 -111.5t128 -289.5h-272q0 81 -48.5 133.5t-147.5 52.5q-102 0 -150.5 -53t-47.5 -133h-271z" />
    <glyph glyph-name="uni020B" unicode="&#x20b;" horiz-adv-x="734" 
d="M186 0v1536h362v-1536h-362zM-100 1766q-1 178 127 289.5t342 111.5q213 0 340 -111.5t128 -289.5h-272q0 81 -48.5 133.5t-147.5 52.5q-102 0 -150.5 -53t-47.5 -133h-271z" />
    <glyph glyph-name="uni020C" unicode="&#x20c;" horiz-adv-x="2182" 
d="M2032 1024q0 -243 -71.5 -442.5t-197.5 -332.5t-298.5 -205t-373.5 -72q-202 0 -374 72t-298 205t-197.5 332.5t-71.5 442.5t71.5 442.5t197.5 332.5t298 205t374 72q201 0 373.5 -72t298.5 -205t197.5 -332.5t71.5 -442.5zM1659 1024q0 342 -155.5 530.5t-412.5 188.5
q-256 0 -412 -188.5t-156 -530.5t156 -530.5t412 -188.5q257 0 412.5 188.5t155.5 530.5zM1045 2202h-314l-414 364h385zM1492 2202h-300l-343 364h372z" />
    <glyph glyph-name="uni020D" unicode="&#x20d;" horiz-adv-x="1718" 
d="M859 -30q-335 0 -535.5 217t-200.5 575q0 236 90 416t257 279t389 99t389.5 -99t257 -279t89.5 -416t-89.5 -415.5t-257 -278t-389.5 -98.5zM861 260q119 0 203 68t124 179.5t40 255.5t-39.5 256t-124 181t-203.5 69q-91 0 -162.5 -39.5t-116.5 -108.5t-68.5 -160
t-23.5 -198q0 -144 40 -255.5t125 -179.5t206 -68zM813 1730h-314l-414 364h385zM1260 1730h-300l-343 364h372z" />
    <glyph glyph-name="uni020E" unicode="&#x20e;" horiz-adv-x="2182" 
d="M2032 1024q0 -243 -71.5 -442.5t-197.5 -332.5t-298.5 -205t-373.5 -72q-202 0 -374 72t-298 205t-197.5 332.5t-71.5 442.5t71.5 442.5t197.5 332.5t298 205t374 72q201 0 373.5 -72t298.5 -205t197.5 -332.5t71.5 -442.5zM1659 1024q0 342 -155.5 530.5t-412.5 188.5
q-256 0 -412 -188.5t-156 -530.5t156 -530.5t412 -188.5q257 0 412.5 188.5t155.5 530.5zM623 2238q-1 178 127 289.5t342 111.5q213 0 340 -111.5t128 -289.5h-272q0 81 -48.5 133.5t-147.5 52.5q-102 0 -150.5 -53t-47.5 -133h-271z" />
    <glyph glyph-name="uni020F" unicode="&#x20f;" horiz-adv-x="1718" 
d="M859 -30q-335 0 -535.5 217t-200.5 575q0 236 90 416t257 279t389 99t389.5 -99t257 -279t89.5 -416t-89.5 -415.5t-257 -278t-389.5 -98.5zM861 260q119 0 203 68t124 179.5t40 255.5t-39.5 256t-124 181t-203.5 69q-91 0 -162.5 -39.5t-116.5 -108.5t-68.5 -160
t-23.5 -198q0 -144 40 -255.5t125 -179.5t206 -68zM391 1766q-1 178 127 289.5t342 111.5q213 0 340 -111.5t128 -289.5h-272q0 81 -48.5 133.5t-147.5 52.5q-102 0 -150.5 -53t-47.5 -133h-271z" />
    <glyph glyph-name="uni0210" unicode="&#x210;" horiz-adv-x="1843" 
d="M202 0v2048h790q333 0 521.5 -173.5t188.5 -469.5q0 -200 -95.5 -348.5t-272.5 -224.5l444 -832h-414l-405 770h-386v-770h-371zM573 1061h376q184 0 278.5 89t94.5 248q0 160 -93 250t-263 90h-393v-677zM847 2202h-314l-414 364h385zM1294 2202h-300l-343 364h372z" />
    <glyph glyph-name="uni0211" unicode="&#x211;" horiz-adv-x="1165" 
d="M186 0v1536h351v-256h16q41 132 142.5 205t236.5 73q117 0 206 -56l-112 -300q-69 32 -143 32q-143 0 -239 -93.5t-96 -237.5v-903h-362zM569 1730h-314l-414 364h385zM1016 1730h-300l-343 364h372z" />
    <glyph glyph-name="uni0212" unicode="&#x212;" horiz-adv-x="1843" 
d="M202 0v2048h790q333 0 521.5 -173.5t188.5 -469.5q0 -200 -95.5 -348.5t-272.5 -224.5l444 -832h-414l-405 770h-386v-770h-371zM573 1061h376q184 0 278.5 89t94.5 248q0 160 -93 250t-263 90h-393v-677zM425 2238q-1 178 127 289.5t342 111.5q213 0 340 -111.5
t128 -289.5h-272q0 81 -48.5 133.5t-147.5 52.5q-102 0 -150.5 -53t-47.5 -133h-271z" />
    <glyph glyph-name="uni0213" unicode="&#x213;" horiz-adv-x="1165" 
d="M186 0v1536h351v-256h16q41 132 142.5 205t236.5 73q117 0 206 -56l-112 -300q-69 32 -143 32q-143 0 -239 -93.5t-96 -237.5v-903h-362zM176 1766q-1 178 127 289.5t342 111.5q213 0 340 -111.5t128 -289.5h-272q0 81 -48.5 133.5t-147.5 52.5q-102 0 -150.5 -53
t-47.5 -133h-271z" />
    <glyph glyph-name="uni0214" unicode="&#x214;" horiz-adv-x="2066" 
d="M1494 2048h370v-1354q0 -137 -41 -253.5t-115.5 -202.5t-177.5 -147t-229 -91.5t-268 -30.5q-179 0 -330.5 48.5t-263 139.5t-174.5 229t-63 308v1354h371v-1345q0 -123 61.5 -215t165 -138.5t233.5 -46.5t233.5 46.5t165.5 138.5t62 215v1345zM987 2202h-314l-414 364
h385zM1434 2202h-300l-343 364h372z" />
    <glyph glyph-name="uni0215" unicode="&#x215;" horiz-adv-x="1713" 
d="M1165 646v890h362v-1536h-351v273h-16q-54 -134 -174.5 -213.5t-287.5 -79.5q-231 0 -371.5 153t-140.5 425v978h362v-922q0 -146 79.5 -232t210.5 -86q61 0 118.5 22.5t104.5 64.5t75.5 110.5t28.5 152.5zM812 1730h-314l-414 364h385zM1259 1730h-300l-343 364h372z
" />
    <glyph glyph-name="uni0216" unicode="&#x216;" horiz-adv-x="2066" 
d="M1494 2048h370v-1354q0 -137 -41 -253.5t-115.5 -202.5t-177.5 -147t-229 -91.5t-268 -30.5q-179 0 -330.5 48.5t-263 139.5t-174.5 229t-63 308v1354h371v-1345q0 -123 61.5 -215t165 -138.5t233.5 -46.5t233.5 46.5t165.5 138.5t62 215v1345zM565 2238
q-1 178 127 289.5t342 111.5q213 0 340 -111.5t128 -289.5h-272q0 81 -48.5 133.5t-147.5 52.5q-102 0 -150.5 -53t-47.5 -133h-271z" />
    <glyph glyph-name="uni0217" unicode="&#x217;" horiz-adv-x="1713" 
d="M1165 646v890h362v-1536h-351v273h-16q-54 -134 -174.5 -213.5t-287.5 -79.5q-231 0 -371.5 153t-140.5 425v978h362v-922q0 -146 79.5 -232t210.5 -86q61 0 118.5 22.5t104.5 64.5t75.5 110.5t28.5 152.5zM391 1766q-1 178 127 289.5t342 111.5q213 0 340 -111.5
t128 -289.5h-272q0 81 -48.5 133.5t-147.5 52.5q-102 0 -150.5 -53t-47.5 -133h-271z" />
    <glyph glyph-name="uni0218" unicode="&#x218;" horiz-adv-x="1828" 
d="M1315 1485q-14 130 -117 203.5t-269 73.5q-171 0 -270.5 -74.5t-100.5 -192.5q-1 -61 28.5 -109.5t83.5 -81.5t109 -53.5t127 -37.5l192 -48q98 -23 181.5 -55t163 -82t134.5 -112.5t89 -150t34 -190.5q-1 -275 -207.5 -440.5t-569.5 -165.5q-361 0 -572.5 166.5
t-222.5 469.5h365q11 -156 128 -237.5t299 -81.5t295 80.5t114 211.5q0 77 -48.5 132.5t-123.5 88t-196 63.5l-233 60q-546 141 -546 550q0 178 98 316.5t269 213t385 74.5q215 0 382 -75.5t260 -209.5t96 -306h-357zM1067 -143v-183q-2 -161 -47 -307t-136 -253l-217 81
q56 123 85.5 228.5t28.5 233.5v200h286z" />
    <glyph glyph-name="uni0219" unicode="&#x219;" horiz-adv-x="1546" 
d="M1400 1130l-330 -36q-23 83 -94.5 137.5t-188.5 54.5q-114 0 -190 -49.5t-75 -126.5q-1 -67 50 -109.5t167 -68.5l262 -56q218 -47 324.5 -149.5t107.5 -266.5q-1 -218 -184 -354t-472 -136q-281 0 -453 118t-206 331l353 34q23 -103 101.5 -156.5t203.5 -53.5
q127 0 206.5 52t79.5 132q0 129 -207 175l-262 55q-434 90 -432 433q0 140 77.5 246t218.5 163t325 57q264 0 422 -113t196 -313zM936 -121v-183q-2 -161 -47 -307t-136 -253l-217 81q56 123 85.5 228.5t28.5 233.5v200h286z" />
    <glyph glyph-name="uni021A" unicode="&#x21a;" horiz-adv-x="1858" 
d="M112 1737v311h1634v-311h-633v-1737h-368v1737h-633zM1075 -121v-183q-2 -161 -47 -307t-136 -253l-217 81q56 123 85.5 228.5t28.5 233.5v200h286z" />
    <glyph glyph-name="uni021B" unicode="&#x21b;" horiz-adv-x="1080" 
d="M953 1536v-280h-303v-792q-1 -101 43 -139.5t121 -38.5q36 0 106 14l61 -282q-94 -34 -213 -36q-213 -7 -347 103t-133 320v851h-218v280h218v368h362v-368h303zM749 -121v-183q-2 -161 -47 -307t-136 -253l-217 81q56 123 85.5 228.5t28.5 233.5v200h286z" />
    <glyph glyph-name="uni021C" unicode="&#x21c;" horiz-adv-x="1850" 
d="M318 426v287q176 52 306 98t239.5 97.5t181.5 104t122.5 116t72.5 135.5t22 160q0 135 -90 215.5t-276 80.5q-139 0 -236.5 -69.5t-97.5 -185.5h-385q0 130 58.5 238t158 178.5t229 109.5t273.5 39q347 0 548 -148t201 -422q0 -300 -227 -525q124 -69 190.5 -188
t66.5 -281q0 -184 -66.5 -339.5t-184.5 -271.5t-290 -206.5t-373 -150t-443 -98.5v306q482 94 726 279.5t244 487.5q0 111 -27 177.5t-83 100.5q-315 -191 -860 -325z" />
    <glyph glyph-name="uni021D" unicode="&#x21d;" horiz-adv-x="1589" 
d="M326 238v270q125 37 222.5 73.5t188.5 85.5t150 102.5t94.5 122.5t35.5 148q-1 86 -53.5 140t-170.5 54q-109 0 -178.5 -47t-68.5 -125h-372q0 137 82 241.5t218 158.5t303 54q284 0 447.5 -113t164.5 -323q0 -237 -182 -424q209 -125 210 -398q-1 -669 -1091 -858v278
q149 45 254.5 86t197.5 93t147.5 111.5t86.5 137t31 172.5q-1 128 -59 208q-253 -148 -658 -248z" />
    <glyph glyph-name="uni021E" unicode="&#x21e;" horiz-adv-x="2095" 
d="M202 0v2048h371v-867h949v867h372v-2048h-372v870h-949v-870h-371zM828 2587l226 -208l224 208h296v-14l-412 -384h-220l-412 384v14h298z" />
    <glyph glyph-name="uni021F" unicode="&#x21f;" horiz-adv-x="1726" 
d="M548 900v-900h-362v2048h354v-773h18q55 134 169.5 207.5t287.5 73.5q243 0 386 -152t143 -426v-978h-362v922q0 155 -79.5 241.5t-222.5 86.5q-149 0 -240.5 -93.5t-91.5 -256.5zM139 2585l226 -208l224 208h296v-14l-412 -384h-220l-412 384v14h298z" />
    <glyph glyph-name="uni0220" unicode="&#x220;" horiz-adv-x="1853" 
d="M1675 -572h-375v1966q0 167 -91.5 252.5t-272.5 85.5q-207 0 -383 -109v-1623h-371v2004h371v-78q195 106 415 106q145 0 272.5 -42t224.5 -121t153.5 -201.5t56.5 -273.5v-1966z" />
    <glyph glyph-name="uni0221" unicode="&#x221;" horiz-adv-x="2022" 
d="M1576 149q75 14 148 14q217 0 345.5 -104t128.5 -276q0 -166 -123.5 -262.5t-348.5 -96.5q-334 0 -456 222l-227 -197l-174 221l341 298v274h-11q-137 -269 -440 -269q-136 0 -251.5 53.5t-200.5 152.5t-133 250t-48 337q0 187 49 338.5t135 249.5t201 150t249 52
q303 0 439 -274h15v766h362v-1899zM1221 768q0 227 -94.5 359t-266.5 132q-118 0 -201 -63.5t-123.5 -173t-40.5 -254.5q0 -223 95.5 -360.5t269.5 -137.5q171 0 266 135.5t95 362.5zM1574 -115v-51q0 -83 45.5 -127.5t113.5 -44.5q61 0 100 36t39 92t-37 92.5t-107 40.5
q-70 6 -154 -38z" />
    <glyph glyph-name="uni0222" unicode="&#x222;" horiz-adv-x="1851" 
d="M903 1288h45q88 0 155 11.5t119.5 38t80 74t27.5 115.5q0 92 -47.5 138t-149.5 71v296q129 -2 234.5 -33.5t185 -92.5t123.5 -157.5t44 -221.5q0 -278 -251 -412q247 -165 248 -488q0 -158 -59 -283.5t-163.5 -206t-245 -123t-307.5 -42.5h-30q-168 0 -309.5 42.5
t-246 123t-163.5 205t-59 280.5q0 325 249 492q-249 133 -249 412q0 125 44 221.5t123 157.5t184.5 92.5t234.5 33.5v-296q-103 -24 -149.5 -70t-46.5 -139q0 -129 97 -184t282 -55zM942 974h-30q-181 0 -284.5 -91.5t-103.5 -259.5q0 -164 103 -252.5t285 -88.5h30
q183 0 284 88.5t101 256.5q0 165 -101.5 256t-283.5 91z" />
    <glyph glyph-name="uni0223" unicode="&#x223;" horiz-adv-x="1850" 
d="M946 1263q91 0 160 15.5t122.5 50t81.5 94.5t28 144q0 118 -53 186t-154 105v282q258 -5 417.5 -152.5t159.5 -415.5q0 -320 -251 -464q251 -161 251 -487q0 -157 -57.5 -281.5t-160.5 -204.5t-242.5 -121.5t-306.5 -41.5h-31q-167 0 -306.5 41.5t-243 121t-161 203.5
t-57.5 280q0 329 251 490q-251 145 -251 464q0 178 75 307t203.5 193.5t297.5 67.5v-282q-100 -37 -151.5 -105t-51.5 -186q0 -164 102 -234t286 -70h43zM941 966h-31q-184 0 -289.5 -91t-105.5 -257q0 -165 105.5 -256.5t289.5 -91.5h31q184 0 288.5 92t104.5 259
q0 164 -104.5 254.5t-288.5 90.5z" />
    <glyph glyph-name="uni0224" unicode="&#x224;" horiz-adv-x="1838" 
d="M1195 0h-1031v231l1056 1506h-1062v311h1516v-231l-1056 -1506h577q242 0 376.5 -130t134.5 -355v-162h-312v95q0 241 -199 241z" />
    <glyph glyph-name="uni0225" unicode="&#x225;" horiz-adv-x="1573" 
d="M1165 -355v93q0 262 -204 262h-793v234l778 1004h-770v298h1222v-228l-775 -1010h338q242 0 376 -131.5t134 -355.5v-166h-306z" />
    <glyph glyph-name="uni0226" unicode="&#x226;" horiz-adv-x="2038" 
d="M465 0h-396l721 2048h458l722 -2048h-396l-170 505h-770zM734 803h570l-277 825h-16zM1020 2214q-86 0 -148 57t-62 139t62 139.5t148 57.5q85 0 147 -57.5t62 -139.5t-62 -139t-147 -57z" />
    <glyph glyph-name="uni0227" unicode="&#x227;" horiz-adv-x="1618" 
d="M628 -31q-149 0 -263.5 51.5t-182.5 157.5t-68 253q0 100 33 178t85.5 127t131.5 83.5t157 51t176 27.5l27 3q211 23 268 41q72 23 83 73q2 12 2 25q-1 115 -67.5 177t-192.5 62q-125 0 -205.5 -55t-109.5 -140l-338 48q59 207 231.5 315.5t424.5 108.5q91 0 175 -15.5
t166 -54t142.5 -97t98 -151.5t37.5 -210v-1028h-348v211h-12q-54 -106 -168 -174t-283 -68zM722 235q159 0 257.5 92t98.5 224v181q-44 -36 -332 -75q-283 -40 -283 -220q0 -97 71 -149.5t188 -52.5zM828 1742q-86 0 -148 57t-62 139t62 139.5t148 57.5q85 0 147 -57.5
t62 -139.5t-62 -139t-147 -57z" />
    <glyph glyph-name="uni0228" unicode="&#x228;" horiz-adv-x="1711" 
d="M202 0v2048h1332v-311h-961v-556h892v-311h-892v-559h969v-311h-588l-14 -77q100 -15 162.5 -76t62.5 -165q1 -144 -128.5 -229t-363.5 -85l-4 178q249 0 252 127q1 62 -47 92t-157 42l41 193h-556z" />
    <glyph glyph-name="uni0229" unicode="&#x229;" horiz-adv-x="1675" 
d="M934 -28l-9 -49q100 -15 162.5 -76t62.5 -165q1 -144 -128.5 -229t-363.5 -85l-4 178q249 0 252 127q1 62 -47 92t-157 42l37 172q-289 40 -452.5 247t-163.5 533q0 235 89.5 416t255 281t382.5 100q145 0 269.5 -46.5t222.5 -138.5t154 -243.5t56 -347.5v-111h-1070
q2 -195 108.5 -306t283.5 -111q119 0 204 51t121 147l339 -38q-45 -190 -204.5 -307.5t-399.5 -132.5zM483 913h722q-1 158 -98 259.5t-252 101.5q-158 0 -260.5 -104.5t-111.5 -256.5z" />
    <glyph glyph-name="uni022A" unicode="&#x22a;" horiz-adv-x="2182" 
d="M2032 1024q0 -243 -71.5 -442.5t-197.5 -332.5t-298.5 -205t-373.5 -72q-202 0 -374 72t-298 205t-197.5 332.5t-71.5 442.5t71.5 442.5t197.5 332.5t298 205t374 72q201 0 373.5 -72t298.5 -205t197.5 -332.5t71.5 -442.5zM1659 1024q0 342 -155.5 530.5t-412.5 188.5
q-256 0 -412 -188.5t-156 -530.5t156 -530.5t412 -188.5q257 0 412.5 188.5t155.5 530.5zM1572 2864v-226h-964v226h964zM598 2360q-1 68 48.5 114t129.5 46q83 0 133.5 -46t50.5 -114q0 -69 -50 -113.5t-132 -44.5q-83 0 -132 45t-48 113zM1220 2359q-1 68 49.5 113.5
t132.5 45.5q80 0 129.5 -45.5t50.5 -112.5q-1 -68 -49.5 -114t-130.5 -46t-132.5 45t-49.5 114z" />
    <glyph glyph-name="uni022B" unicode="&#x22b;" horiz-adv-x="1718" 
d="M859 -30q-335 0 -535.5 217t-200.5 575q0 236 90 416t257 279t389 99t389.5 -99t257 -279t89.5 -416t-89.5 -415.5t-257 -278t-389.5 -98.5zM861 260q119 0 203 68t124 179.5t40 255.5t-39.5 256t-124 181t-203.5 69q-91 0 -162.5 -39.5t-116.5 -108.5t-68.5 -160
t-23.5 -198q0 -144 40 -255.5t125 -179.5t206 -68zM1348 2427v-226h-966v226h966zM1007 1883q0 72 51.5 121.5t133.5 49.5q81 0 133 -50t52 -122q0 -70 -52 -118.5t-133 -48.5q-82 0 -133.5 48.5t-51.5 119.5zM344 1884q0 72 52.5 121t133.5 49q82 0 133.5 -49.5
t51.5 -120.5t-52 -119t-133 -48t-133.5 48t-52.5 119z" />
    <glyph glyph-name="uni022C" unicode="&#x22c;" horiz-adv-x="2182" 
d="M2032 1024q0 -243 -71.5 -442.5t-197.5 -332.5t-298.5 -205t-373.5 -72q-202 0 -374 72t-298 205t-197.5 332.5t-71.5 442.5t71.5 442.5t197.5 332.5t298 205t374 72q201 0 373.5 -72t298.5 -205t197.5 -332.5t71.5 -442.5zM1659 1024q0 342 -155.5 530.5t-412.5 188.5
q-256 0 -412 -188.5t-156 -530.5t156 -530.5t412 -188.5q257 0 412.5 188.5t155.5 530.5zM1574 2872v-226h-966v226h966zM1340 2511l157 -43q0 -102 -67 -176.5t-166 -74.5q-50 0 -96.5 15t-76 33t-70.5 33t-81 15t-68.5 -36.5t-27.5 -84.5l-156 44q0 101 65 176.5t163 75.5
q63 0 164.5 -46.5t159.5 -46.5q41 0 70.5 33.5t29.5 82.5z" />
    <glyph glyph-name="uni022D" unicode="&#x22d;" horiz-adv-x="1718" 
d="M859 -30q-335 0 -535.5 217t-200.5 575q0 236 90 416t257 279t389 99t389.5 -99t257 -279t89.5 -416t-89.5 -415.5t-257 -278t-389.5 -98.5zM861 260q119 0 203 68t124 179.5t40 255.5t-39.5 256t-124 181t-203.5 69q-91 0 -162.5 -39.5t-116.5 -108.5t-68.5 -160
t-23.5 -198q0 -144 40 -255.5t125 -179.5t206 -68zM1158 2111l224 -15q1 -153 -90.5 -256.5t-227.5 -103.5q-60 0 -114.5 19t-88 41.5t-81.5 41.5t-98 19q-51 0 -86 -38t-35 -98l-222 11q1 149 91 256t224 107q50 0 102.5 -18.5t90.5 -41.5t89 -41.5t98 -18.5q53 0 89 37.5
t35 98.5zM1347 2493v-225h-965v225h965z" />
    <glyph glyph-name="uni022E" unicode="&#x22e;" horiz-adv-x="2182" 
d="M2032 1024q0 -243 -71.5 -442.5t-197.5 -332.5t-298.5 -205t-373.5 -72q-202 0 -374 72t-298 205t-197.5 332.5t-71.5 442.5t71.5 442.5t197.5 332.5t298 205t374 72q201 0 373.5 -72t298.5 -205t197.5 -332.5t71.5 -442.5zM1659 1024q0 342 -155.5 530.5t-412.5 188.5
q-256 0 -412 -188.5t-156 -530.5t156 -530.5t412 -188.5q257 0 412.5 188.5t155.5 530.5zM1092 2214q-86 0 -148 57t-62 139t62 139.5t148 57.5q85 0 147 -57.5t62 -139.5t-62 -139t-147 -57z" />
    <glyph glyph-name="uni022F" unicode="&#x22f;" horiz-adv-x="1718" 
d="M859 -30q-335 0 -535.5 217t-200.5 575q0 236 90 416t257 279t389 99t389.5 -99t257 -279t89.5 -416t-89.5 -415.5t-257 -278t-389.5 -98.5zM861 260q119 0 203 68t124 179.5t40 255.5t-39.5 256t-124 181t-203.5 69q-91 0 -162.5 -39.5t-116.5 -108.5t-68.5 -160
t-23.5 -198q0 -144 40 -255.5t125 -179.5t206 -68zM860 1742q-86 0 -148 57t-62 139t62 139.5t148 57.5q85 0 147 -57.5t62 -139.5t-62 -139t-147 -57z" />
    <glyph glyph-name="uni0230" unicode="&#x230;" horiz-adv-x="2182" 
d="M2032 1024q0 -243 -71.5 -442.5t-197.5 -332.5t-298.5 -205t-373.5 -72q-202 0 -374 72t-298 205t-197.5 332.5t-71.5 442.5t71.5 442.5t197.5 332.5t298 205t374 72q201 0 373.5 -72t298.5 -205t197.5 -332.5t71.5 -442.5zM1659 1024q0 342 -155.5 530.5t-412.5 188.5
q-256 0 -412 -188.5t-156 -530.5t156 -530.5t412 -188.5q257 0 412.5 188.5t155.5 530.5zM1574 2863v-226h-966v226h966zM908 2367q0 67 50 112.5t133 45.5q81 0 130.5 -45.5t50.5 -112.5q-1 -69 -50.5 -114.5t-130.5 -45.5q-83 0 -133 45.5t-50 114.5z" />
    <glyph glyph-name="uni0231" unicode="&#x231;" horiz-adv-x="1718" 
d="M859 -30q-335 0 -535.5 217t-200.5 575q0 236 90 416t257 279t389 99t389.5 -99t257 -279t89.5 -416t-89.5 -415.5t-257 -278t-389.5 -98.5zM861 260q119 0 203 68t124 179.5t40 255.5t-39.5 256t-124 181t-203.5 69q-91 0 -162.5 -39.5t-116.5 -108.5t-68.5 -160
t-23.5 -198q0 -144 40 -255.5t125 -179.5t206 -68zM1347 2472v-224h-966v224h966zM664 1913q0 79 53 130.5t142 51.5t142 -51.5t53 -130.5q0 -78 -53.5 -128t-141.5 -50q-89 0 -142 50t-53 128z" />
    <glyph glyph-name="uni0232" unicode="&#x232;" horiz-adv-x="1989" 
d="M65 2048h418l501 -906h21l501 906h418l-745 -1284v-764h-369v764zM1478 2474v-221h-966v221h966z" />
    <glyph glyph-name="uni0233" unicode="&#x233;" horiz-adv-x="1622" 
d="M398 -598q-129 0 -228 41l84 290q79 -23 140 -22.5t108.5 39t82.5 120.5l38 96l-559 1570h384l354 -1160h16l355 1160h385l-620 -1736q-67 -189 -202 -293.5t-338 -104.5zM1286 2002v-221h-966v221h966z" />
    <glyph glyph-name="uni0234" unicode="&#x234;" horiz-adv-x="1113" 
d="M532 2048v-1875q96 29 182 29q177 0 291.5 -109t115.5 -271q-1 -107 -53 -197t-152.5 -145.5t-230.5 -55.5q-149 0 -270.5 69.5t-185.5 193.5l-226 -206l-190 212l253 232q47 37 104 75v2048h362zM532 -94v-59q-1 -71 42 -116t114 -45q53 0 87.5 37.5t35.5 91.5
q-1 50 -38 85t-97 35q-75 0 -144 -29z" />
    <glyph glyph-name="uni0235" unicode="&#x235;" horiz-adv-x="2222" 
d="M548 900v-900h-362v1536h346v-261h18q54 132 171.5 206.5t286.5 74.5q241 0 384 -153t142 -425v-596q68 10 165 10q183 0 303.5 -110t120.5 -284q1 -177 -127 -287.5t-344 -110.5q-164 0 -280.5 71t-166.5 198l-174 -190l-192 179l253 270q44 49 80 81v713
q0 154 -79.5 241t-219.5 87q-146 0 -235.5 -93t-89.5 -257zM1534 17q0 -60 43.5 -101.5t106.5 -41.5q58 0 94 38.5t36 99.5q0 62 -40 97t-105 36q-63 0 -135 -25v-103z" />
    <glyph glyph-name="uni0236" unicode="&#x236;" horiz-adv-x="1482" 
d="M427 1904h363v-368h302v-280h-302v-537q100 27 182 27q177 0 293.5 -109.5t117.5 -270.5q-1 -165 -123.5 -281.5t-317.5 -116.5q-148 0 -269.5 69.5t-186.5 192.5l-225 -205l-191 212l253 232q53 40 104 74v713h-217v280h217v368zM790 446v-55q-1 -69 44 -115t112 -46
q56 0 92 36t36 93q0 56 -38.5 88t-101.5 32q-69 0 -144 -33z" />
    <glyph glyph-name="uni0237" unicode="&#x237;" horiz-adv-x="734" 
d="M186 1536h362v-1613q0 -244 -143.5 -371.5t-395.5 -127.5h-114v298h73q119 0 168.5 53t49.5 153v1608z" />
    <glyph glyph-name="uni0238" unicode="&#x238;" horiz-adv-x="2634" 
d="M2480 758v-28q0 -223 -65.5 -392t-200 -267.5t-324.5 -98.5q-239 0 -386 166v-138h-338l-18 156q-151 -184 -399 -184q-180 0 -315.5 98.5t-206.5 269.5t-71 388v28q0 225 70.5 396.5t206.5 267.5t320 96q231 0 377 -163v759h374v-762q145 166 382 166q145 0 258.5 -56
t186.5 -157t111 -239t38 -306zM2110 730v28q0 458 -318 458q-203 0 -288 -171v-597q85 -176 292 -176q314 0 314 458zM530 756v-28q0 -96 17 -175t52.5 -143t98 -100t146.5 -36q198 0 286 172v604q-87 166 -284 166q-110 0 -182.5 -62.5t-103 -162.5t-30.5 -235z" />
    <glyph glyph-name="uni0239" unicode="&#x239;" horiz-adv-x="2634" 
d="M1130 -572v698q-146 -154 -376 -154q-140 0 -253.5 57.5t-188.5 159t-115.5 240t-40.5 301.5v28q0 226 69 396t205.5 266t324.5 96q247 0 396 -177l21 149h303l15 -148q149 176 396 176q189 0 324 -95t201.5 -263.5t66.5 -396.5v-31q0 -163 -39 -301t-112 -240
t-185.5 -159.5t-251.5 -57.5q-238 0 -386 162v-706h-374zM2107 730v31q0 98 -18.5 178.5t-56 143.5t-101 98t-147.5 35q-196 0 -280 -157v-628q87 -161 284 -161q84 0 147 36.5t100 101t54.5 145.5t17.5 177zM530 758v-28q0 -92 17 -170.5t52.5 -145.5t99.5 -105.5
t150 -38.5q193 0 281 160v639q-86 150 -279 150q-84 0 -147 -35.5t-100.5 -99.5t-55.5 -145.5t-18 -180.5z" />
    <glyph glyph-name="uni023A" unicode="&#x23a;" horiz-adv-x="2038" 
d="M1670 2308l-250 -748l550 -1560h-396l-170 505h-336l-256 -765h-250l255 765h-183l-169 -505h-396l721 2048h458l43 -123l128 383h251zM917 803l193 579l-83 246h-16l-277 -825h183zM1235 1007l-68 -204h137z" />
    <glyph glyph-name="uni023B" unicode="&#x23b;" horiz-adv-x="2094" 
d="M501 -260l117 350q-220 125 -344 365t-124 569q0 243 71.5 442.5t197 332.5t297 205t372.5 72q100 0 187 -16l83 248h251l-106 -318q184 -86 302.5 -248t149.5 -385h-374q-34 197 -189 301l-446 -1335q69 -18 147 -18q187 0 320 99t168 276l374 -2q-21 -147 -91.5 -275.5
t-180 -224.5t-263.5 -151t-332 -55q-132 0 -249 30l-88 -262h-250zM733 436l435 1303q-32 4 -74 4q-257 0 -414 -190t-157 -529q0 -397 210 -588z" />
    <glyph glyph-name="uni023C" unicode="&#x23c;" horiz-adv-x="1630" 
d="M1418 2048l-207 -572q134 -70 214 -191.5t93 -280.5h-347q-17 95 -74 159l-322 -888q40 -10 87 -10q120 0 203 68.5t106 191.5h347q-21 -249 -197.5 -402t-461.5 -153q-98 0 -187 20l-205 -566h-227l233 643q-168 97 -259 278t-91 417q0 233 89 413t256 280.5t389 100.5
q82 0 151 -13l183 505h227zM906 1262q-28 2 -44 2q-169 0 -270.5 -133t-101.5 -363q0 -237 103 -371z" />
    <glyph glyph-name="uni023D" unicode="&#x23d;" horiz-adv-x="1594" 
d="M202 0v958h-295v229h295v861h371v-861h292v-229h-292v-647h902v-311h-1273z" />
    <glyph glyph-name="uni023E" unicode="&#x23e;" horiz-adv-x="1858" 
d="M406 -260l339 1015v982h-633v311h1065l87 260h250l-87 -260h319v-311h-423l-210 -631v-1106h-368v4l-88 -264h-251z" />
    <glyph glyph-name="uni023F" unicode="&#x23f;" horiz-adv-x="1549" 
d="M1400 1130l-330 -36q-23 83 -94.5 137.5t-188.5 54.5q-114 0 -190 -49.5t-75 -126.5q-1 -67 50 -109.5t167 -68.5l262 -56q218 -47 324.5 -149.5t107.5 -266.5q-1 -218 -184 -354t-472 -136q-70 0 -126 7q101 -179 155.5 -235.5t119.5 -56.5q109 0 234 105l116 -201
q-185 -165 -360 -165q-81 0 -150.5 27.5t-126.5 81.5t-100 112.5t-91 141.5l-235 405q-74 97 -95 227l353 34q23 -103 101.5 -156.5t203.5 -53.5q127 0 206.5 52t79.5 132q0 129 -207 175l-262 55q-434 90 -432 433q0 140 77.5 246t218.5 163t325 57q264 0 422 -113
t196 -313z" />
    <glyph glyph-name="uni0240" unicode="&#x240;" horiz-adv-x="1695" 
d="M623 298h39q101 0 186.5 -31t144 -81t108.5 -110.5t90 -121t77.5 -110.5t81.5 -81t92 -31q101 0 210 95l124 -238q-173 -165 -364 -165q-84 0 -154 32t-120 82.5t-95.5 112l-91 123t-95 112t-119 82.5t-152.5 32h-417v234l778 1004h-770v298h1222v-228z" />
    <glyph glyph-name="uni0241" unicode="&#x241;" horiz-adv-x="1587" 
d="M645 678h119q74 0 130.5 23t91 61.5t56.5 95.5t30.5 117.5t8.5 134.5v168q-2 436 -317 436q-129 0 -202.5 -76t-77.5 -198h-367q4 263 184 427.5t458 164.5q170 0 306.5 -59t224 -162t134 -239t46.5 -294v-168q0 -174 -55 -320t-168 -252.5t-273 -148.5v-389h-388v678h59
z" />
    <glyph glyph-name="uni0242" unicode="&#x242;" horiz-adv-x="1589" 
d="M182 953q0 245 166.5 404t433.5 159q307 0 465.5 -155.5t158.5 -416.5q0 -201 -106.5 -328t-308.5 -161v-455h-373v654h147q270 0 270 288q0 59 -12.5 106.5t-40.5 87t-78.5 61.5t-121.5 22q-102 0 -164 -73.5t-62 -192.5h-374z" />
    <glyph glyph-name="uni0243" unicode="&#x243;" horiz-adv-x="2022" 
d="M372 0v495h-301v229h301v1324h784q163 0 290.5 -40t208.5 -111.5t123 -167.5t42 -212q0 -178 -99 -288t-259 -148v-20q83 -4 160.5 -40t140 -98.5t100 -157.5t37.5 -207q0 -121 -44 -222t-129 -176.5t-219.5 -117.5t-306.5 -42h-829zM743 1177h367q148 0 243.5 79.5
t95.5 212.5q0 123 -86 198t-245 75h-375v-565zM743 310h399q194 0 287.5 74t93.5 203q0 140 -101.5 231.5t-269.5 91.5h-409v-186h286v-229h-286v-185z" />
    <glyph glyph-name="uni0244" unicode="&#x244;" horiz-adv-x="2123" 
d="M2134 1172v-220h-236v-258q0 -137 -41 -253.5t-115.5 -202.5t-177.5 -147t-229 -91.5t-268 -30.5q-179 0 -330.5 48.5t-263 139.5t-174.5 229t-63 308v258h-247v220h247v876h371v-876h921v876h370v-876h236zM1528 952h-921v-249q0 -123 61.5 -215t165 -138.5t233.5 -46.5
t233.5 46.5t165.5 138.5t62 215v249z" />
    <glyph glyph-name="uni0245" unicode="&#x245;" horiz-adv-x="2109" 
d="M1545 0l-492 1534l-488 -1534h-427l722 2004h387l725 -2004h-427z" />
    <glyph glyph-name="uni0246" unicode="&#x246;" horiz-adv-x="1711" 
d="M1412 2308l-75 -260h197v-311h-287l-160 -556h378v-311h-467l-161 -559h705v-311h-795l-75 -260h-228l75 260h-317v2048h907l75 260h228zM1019 1737h-446v-556h286zM770 870h-197v-559h36z" />
    <glyph glyph-name="uni0247" unicode="&#x247;" horiz-adv-x="1675" 
d="M1418 2048l-209 -578q160 -88 251.5 -261.5t91.5 -428.5v-111h-634l-147 -406q50 -11 103 -11q119 0 204 51t121 147l339 -38q-49 -203 -226 -322.5t-442 -119.5q-105 0 -198 21l-205 -567h-227l233 642q-168 95 -259 273.5t-91 419.5q0 235 89.5 416t255 281t382.5 100
q82 0 157 -15l184 507h227zM780 913l129 357q-23 4 -54 4q-158 0 -260.5 -104.5t-111.5 -256.5h297zM691 669h-209q3 -188 101 -298zM1103 1177l-96 -264h198q-2 164 -102 264z" />
    <glyph glyph-name="uni0248" unicode="&#x248;" horiz-adv-x="1582" 
d="M1010 608v499h-298v229h298v712h368v-712h292v-229h-292v-499q-1 -294 -181.5 -465t-479.5 -171q-136 0 -251 37t-201 107t-134.5 180t-48.5 248h369q2 -124 78.5 -195.5t201.5 -71.5q134 0 206 85t73 246z" />
    <glyph glyph-name="uni0249" unicode="&#x249;" horiz-adv-x="734" 
d="M186 1536h362v-504h296v-229h-296v-880q0 -244 -143.5 -371.5t-395.5 -127.5h-114v298h73q119 0 168.5 53t49.5 153v875h-300v229h300v504zM366 1742q-86 0 -148 57t-62 139t62 139.5t148 57.5q85 0 147 -57.5t62 -139.5t-62 -139t-147 -57z" />
    <glyph glyph-name="uni024A" unicode="&#x24a;" horiz-adv-x="2289" 
d="M1976 2048v-2166q0 -169 218 -169q35 0 95 8v-283q-72 -14 -192 -14q-105 0 -189.5 24.5t-152 76.5t-104.5 143t-37 214v428h-16q-79 -157 -231.5 -248.5t-354.5 -91.5q-248 0 -445 137t-307 379t-110 543q0 221 64.5 415t178 333t274 219t345.5 80q203 0 355.5 -90.5
t230.5 -242.5h20v305h358zM1070 305q140 0 245.5 52.5t171 149.5t97.5 227t32 292q0 126 -21 235.5t-65 199.5t-108 153.5t-153 98.5t-197 35q-167 0 -291 -90t-189.5 -253t-65.5 -379q0 -336 147.5 -528.5t396.5 -192.5z" />
    <glyph glyph-name="uni024B" unicode="&#x24b;" horiz-adv-x="1886" 
d="M1694 -576q-83 0 -153.5 15t-132 49t-105 86t-68 130.5t-24.5 177.5v360h-15q-137 -269 -440 -269q-136 0 -251.5 53.5t-200.5 152.5t-133 250t-48 337q0 187 49 338.5t135 249.5t201 150t249 52q303 0 439 -274h22v254h356v-1654q0 -169 217 -169q37 0 95 8v-283
q-68 -14 -192 -14zM857 270q171 0 266 135.5t95 362.5t-94.5 359t-266.5 132q-118 0 -201 -63.5t-123.5 -173t-40.5 -254.5q0 -223 95.5 -360.5t269.5 -137.5z" />
    <glyph glyph-name="uni024C" unicode="&#x24c;" horiz-adv-x="1877" 
d="M240 0v770h-214v291h214v987h790q333 0 521.5 -173.5t188.5 -469.5q0 -200 -95.5 -348.5t-272.5 -224.5l444 -832h-414l-405 770h-386v-770h-371zM611 1061h376q184 0 278.5 89t94.5 248q0 160 -93 250t-263 90h-393v-677z" />
    <glyph glyph-name="uni024D" unicode="&#x24d;" horiz-adv-x="1165" 
d="M186 0v627h-298v229h298v680h351v-256h16q41 132 142.5 205t236.5 73q117 0 206 -56l-112 -300q-69 32 -143 32q-143 0 -239 -93.5t-96 -237.5v-47h298v-229h-298v-627h-362z" />
    <glyph glyph-name="uni024E" unicode="&#x24e;" horiz-adv-x="1989" 
d="M1970 1623v-202h-410l-381 -657v-764h-369v764l-381 657h-410v202h293l-247 425h418l235 -425h553l235 425h418l-247 -425h293zM830 1421l154 -279h21l154 279h-329z" />
    <glyph glyph-name="uni024F" unicode="&#x24f;" horiz-adv-x="1634" 
d="M1558 1056v-205h-235l-375 -1051q-67 -189 -202 -293.5t-338 -104.5q-129 0 -228 41l84 290q79 -23 140 -22.5t108.5 39t82.5 120.5l38 96l-315 885h-247v205h174l-171 480h384l146 -480h432l147 480h385l-171 -480h161zM973 851h-306l145 -475h16z" />
    <glyph glyph-name="uni0250" unicode="&#x250;" horiz-adv-x="1618" 
d="M990 1567q149 0 263.5 -51.5t182.5 -157.5t68 -253q0 -100 -33 -178t-85.5 -127t-131.5 -83.5t-157 -51t-176 -27.5l-27 -3q-211 -23 -268 -41q-72 -23 -83 -73q-2 -12 -2 -25q1 -115 67.5 -177t192.5 -62q125 0 205.5 55t109.5 140l338 -48q-59 -207 -231.5 -315.5
t-424.5 -108.5q-91 0 -175 15.5t-166 54t-142.5 97t-98 151.5t-37.5 210v1028h348v-211h12q54 106 168 174t283 68zM896 1301q-159 0 -257.5 -92t-98.5 -224v-181q44 36 332 75q283 40 283 220q0 97 -71 149.5t-188 52.5z" />
    <glyph glyph-name="uni0251" unicode="&#x251;" horiz-adv-x="1825" 
d="M777 -32q-191 1 -340 103t-231.5 284t-82.5 413q0 172 50.5 319.5t139 250t211 160.5t262.5 58q189 0 322 -101t203 -279h6l76 360h289l-171 -768l191 -768h-292l-87 362h-5q-71 -182 -206.5 -288.5t-334.5 -105.5zM1231 768q0 1 -1 4q-14 68 -32.5 128.5t-52 128.5
t-74.5 117t-103 81t-135 32q-161 0 -258 -136t-97 -354t94.5 -358.5t245.5 -140.5q69 0 131.5 33t106.5 84t80.5 119t58 131.5t35.5 126.5z" />
    <glyph glyph-name="uni0252" unicode="&#x252;" horiz-adv-x="1851" 
d="M1675 784v-28q1 -231 -66.5 -406.5t-203.5 -277.5t-325 -102q-243 0 -383 208l-29 -180h-322v1022q1 102 -24.5 144t-77.5 42q-6 0 -16.5 -2t-15.5 -2l-32 276q69 38 178 38q240 0 323 -227q141 225 403 225q186 0 321 -94t203 -257.5t67 -378.5zM1302 756v28
q0 91 -15.5 165.5t-50.5 136.5t-98 97t-150 35q-181 0 -269 -159q1 -13 1 -39v-584q88 -167 267 -167q83 0 145.5 38t98.5 106t53.5 153.5t17.5 189.5z" />
    <glyph glyph-name="uni0253" unicode="&#x253;" horiz-adv-x="1722" 
d="M186 1424v194q0 103 27.5 184t73.5 131.5t110.5 83.5t133 46t147.5 13q118 0 191 -14v-283q-58 8 -94 8q-47 0 -85 -8t-71.5 -26.5t-52 -52.5t-18.5 -82v-281h18q120 219 400 219q133 0 247.5 -52t201 -150t135.5 -249.5t49 -338.5q0 -186 -48 -337.5t-133.5 -250.5
t-201 -152t-250.5 -53q-81 0 -150 19t-116.5 52.5t-79.5 69t-54 77.5h-24v-191h-356v1424zM1251 768q1 226 -95 358.5t-279 132.5q-180 0 -269 -133.5t-90 -357.5q0 -108 21.5 -197t63.5 -157.5t112 -106t162 -37.5q181 0 278 135.5t96 362.5z" />
    <glyph glyph-name="uni0254" unicode="&#x254;" horiz-adv-x="1586" 
d="M133 506h349q7 -105 85 -170.5t195 -65.5q77 0 135 26t92.5 68t56 103t29 121.5t7.5 133.5v44q0 68 -7.5 127.5t-28.5 121.5t-55.5 105t-93 71t-135.5 28q-126 0 -199.5 -78t-80.5 -197h-349q6 257 178 414.5t447 157.5q137 0 251.5 -38.5t195.5 -106.5t137.5 -162.5
t83.5 -206t27 -236.5v-44q0 -158 -43.5 -292.5t-128 -237.5t-219.5 -161.5t-306 -58.5q-168 0 -309.5 69.5t-225.5 192.5t-88 272z" />
    <glyph glyph-name="uni0255" unicode="&#x255;" horiz-adv-x="1617" 
d="M1505 1052l-340 -45q-29 117 -109 184.5t-208 67.5q-179 0 -276.5 -132t-98.5 -359q0 -92 17 -174q275 211 538 211q109 0 191.5 -29t132 -79.5t74 -114.5t24.5 -139q0 -97 -41 -183t-116.5 -150.5t-190.5 -102t-254 -37.5q-243 0 -420 124q-70 -80 -178 -220l-238 194
q103 148 208 268q-97 188 -97 432q0 230 88 408.5t252.5 279t382.5 100.5q261 0 440.5 -137.5t218.5 -366.5zM848 270q113 0 185.5 37t72.5 107q0 46 -33 72t-78 26q-139 0 -345 -186q84 -56 198 -56z" />
    <glyph glyph-name="uni0256" unicode="&#x256;" horiz-adv-x="1746" 
d="M1694 -576q-105 0 -189.5 24.5t-151.5 76.5t-104.5 143t-37.5 214v360h-12q-137 -269 -440 -269q-136 0 -251.5 53.5t-200.5 152.5t-133 250t-48 337q0 187 49 338.5t135 249.5t201 150t249 52q303 0 439 -274h15v766h362v-2048h-2v-118q0 -169 217 -169q37 0 95 8v-283
q-67 -14 -192 -14zM1221 768q0 227 -94.5 359t-266.5 132q-118 0 -201 -63.5t-123.5 -173t-40.5 -254.5q0 -223 95.5 -360.5t269.5 -137.5q171 0 266 135.5t95 362.5z" />
    <glyph glyph-name="uni0257" unicode="&#x257;" horiz-adv-x="1809" 
d="M756 -27q-136 0 -251.5 53.5t-200.5 152.5t-133 250t-48 337q0 187 49 338.5t135 249.5t201 150t249 52q303 0 439 -274h15v332q0 104 29.5 186t78 133t115.5 84.5t135.5 47t144.5 13.5q117 0 191 -19v-284q-41 10 -94 10q-37 0 -65.5 -2.5t-62.5 -12.5t-56.5 -27.5
t-37.5 -50.5t-15 -78v-1614h-356v242h-22q-137 -269 -440 -269zM857 270q171 0 266 135.5t95 362.5t-94.5 359t-266.5 132q-118 0 -201 -63.5t-123.5 -173t-40.5 -254.5q0 -223 95.5 -360.5t269.5 -137.5z" />
    <glyph glyph-name="uni0258" unicode="&#x258;" horiz-adv-x="1584" 
d="M730 -28q-142 0 -262.5 42t-195.5 100.5t-130 133.5l193 195q140 -173 374 -173q164 0 265.5 97.5t119.5 258.5h-980v159q0 164 42 297t122.5 230.5t206.5 150.5t288 53q151 0 280.5 -56t221.5 -156t144 -243.5t52 -312.5v-54q0 -151 -51 -283t-145 -229.5t-234.5 -153.5
t-310.5 -56zM1088 885q-24 153 -102.5 243.5t-211.5 90.5q-77 0 -134 -24.5t-90 -68.5t-49.5 -96.5t-20.5 -116.5v-28h608z" />
    <glyph glyph-name="uni0259" unicode="&#x259;" horiz-adv-x="1675" 
d="M805 1566q347 0 547 -213t200 -576q0 -235 -89.5 -416t-255 -281t-382.5 -100q-145 0 -269.5 46.5t-222.5 138.5t-154 243.5t-56 347.5v111h1070q-2 195 -108.5 306t-283.5 111q-119 0 -204 -51t-121 -147l-339 38q49 203 226 322.5t442 119.5zM1192 623h-722
q1 -158 98 -259.5t252 -101.5q158 0 260.5 104.5t111.5 256.5z" />
    <glyph glyph-name="uni025A" unicode="&#x25a;" horiz-adv-x="2254" 
d="M753 1516q255 0 435 -122t255 -326l330 70q34 -216 52 -275q33 -116 101 -144q27 -11 62 -11q38 0 84 4l47 -229q-103 -53 -208 -53q-53 0 -97.5 11t-78 29t-61 48t-46.5 61t-35.5 74.5t-27 82.5t-21.5 91l-54 -12v-20v-55q0 -225 -88 -400t-246.5 -271.5t-360.5 -96.5
q-162 0 -288.5 53.5t-207 151.5t-121.5 231.5t-41 297.5v83l944 205q-45 105 -135 165t-215 60q-239 0 -377 -174l-190 197q37 54 90 100.5t125 86.5t168.5 63.5t205.5 23.5zM1120 736l-618 -129v-32q0 -63 16.5 -116t50 -96.5t92 -68t136.5 -24.5q108 0 182 64.5t107 167
t34 234.5z" />
    <glyph glyph-name="uni025B" unicode="&#x25b;" horiz-adv-x="1736" 
d="M1002 803v-145h-206q-133 0 -221.5 -56.5t-88.5 -152.5q0 -86 86.5 -141.5t233.5 -55.5q148 0 226.5 48t95.5 145h354q-10 -147 -102 -256t-238 -163t-326 -54q-194 0 -348.5 54t-245 156.5t-90.5 235.5q0 59 18.5 111.5t56.5 100t103 85t152 59.5q-105 29 -175 84.5
t-99 118t-30 133.5q1 209 181.5 327.5t474.5 118.5q273 0 449.5 -121.5t193.5 -332.5h-357q-14 85 -93.5 130.5t-207.5 45.5q-133 0 -210.5 -54t-78.5 -136q1 -79 75.5 -125.5t210.5 -46.5h206v-113z" />
    <glyph glyph-name="uni025C" unicode="&#x25c;" horiz-adv-x="1571" 
d="M573 742v174h206q136 0 210.5 46.5t75.5 125.5q-1 82 -78.5 136t-210.5 54q-128 0 -207.5 -45.5t-93.5 -130.5h-357q17 211 193.5 332.5t449.5 121.5q294 0 474.5 -118.5t181.5 -327.5q-1 -71 -30 -133.5t-99 -118t-175 -84.5q87 -22 152 -59.5t103 -85t56.5 -100
t18.5 -111.5q0 -133 -90.5 -235.5t-245 -156.5t-348.5 -54q-180 0 -326 54t-238 163t-102 256h354q17 -97 95.5 -145t226.5 -48q147 0 233.5 55.5t86.5 141.5q0 96 -88.5 152.5t-221.5 56.5h-206v84z" />
    <glyph glyph-name="uni025D" unicode="&#x25d;" horiz-adv-x="2203" 
d="M576 742v174h206q136 0 210.5 46.5t75.5 125.5q-1 82 -78.5 136t-210.5 54q-128 0 -207.5 -45.5t-93.5 -130.5h-357q17 211 193.5 332.5t449.5 121.5q241 0 409.5 -81.5t223.5 -229.5l324 67q33 -214 52 -278q35 -117 107 -143q24 -8 54 -8q57 0 83 5l49 -230
q-94 -51 -207 -51q-54 0 -98.5 11t-78 29t-61 47.5t-46.5 60.5t-36 74t-27.5 81.5t-22.5 90.5l-99 -23q-68 -147 -274 -204q87 -22 152 -59.5t103 -85t56.5 -100t18.5 -111.5q0 -133 -90.5 -235.5t-245 -156.5t-348.5 -54q-180 0 -326 54t-238 163t-102 256h354
q17 -97 95.5 -145t226.5 -48q147 0 233.5 55.5t86.5 141.5q0 96 -88.5 152.5t-221.5 56.5h-206v84z" />
    <glyph glyph-name="uni025E" unicode="&#x25e;" horiz-adv-x="1626" 
d="M822 -28q-153 0 -281.5 52.5t-222.5 153.5t-146.5 257.5t-52.5 353.5q0 187 51 333.5t145 241t223 143.5t286 49q287 0 459 -118t173 -328q-1 -111 -70 -201.5t-217 -134.5q164 -42 239 -137t76 -219q-1 -201 -187 -323.5t-475 -122.5zM724 803v110h116q130 0 196.5 47
t67.5 128q-1 83 -68.5 136.5t-189.5 53.5q-179 0 -279.5 -120t-99.5 -369q-1 -265 94 -400t277 -135q136 0 212 54.5t77 140.5q-1 97 -78.5 154.5t-208.5 57.5h-116v142z" />
    <glyph glyph-name="uni025F" unicode="&#x25f;" horiz-adv-x="734" 
d="M186 1536h362v-504h296v-229h-296v-880q0 -244 -143.5 -371.5t-395.5 -127.5h-114v298h73q119 0 168.5 53t49.5 153v875h-300v229h300v504z" />
    <glyph glyph-name="uni0260" unicode="&#x260;" horiz-adv-x="1795" 
d="M818 -590q-239 0 -395.5 80t-243.5 212l250 188q156 -190 391 -190q174 0 289 93t113 253v230h-21q-24 -48 -57 -88.5t-85 -80t-129 -62.5t-171 -23q-134 0 -248.5 47.5t-200.5 139t-135 236.5t-49 328q0 185 49 334.5t135 247t201 149.5t249 52q305 0 441 -274h20v171
h-3v165q0 102 27 182.5t72 131.5t108.5 84t132 46.5t146.5 13.5q117 0 192 -14v-283q-64 8 -95 8q-100 0 -163.5 -39t-63.5 -130v-82h3v-1503q0 -292 -207.5 -457.5t-551.5 -165.5zM860 306q172 0 266.5 124t94.5 345q0 222 -94.5 353t-266.5 131q-175 0 -270 -133.5
t-95 -350.5t94.5 -343t270.5 -126z" />
    <glyph glyph-name="uni0261" unicode="&#x261;" horiz-adv-x="1759" 
d="M815 -590q-239 0 -395.5 80t-243.5 212l250 188q156 -190 391 -190q174 0 289 93t113 253v230h-21q-24 -48 -57 -88.5t-85 -80t-129 -62.5t-171 -23q-134 0 -248.5 47.5t-200.5 139t-135 236.5t-49 328q0 185 49 334.5t135 247t201 149.5t249 52q305 0 441 -274h20v254
h356v-1503q0 -292 -207.5 -457.5t-551.5 -165.5zM857 306q172 0 266.5 124t94.5 345q0 222 -94.5 353t-266.5 131q-175 0 -270 -133.5t-95 -350.5t94.5 -343t270.5 -126z" />
    <glyph glyph-name="uni0262" unicode="&#x262;" horiz-adv-x="1853" 
d="M1634 792v-571q-213 -247 -679 -247q-218 0 -388 83t-265 234t-95 345v224q0 192 93.5 342t259.5 232t378 82q314 0 487 -133.5t200 -386.5h-357q-19 116 -100.5 171.5t-229.5 55.5q-164 0 -268.5 -102t-104.5 -259v-226q0 -159 107 -262.5t283 -103.5q225 0 340 76v184
h-338v262h677z" />
    <glyph glyph-name="uni0263" unicode="&#x263;" horiz-adv-x="1801" 
d="M902 -600q-133 0 -236 37.5t-165.5 118.5t-62.5 196q-2 114 91 279l186 352l-595 1126h377l404 -773l409 773h376l-594 -1137l174 -333q88 -167 88 -287q0 -171 -125 -261.5t-327 -90.5zM906 19q-2 -4 -3 -7q-38 -68 -54 -99.5t-29 -70t-13 -68.5q-1 -44 23 -72.5
t72 -28.5q46 0 69 28.5t23 72.5t-20.5 98t-67.5 147z" />
    <glyph glyph-name="uni0264" unicode="&#x264;" horiz-adv-x="1965" 
d="M298 1085l-193 221q40 47 75.5 80t84.5 65t109.5 48.5t131.5 16.5q133 0 246 -90.5t230 -265.5q115 175 229.5 265.5t251.5 90.5q130 0 222.5 -55.5t178.5 -154.5l-196 -221q-85 96 -156 96q-74 0 -139 -70t-193 -282l76.5 -131.5t57 -103.5t50.5 -107t24.5 -84t12.5 -93
q-1 -162 -113.5 -250t-305.5 -88t-306 88t-112 250q0 53 12.5 105t48 126t63.5 124l93 161q1 0 1 1t1 2q-128 212 -193.5 282t-135.5 70q-74 0 -156 -96zM982 504q-77 -126 -76 -178q-1 -34 16.5 -57t59.5 -23q74 0 76 80q-1 56 -76 178z" />
    <glyph glyph-name="uni0265" unicode="&#x265;" horiz-adv-x="1730" 
d="M1182 636v900h362v-2112h-354v837h-19q-54 -135 -169 -208t-288 -73q-243 0 -385.5 151.5t-142.5 426.5v978h362v-922q0 -155 79.5 -241.5t222.5 -86.5q148 0 240 93.5t92 256.5z" />
    <glyph glyph-name="uni0266" unicode="&#x266;" horiz-adv-x="1717" 
d="M548 900v-900h-362v1619q0 102 26.5 182t70.5 131t106.5 84t130 46.5t146.5 13.5q117 0 190 -14v-283q-58 8 -95 8q-46 0 -84.5 -8t-72.5 -26t-53 -52t-19 -82v-344h18q54 132 171.5 206.5t286.5 74.5q241 0 384 -153t142 -425v-978h-362v922q0 154 -79.5 241t-219.5 87
q-146 0 -235.5 -93t-89.5 -257z" />
    <glyph glyph-name="uni0267" unicode="&#x267;" horiz-adv-x="1717" 
d="M548 900v-900h-362v1619q0 102 26.5 182t70.5 131t106.5 84t130 46.5t146.5 13.5q117 0 190 -14v-283q-58 8 -95 8q-46 0 -84.5 -8t-72.5 -26t-53 -52t-19 -82v-344h18q54 132 171.5 206.5t286.5 74.5q241 0 384 -153t142 -425v-1096q0 -123 -37.5 -214t-105 -143
t-152 -76.5t-189.5 -24.5q-118 0 -191 14v283q58 -8 95 -8q218 0 218 169v1040q0 154 -79.5 241t-219.5 87q-146 0 -235.5 -93t-89.5 -257z" />
    <glyph glyph-name="uni0268" unicode="&#x268;" horiz-adv-x="734" 
d="M186 0v716h-299v229h299v591h362v-591h297v-229h-297v-716h-362zM368 1742q-86 0 -148 57t-62 139t62 139.5t148 57.5q85 0 147 -57.5t62 -139.5t-62 -139t-147 -57z" />
    <glyph glyph-name="uni0269" unicode="&#x269;" horiz-adv-x="1066" 
d="M188 1488h371v-1058q0 -56 18.5 -96.5t51 -62t71 -31.5t85.5 -10q43 0 97 9v-249q-94 -18 -194 -18q-84 0 -156 14.5t-136.5 48t-109.5 85.5t-71.5 131t-26.5 179v1058z" />
    <glyph glyph-name="uni026A" unicode="&#x26a;" horiz-adv-x="1216" 
d="M1005 1488v-297h-213v-893h213v-298h-791v298h206v893h-206v297h791z" />
    <glyph glyph-name="uni026B" unicode="&#x26b;" horiz-adv-x="909" 
d="M641 2048v-868q50 3 84.5 40t33.5 96l222 -16q0 -152 -90.5 -255.5t-226.5 -103.5q-16 0 -23 1v-942h-362v1062q-51 -2 -84 -39.5t-33 -97.5l-224 11q0 151 91 257.5t225 106.5q17 0 25 -1v749h362z" />
    <glyph glyph-name="uni026C" unicode="&#x26c;" horiz-adv-x="1338" 
d="M1310 779h-298v-779h-362v779h-156q-202 0 -322 103.5t-119 274.5q-1 171 123 285t346 114q67 0 128 -11v503h362v-1004h298v-265zM650 1128q-1 73 -34.5 115.5t-99.5 42.5q-58 0 -97.5 -36.5t-39.5 -86.5q0 -49 39 -84t104 -35h128v84z" />
    <glyph glyph-name="uni026D" unicode="&#x26d;" horiz-adv-x="861" 
d="M548 2048v-2166q0 -169 218 -169q37 0 95 8v-283q-73 -14 -191 -14q-105 0 -190 24.5t-152.5 76.5t-104.5 143t-37 214v2166h362z" />
    <glyph glyph-name="uni026E" unicode="&#x26e;" horiz-adv-x="1927" 
d="M202 2048h346v-512h1205l1 -254l-560 -606v-16q295 -34 454 -195.5t158 -395.5q0 -175 -96 -314.5t-269 -217t-391 -77.5q-172 0 -317.5 51t-246.5 143l264 233q111 -116 304 -116q163 0 266.5 88.5t103.5 228.5q0 149 -106 243t-277 94h-229v267l480 523v16h-744v-1186
h-346v2003z" />
    <glyph glyph-name="uni026F" unicode="&#x26f;" horiz-adv-x="2528" 
d="M2342 1536v-1536h-346v261h-18q-48 -132 -159.5 -206.5t-264.5 -74.5q-154 0 -262 74.5t-153 206.5h-16q-52 -130 -174 -205.5t-287 -75.5q-217 0 -348.5 137t-131.5 388v1031h363v-975q0 -136 73 -206t189 -70q129 0 203.5 80.5t74.5 212.5v958h355v-990
q0 -118 71.5 -189.5t186.5 -71.5q119 0 200.5 89t81.5 228v934h362z" />
    <glyph glyph-name="uni0270" unicode="&#x270;" horiz-adv-x="2528" 
d="M1996 -576v837h-18q-48 -132 -159.5 -206.5t-264.5 -74.5q-154 0 -262 74.5t-153 206.5h-16q-52 -130 -174 -205.5t-287 -75.5q-217 0 -348.5 137t-131.5 388v1031h363v-975q0 -136 73 -206t189 -70q129 0 203.5 80.5t74.5 212.5v958h355v-990q0 -118 71.5 -189.5
t186.5 -71.5q119 0 200.5 89t81.5 228v934h362v-2112h-346z" />
    <glyph glyph-name="uni0271" unicode="&#x271;" horiz-adv-x="2528" 
d="M186 0v1536h346v-261h18q48 132 159.5 206.5t264.5 74.5q154 0 262 -74.5t153 -206.5h16q52 130 174 205.5t287 75.5q217 0 348.5 -137t131.5 -388v-1149q0 -123 -37.5 -214t-105 -143t-152.5 -76.5t-190 -24.5q-116 0 -191 14v283q60 -8 96 -8q217 0 217 169v1093
q0 136 -73 206t-189 70q-129 0 -203.5 -80.5t-74.5 -212.5v-958h-355v990q0 118 -71.5 189.5t-186.5 71.5q-119 0 -200.5 -89t-81.5 -228v-934h-362z" />
    <glyph glyph-name="uni0272" unicode="&#x272;" horiz-adv-x="1766" 
d="M235 0h1v1536h346v-261h18q54 132 171.5 206.5t286.5 74.5q241 0 384 -153t142 -425v-978h-362v922q0 154 -79.5 241t-219.5 87q-146 0 -235.5 -93t-89.5 -257v-1011q0 -230 -136.5 -354t-363.5 -124q-121 0 -188 15l19 298q58 -13 109 -13q197 0 197 178v111z" />
    <glyph glyph-name="uni0273" unicode="&#x273;" horiz-adv-x="1758" 
d="M548 900v-900h-362v1536h346v-261h18q54 132 171.5 206.5t286.5 74.5q241 0 384 -153t142 -425v-1096q0 -169 218 -169q31 0 95 8v-283q-75 -14 -192 -14q-83 0 -153.5 15t-132 49t-105 86t-68 130.5t-24.5 177.5v1040q0 154 -79.5 241t-219.5 87q-146 0 -235.5 -93
t-89.5 -257z" />
    <glyph glyph-name="uni0274" unicode="&#x274;" horiz-adv-x="1587" 
d="M517 1488l554 -967v967h371v-1488h-371l-554 972v-972h-371v1488h371z" />
    <glyph glyph-name="uni0275" unicode="&#x275;" horiz-adv-x="1715" 
d="M859 -30q-335 0 -535.5 217t-200.5 575q0 236 90 416t257 279t389 99t389.5 -99t257 -279t89.5 -416t-89.5 -415.5t-257 -278t-389.5 -98.5zM861 260q151 0 243 104.5t116 278.5h-722q24 -174 117 -278.5t246 -104.5zM499 887h720q-24 173 -116 277.5t-242 104.5
q-152 0 -245 -104.5t-117 -277.5z" />
    </font>
</defs>
</svg>
